<svg width="76" height="77" viewBox="0 0 76 77" fill="none" xmlns="http://www.w3.org/2000/svg">
<g clip-path="url(#clip0_1_775)">
<path d="M74.8125 38.5002C74.8124 45.7809 72.6533 52.898 68.6083 58.9517C64.5633 65.0053 58.814 69.7236 52.0875 72.5098C45.361 75.296 37.9593 76.025 30.8185 74.6046C23.6777 73.1843 17.1184 69.6783 11.97 64.5302C5.88832 58.4477 2.12804 50.4279 1.34173 41.8626C0.555418 33.2972 2.79271 24.7268 7.66536 17.6387C7.75237 17.5069 7.86482 17.3938 7.99611 17.3059C8.1274 17.2181 8.27489 17.1573 8.42996 17.1272C8.58502 17.0971 8.74454 17.0982 8.89917 17.1305C9.05381 17.1627 9.20044 17.2256 9.33049 17.3152C9.46054 17.4049 9.5714 17.5196 9.65657 17.6526C9.74174 17.7857 9.7995 17.9344 9.82649 18.09C9.85348 18.2457 9.84914 18.4051 9.81373 18.5591C9.77832 18.713 9.71255 18.8583 9.62028 18.9866C4.7544 26.064 2.70862 34.7042 3.88427 43.2121C5.05993 51.7201 9.37217 59.4817 15.975 64.9743C22.5779 70.467 30.9948 73.2943 39.5746 72.9015C48.1544 72.5087 56.2778 68.9243 62.3512 62.8513C68.3969 56.8038 71.9766 48.7234 72.3937 40.1823C72.8109 31.6413 70.0356 23.2505 64.608 16.6427C59.1804 10.0348 51.4886 5.68239 43.0292 4.4324C34.5699 3.1824 25.948 5.12418 18.8412 9.87992L20.7204 12.1154L12.5593 13.5627L15.3856 5.77117L17.3049 8.05414C22.8388 4.29296 29.2932 2.11113 35.9743 1.74321C42.6553 1.37528 49.3102 2.83516 55.2237 5.96592C61.1372 9.09668 66.0856 13.7799 69.537 19.5122C72.9884 25.2445 74.8123 31.809 74.8125 38.5002Z" fill="#3147FF"/>
<path d="M38 68.1875C54.3697 68.1875 67.6875 54.8697 67.6875 38.5C67.6875 22.1303 54.3697 8.8125 38 8.8125C21.6303 8.8125 8.3125 22.1303 8.3125 38.5C8.3125 54.8697 21.6303 68.1875 38 68.1875ZM38 11.1875C53.0602 11.1875 65.3125 23.4398 65.3125 38.5C65.3125 53.5602 53.0602 65.8125 38 65.8125C22.9398 65.8125 10.6875 53.5602 10.6875 38.5C10.6875 23.4398 22.9398 11.1875 38 11.1875Z" fill="#3147FF"/>
<path d="M38 15.9375C38.3149 15.9375 38.617 15.8124 38.8397 15.5897C39.0624 15.367 39.1875 15.0649 39.1875 14.75V13.5625C39.1875 13.2476 39.0624 12.9455 38.8397 12.7228C38.617 12.5001 38.3149 12.375 38 12.375C37.6851 12.375 37.383 12.5001 37.1603 12.7228C36.9376 12.9455 36.8125 13.2476 36.8125 13.5625V14.75C36.8125 15.0649 36.9376 15.367 37.1603 15.5897C37.383 15.8124 37.6851 15.9375 38 15.9375Z" fill="#3147FF"/>
<path d="M38 61.0625C37.6851 61.0625 37.383 61.1876 37.1603 61.4103C36.9376 61.633 36.8125 61.9351 36.8125 62.25V63.4375C36.8125 63.7524 36.9376 64.0545 37.1603 64.2772C37.383 64.4999 37.6851 64.625 38 64.625C38.3149 64.625 38.617 64.4999 38.8397 64.2772C39.0624 64.0545 39.1875 63.7524 39.1875 63.4375V62.25C39.1875 61.9351 39.0624 61.633 38.8397 61.4103C38.617 61.1876 38.3149 61.0625 38 61.0625Z" fill="#3147FF"/>
<path d="M61.75 39.6877H62.9375C63.2524 39.6877 63.5545 39.5626 63.7772 39.3399C63.9999 39.1172 64.125 38.8152 64.125 38.5002C64.125 38.1853 63.9999 37.8833 63.7772 37.6606C63.5545 37.4379 63.2524 37.3127 62.9375 37.3127H61.75C61.4351 37.3127 61.133 37.4379 60.9103 37.6606C60.6876 37.8833 60.5625 38.1853 60.5625 38.5002C60.5625 38.8152 60.6876 39.1172 60.9103 39.3399C61.133 39.5626 61.4351 39.6877 61.75 39.6877Z" fill="#3147FF"/>
<path d="M13.0625 39.6877H14.25C14.5649 39.6877 14.867 39.5626 15.0897 39.3399C15.3124 39.1172 15.4375 38.8152 15.4375 38.5002C15.4375 38.1853 15.3124 37.8833 15.0897 37.6606C14.867 37.4379 14.5649 37.3127 14.25 37.3127H13.0625C12.7476 37.3127 12.4455 37.4379 12.2228 37.6606C12.0001 37.8833 11.875 38.1853 11.875 38.5002C11.875 38.8152 12.0001 39.1172 12.2228 39.3399C12.4455 39.5626 12.7476 39.6877 13.0625 39.6877Z" fill="#3147FF"/>
<path d="M54.7935 22.894C54.9495 22.8942 55.1039 22.8636 55.248 22.8039C55.3921 22.7442 55.5229 22.6567 55.6331 22.5462L56.4728 21.7065C56.5851 21.5967 56.6745 21.4657 56.7358 21.3211C56.7972 21.1766 56.8292 21.0212 56.8301 20.8642C56.831 20.7071 56.8007 20.5514 56.741 20.4062C56.6813 20.2609 56.5934 20.1289 56.4824 20.0178C56.3713 19.9067 56.2393 19.8188 56.0941 19.7591C55.9488 19.6994 55.7931 19.6691 55.6361 19.6699C55.479 19.6708 55.3237 19.7028 55.1791 19.7641C55.0345 19.8254 54.9035 19.9148 54.7936 20.0271L53.9538 20.8668C53.7877 21.0329 53.6746 21.2445 53.6288 21.4748C53.583 21.7052 53.6065 21.944 53.6964 22.161C53.7862 22.378 53.9384 22.5634 54.1337 22.6939C54.329 22.8244 54.5586 22.894 54.7935 22.894Z" fill="#3147FF"/>
<path d="M20.3665 57.3211C20.5225 57.3213 20.677 57.2907 20.8211 57.231C20.9652 57.1714 21.0961 57.0838 21.2062 56.9733L22.0461 56.1336C22.1564 56.0233 22.2438 55.8924 22.3035 55.7483C22.3632 55.6042 22.3939 55.4498 22.3939 55.2938C22.3939 55.1379 22.3632 54.9834 22.3035 54.8393C22.2438 54.6953 22.1564 54.5643 22.0461 54.4541C21.9358 54.3438 21.8049 54.2563 21.6608 54.1966C21.5167 54.1369 21.3622 54.1062 21.2063 54.1062C21.0503 54.1062 20.8959 54.1369 20.7518 54.1966C20.6077 54.2563 20.4768 54.3438 20.3665 54.4541L19.5268 55.2939C19.3607 55.46 19.2476 55.6716 19.2018 55.9019C19.156 56.1323 19.1795 56.3711 19.2694 56.5881C19.3592 56.8051 19.5114 56.9905 19.7067 57.121C19.902 57.2515 20.1316 57.3211 20.3665 57.3211Z" fill="#3147FF"/>
<path d="M55.6336 54.4541C55.5233 54.3438 55.3924 54.2563 55.2483 54.1966C55.1042 54.1369 54.9498 54.1062 54.7938 54.1062C54.6379 54.1062 54.4834 54.1369 54.3393 54.1966C54.1953 54.2563 54.0643 54.3438 53.9541 54.4541C53.8438 54.5643 53.7563 54.6953 53.6966 54.8393C53.6369 54.9834 53.6062 55.1379 53.6062 55.2938C53.6062 55.4498 53.6369 55.6042 53.6966 55.7483C53.7563 55.8924 53.8438 56.0233 53.9541 56.1336L54.7939 56.9733C55.0166 57.196 55.3187 57.3212 55.6336 57.3212C55.9486 57.3212 56.2506 57.196 56.4733 56.9733C56.696 56.7506 56.8212 56.4486 56.8212 56.1336C56.8212 55.8187 56.696 55.5166 56.4733 55.2939L55.6336 54.4541Z" fill="#3147FF"/>
<path d="M20.3667 22.5462C20.4768 22.6576 20.6077 22.7461 20.7521 22.8067C20.8964 22.8672 21.0514 22.8987 21.2079 22.8991C21.3645 22.8996 21.5196 22.8691 21.6643 22.8094C21.809 22.7497 21.9405 22.662 22.0512 22.5513C22.1619 22.4406 22.2496 22.3091 22.3093 22.1643C22.369 22.0196 22.3994 21.8645 22.399 21.708C22.3985 21.5514 22.367 21.3965 22.3065 21.2522C22.2459 21.1078 22.1574 20.9768 22.046 20.8668L21.2061 20.0271C21.0963 19.9148 20.9653 19.8254 20.8207 19.7641C20.6761 19.7028 20.5208 19.6708 20.3637 19.6699C20.2067 19.6691 20.051 19.6994 19.9057 19.7591C19.7604 19.8188 19.6285 19.9067 19.5174 20.0178C19.4064 20.1289 19.3184 20.2609 19.2588 20.4062C19.1991 20.5514 19.1688 20.7071 19.1697 20.8642C19.1706 21.0212 19.2026 21.1766 19.264 21.3211C19.3253 21.4657 19.4147 21.5967 19.527 21.7065L20.3667 22.5462Z" fill="#3147FF"/>
<path d="M20.4631 42.3806L30.629 52.5463C30.7393 52.6566 30.8702 52.7441 31.0143 52.8038C31.1584 52.8634 31.3128 52.8942 31.4687 52.8942C31.6247 52.8942 31.7791 52.8634 31.9232 52.8038C32.0673 52.7441 32.1982 52.6566 32.3084 52.5463L55.5368 29.3181C55.6471 29.2078 55.7346 29.0769 55.7943 28.9328C55.854 28.7887 55.8847 28.6343 55.8847 28.4783C55.8847 28.3223 55.854 28.1679 55.7943 28.0238C55.7346 27.8797 55.6471 27.7488 55.5368 27.6385L53.0177 25.1194C52.9074 25.0091 52.7765 24.9216 52.6324 24.8619C52.4883 24.8022 52.3339 24.7715 52.1779 24.7715C52.0219 24.7715 51.8675 24.8022 51.7234 24.8619C51.5793 24.9216 51.4484 25.0091 51.3381 25.1194L31.4687 44.9891L24.6618 38.1819C24.5516 38.0716 24.4206 37.9841 24.2766 37.9244C24.1325 37.8647 23.978 37.834 23.8221 37.834C23.6661 37.834 23.5116 37.8647 23.3676 37.9244C23.2235 37.9841 23.0925 38.0716 22.9823 38.1819L20.4631 40.701C20.3528 40.8113 20.2653 40.9422 20.2057 41.0863C20.146 41.2304 20.1152 41.3848 20.1152 41.5408C20.1152 41.6968 20.146 41.8512 20.2057 41.9953C20.2653 42.1394 20.3528 42.2703 20.4631 42.3806ZM23.822 40.701L30.629 47.5082C30.7393 47.6185 30.8702 47.706 31.0143 47.7656C31.1584 47.8253 31.3128 47.8561 31.4687 47.8561C31.6247 47.8561 31.7791 47.8253 31.9232 47.7656C32.0673 47.706 32.1982 47.6185 32.3084 47.5082L52.178 27.6385L53.0177 28.4782L31.4687 50.0272L22.9823 41.5407L23.822 40.701Z" fill="#3147FF"/>
</g>
<defs>
<clipPath id="clip0_1_775">
<rect width="76" height="76" fill="white" transform="translate(0 0.5)"/>
</clipPath>
</defs>
</svg>
