<svg width="68" height="79" viewBox="0 0 68 79" fill="none" xmlns="http://www.w3.org/2000/svg">
<g clip-path="url(#clip0_1_760)">
<path d="M9.6043 24.0434H20.9886C20.7376 25.0015 20.5998 26.0121 20.5998 27.0572V28.268C20.5998 29.9808 21.909 31.3737 23.5184 31.3737H44.0591C45.6685 31.3737 46.9777 29.9808 46.9777 28.268V27.0572C46.9777 26.0121 46.8399 25.0015 46.5889 24.0434H57.9732C59.3103 24.0434 60.3981 22.8933 60.3981 21.4807V20.58C60.3981 16.357 57.5302 12.8461 53.7962 12.2145C54.4131 11.6698 54.9282 10.9594 55.3154 10.0898C56.5114 7.40907 56.1948 3.79149 54.6099 2.02453C53.4861 0.772735 52.1277 0.188672 50.3328 0.188672C48.5331 0.188672 47.1713 0.772735 46.0475 2.02453C44.4627 3.79149 44.146 7.40907 45.342 10.0882C45.7309 10.9577 46.246 11.6698 46.8645 12.2145C44.315 12.6541 42.0952 14.4621 40.996 16.9985C39.9444 16.4801 38.7976 16.152 37.5934 16.0535C38.6729 15.3152 39.5506 14.2275 40.1774 12.8264C41.7359 9.33516 41.3356 4.63805 39.2865 2.3543C37.8509 0.748125 36.1053 0 33.797 0C31.482 0 29.7331 0.748125 28.291 2.3543C26.2419 4.63805 25.8432 9.33516 27.4002 12.8248C28.0252 14.2275 28.9046 15.3152 29.9841 16.0535C28.7799 16.152 27.6331 16.4801 26.5815 16.9985C25.4806 14.4621 23.2625 12.6541 20.713 12.2145C21.3315 11.6698 21.8466 10.9577 22.2355 10.0882C23.4315 7.40743 23.1149 3.78985 21.53 2.02289C20.4062 0.771094 19.0477 0.187031 17.2529 0.187031C15.4531 0.187031 14.0914 0.771094 12.9676 2.02289C11.3827 3.78985 11.0661 7.40743 12.2621 10.0866C12.6493 10.9545 13.1645 11.6665 13.7813 12.2112C10.0456 12.8428 7.17945 16.3538 7.17945 20.5767V21.4774C7.17945 22.8933 8.26719 24.0434 9.6043 24.0434ZM45.0123 28.268C45.0123 28.8849 44.5775 29.4049 44.0624 29.4049H23.5217C23.0066 29.4049 22.5718 28.8849 22.5718 28.268V27.0572C22.5718 22.0566 26.2452 17.9862 30.7602 17.9862H36.8256C41.3406 17.9862 45.0139 22.0549 45.0139 27.0572V28.268H45.0123ZM47.5175 3.33867C48.2607 2.51016 49.104 2.15742 50.3377 2.15742C51.5649 2.15742 52.4066 2.51016 53.1498 3.33867C54.1046 4.4018 54.4656 7.17118 53.5222 9.28594C53.0694 10.3015 52.1474 11.5123 50.3345 11.5123C48.5199 11.5123 47.5979 10.3015 47.1451 9.2843C46.2017 7.17117 46.5643 4.4018 47.5175 3.33867ZM48.0753 14.0799H52.5903C55.8125 14.0799 58.4326 16.9952 58.4326 20.5784V21.4791C58.4326 21.8006 58.2242 22.073 57.9765 22.073H45.8818C45.132 20.4701 44.0328 19.092 42.6941 18.0567C43.6013 15.686 45.7325 14.0799 48.0753 14.0799ZM29.1983 12.0225C27.9711 9.27282 28.232 5.36813 29.7561 3.66844C30.8258 2.47734 32.0333 1.96875 33.797 1.96875C35.5524 1.96875 36.7566 2.47734 37.8263 3.66844C39.3505 5.36813 39.6113 9.27282 38.3842 12.0225C37.7345 13.4794 36.4105 15.2135 33.792 15.2135C31.1736 15.2152 29.848 13.4794 29.1983 12.0225ZM14.4327 3.33867C15.1759 2.51016 16.0191 2.15742 17.2529 2.15742C18.4801 2.15742 19.3217 2.51016 20.0649 3.33867C21.0198 4.4018 21.3807 7.17282 20.4373 9.28594C19.9845 10.3015 19.0625 11.5123 17.2496 11.5123C15.4351 11.5123 14.5131 10.3015 14.0602 9.28594C13.1169 7.17282 13.4795 4.4018 14.4327 3.33867ZM9.14821 20.5784C9.14821 16.9952 11.7699 14.0799 14.9905 14.0799H19.5055C21.8483 14.0799 23.9811 15.686 24.8867 18.0584C23.5463 19.0936 22.4488 20.4717 21.699 22.0746H9.6043C9.35656 22.0746 9.14821 21.8023 9.14821 21.4807V20.5784ZM37.7673 48.7906C38.1512 49.1745 38.1512 49.7979 37.7673 50.1835L34.7534 53.1973C34.5615 53.3892 34.3088 53.486 34.0578 53.486C33.8068 53.486 33.5541 53.3892 33.3622 53.1973L30.3484 50.1835C29.9645 49.7996 29.9645 49.1761 30.3484 48.7906C30.7323 48.4067 31.3557 48.4067 31.7413 48.7906L33.0751 50.1244V39.2159C33.0751 38.6728 33.5164 38.2315 34.0595 38.2315C34.6025 38.2315 35.0438 38.6728 35.0438 39.2159V50.1244L36.3777 48.7906C36.7599 48.4067 37.3834 48.4067 37.7673 48.7906ZM50.8824 43.1599C51.2663 43.5439 51.2663 44.1673 50.8824 44.5528L47.8686 47.5667C47.6849 47.7504 47.4338 47.8554 47.173 47.8554C46.9121 47.8554 46.6611 47.7521 46.4774 47.5667L43.4635 44.5528C43.0796 44.1689 43.0796 43.5455 43.4635 43.1599C43.8474 42.776 44.4709 42.776 44.8564 43.1599L46.1902 44.4938V38.4628C46.1902 37.9198 46.6316 37.4785 47.1746 37.4785C47.7177 37.4785 48.159 37.9198 48.159 38.4628V44.4938L49.4928 43.1599C49.8751 42.7744 50.4985 42.7744 50.8824 43.1599ZM24.6538 43.1599C25.0377 43.5439 25.0377 44.1673 24.6538 44.5528L21.6399 47.5667C21.4562 47.7504 21.2052 47.8554 20.9443 47.8554C20.6834 47.8554 20.4324 47.7521 20.2487 47.5667L17.2348 44.5528C16.8509 44.1689 16.8509 43.5455 17.2348 43.1599C17.6188 42.776 18.2422 42.776 18.6277 43.1599L19.9616 44.4938V38.4628C19.9616 37.9198 20.4029 37.4785 20.9459 37.4785C21.489 37.4785 21.9303 37.9198 21.9303 38.4628V44.4938L23.2641 43.1599C23.6464 42.7744 24.2682 42.7744 24.6538 43.1599ZM66.1156 42.4676V36.2185C66.1156 34.7419 64.9147 33.541 63.4381 33.541H4.6775C3.20094 33.541 2 34.7419 2 36.2185V42.4414C2 43.3552 2.43641 44.1689 3.1993 44.6742L29.131 61.845V74.9832C29.131 75.3359 29.3197 75.6607 29.6249 75.8363C29.7758 75.9232 29.9464 75.9675 30.1154 75.9675C30.2877 75.9675 30.4583 75.9232 30.6125 75.833L38.2709 71.3557C40.7237 75.9479 45.5668 79.0798 51.1269 79.0798C59.1577 79.0798 65.6924 72.5468 65.6924 64.5143C65.6924 58.2373 61.7024 52.8757 56.1242 50.8332L64.9705 44.6644C65.6973 44.1558 66.1156 43.3552 66.1156 42.4676ZM63.722 64.5127C63.722 71.4575 58.0717 77.1094 51.1253 77.1094C44.1788 77.1094 38.5285 71.4591 38.5285 64.5127C38.5285 57.5663 44.1788 51.916 51.1253 51.916C58.0717 51.916 63.722 57.5679 63.722 64.5127ZM64.1469 42.4676C64.1469 42.717 64.0485 42.9073 63.8434 43.0484L53.6354 50.1654C52.82 50.0227 51.98 49.9489 51.1253 49.9489C43.0944 49.9489 36.5598 56.4818 36.5598 64.5143C36.5598 66.2829 36.8764 67.9793 37.4572 69.5494L31.0981 73.2671V61.3167C31.0981 60.9739 30.9226 60.672 30.6568 60.4964L4.28703 43.032C4.07375 42.8909 3.97039 42.6973 3.97039 42.4414V36.2185C3.97039 35.828 4.28867 35.5097 4.67914 35.5097H63.4398C63.8302 35.5097 64.1485 35.828 64.1485 36.2185V42.4676H64.1469ZM51.1253 55.5877C51.6683 55.5877 52.1096 56.029 52.1096 56.5721V57.8058C53.6781 58.2209 54.8331 59.6039 54.8331 61.2429C54.8331 61.786 54.3917 62.2273 53.8487 62.2273C53.3056 62.2273 52.8643 61.786 52.8643 61.2429C52.8643 60.3635 52.085 59.6466 51.1253 59.6466C50.1671 59.6466 49.3862 60.3619 49.3862 61.2429C49.3862 62.1666 50.4723 62.6555 51.3828 62.9016C54.3852 63.7153 54.8331 65.4807 54.8331 66.4618C54.8331 68.0991 53.6781 69.4821 52.1096 69.8989V71.1326C52.1096 71.6757 51.6683 72.117 51.1253 72.117C50.5822 72.117 50.1409 71.6757 50.1409 71.1326V69.8989C48.5724 69.4838 47.4174 68.1007 47.4174 66.4618C47.4174 65.9187 47.8588 65.4774 48.4018 65.4774C48.9449 65.4774 49.3862 65.9187 49.3862 66.4618C49.3862 67.3411 50.1655 68.0581 51.1253 68.0581C52.085 68.0581 52.8643 67.3428 52.8643 66.4618C52.8643 65.5381 51.7782 65.0492 50.8677 64.8031C47.8653 63.9893 47.4174 62.224 47.4174 61.2446C47.4174 59.6072 48.5724 58.2242 50.1409 57.8074V56.5737C50.1409 56.029 50.5822 55.5877 51.1253 55.5877Z" fill="#3147FF"/>
</g>
<defs>
<clipPath id="clip0_1_760">
<rect width="68" height="79" fill="white"/>
</clipPath>
</defs>
</svg>
