<svg width="69" height="75" viewBox="0 0 69 75" fill="none" xmlns="http://www.w3.org/2000/svg">
<g clip-path="url(#clip0_1_743)">
<path d="M24.3913 34.6443C15.7372 34.6443 8.69648 41.6849 8.69648 50.3393C8.69648 58.9936 15.7372 66.0341 24.3913 66.0341C33.0455 66.0341 40.0862 58.9935 40.0862 50.3393C40.0862 41.6851 33.0455 34.6443 24.3913 34.6443ZM24.3913 63.8191C16.9585 63.8191 10.9113 57.772 10.9113 50.3391C10.9113 42.9063 16.9585 36.859 24.3913 36.859C31.8242 36.859 37.8714 42.9061 37.8714 50.3391C37.8714 57.7722 31.8242 63.8191 24.3913 63.8191ZM27.4462 39.8465C26.5057 38.9059 25.3059 38.4769 24.1544 38.6694C23.003 38.862 22.008 39.6579 21.4244 40.8533L18.4581 46.9306L14.0254 51.3632C13.803 51.5856 13.678 51.8875 13.678 52.2021C13.678 52.5168 13.803 52.8186 14.0254 53.0411L14.3451 53.3608C13.974 54.0163 13.7753 54.7592 13.7753 55.5328C13.7753 56.7134 14.235 57.8234 15.0699 58.6582C15.9316 59.52 17.0635 59.9508 18.1953 59.9508C18.9454 59.9508 19.6949 59.7603 20.3663 59.382L20.687 59.7027L20.6911 59.7043C20.8261 59.8383 20.9922 59.9414 21.1801 59.9987L27.7571 62.0028C27.871 62.0375 27.9875 62.0544 28.1029 62.0544C28.413 62.0544 28.7163 61.9327 28.9422 61.7068L31.2286 59.4205C31.6919 58.9571 31.6919 58.2058 31.2286 57.7426L28.1139 54.6279L32.8751 52.3039C34.0705 51.7204 34.8664 50.7253 35.059 49.5739C35.2515 48.4225 34.8225 47.2227 33.8821 46.2822L27.4462 39.8465ZM19.4374 49.3073L24.4211 54.291L21.5261 57.1858L16.5424 52.2021L19.4374 49.3073ZM18.1953 57.5799C17.6486 57.5799 17.1346 57.367 16.7479 56.9803C16.3614 56.5938 16.1485 56.0797 16.1485 55.5329C16.1485 55.4181 16.16 55.3051 16.1784 55.1941L18.5342 57.5499C18.4231 57.5684 18.3103 57.5799 18.1953 57.5799ZM27.7677 59.5254L23.763 58.305L26.0991 55.9689L28.7117 58.5815L27.7677 59.5254ZM32.7184 49.1827C32.653 49.5737 32.3392 49.925 31.8342 50.1713L26.3393 52.8533L20.875 47.389L23.557 41.8941C23.8033 41.3894 24.1544 41.0754 24.5456 41.0099C24.9362 40.9446 25.3708 41.1271 25.768 41.5244L32.2039 47.9602C32.6011 48.3573 32.7839 48.7916 32.7184 49.1827ZM63.2389 0.00585938H41.1118C37.7899 0.00585938 35.0873 2.70844 35.0873 6.03039V8.0209C30.1665 8.46814 25.466 10.1559 21.3836 12.9405C20.4203 12.1671 19.2323 11.7463 17.9792 11.7463C16.5233 11.7463 15.1545 12.3131 14.1251 13.3427C13.0953 14.3723 12.5283 15.7411 12.5283 17.1972C12.5283 18.4493 12.9487 19.6363 13.7209 20.599C11.6669 23.6023 10.2182 26.9127 9.4065 30.4565L4.09862 35.7642C3.8909 35.9719 3.77431 36.2535 3.77431 36.5473C3.77431 36.8411 3.8909 37.1227 4.09862 37.3304L6.19814 39.4298C5.10701 41.226 4.29638 43.1564 3.78016 45.1888H0.84375C0.232137 45.1888 -0.263672 45.6846 -0.263672 46.2963V54.3822C-0.263672 54.9938 0.232137 55.4896 0.84375 55.4896H3.72605C4.22582 57.5489 5.02712 59.507 6.11635 61.3303L4.09878 63.3479C3.89106 63.5556 3.77431 63.8372 3.77431 64.131C3.77431 64.4248 3.8909 64.7063 4.09862 64.9141L9.8164 70.6317C10.2489 71.0642 10.9502 71.0642 11.3825 70.6317L13.3727 68.6417C15.2021 69.7533 17.1692 70.5733 19.2409 71.0878V73.8867C19.2409 74.4983 19.7367 74.9941 20.3483 74.9941H28.4342C29.0458 74.9941 29.5416 74.4983 29.5416 73.8867V71.0878C31.613 70.5735 33.5804 69.7533 35.41 68.6417L37.3999 70.6317C37.6076 70.8394 37.8894 70.956 38.183 70.956C38.4766 70.956 38.7584 70.8394 38.9661 70.6317L44.274 65.324C47.8187 64.5119 51.1299 63.0629 54.1335 61.0084C55.0935 61.7726 56.2743 62.1885 57.5197 62.1885C58.9757 62.1885 60.3444 61.6215 61.374 60.592C63.3504 58.6154 63.4878 55.4867 61.788 53.3489C65.0888 48.515 66.8298 42.8765 66.8298 36.9811C66.8298 33.0453 66.0633 29.2505 64.5507 25.6773C67.2437 25.0766 69.2635 22.6697 69.2635 19.7983V6.03039C69.2635 2.70844 66.5609 0.00585938 63.2389 0.00585938ZM63.2389 23.608H41.1118C40.414 23.608 39.76 23.4185 39.1969 23.0898L48.6706 13.2956L51.4621 15.6465C51.6683 15.82 51.9219 15.9069 52.1754 15.9069C52.4321 15.9069 52.6885 15.8179 52.8959 15.6406L55.6594 13.274L65.1541 23.0899C64.5908 23.4185 63.9368 23.608 63.2389 23.608ZM46.9725 11.8654L37.6869 21.4652C37.4407 20.9613 37.3021 20.3957 37.3021 19.7983V6.03039C37.3021 5.34442 37.4853 4.7007 37.804 4.14414L46.9725 11.8654ZM57.3446 11.8304L66.4701 4.01536C66.8361 4.60039 67.0488 5.29079 67.0488 6.03039V19.7983C67.0488 20.3957 66.9102 20.9613 66.664 21.4652L57.3446 11.8304ZM63.2389 2.2207C63.7869 2.2207 64.3079 2.33793 64.7792 2.54723L52.1693 13.3465L39.4263 2.6151C39.935 2.36309 40.507 2.2207 41.1118 2.2207H63.2389ZM15.6911 14.9089C16.3023 14.2978 17.1148 13.9611 17.9792 13.9611C18.8436 13.9611 19.6563 14.2976 20.2675 14.9089C21.5293 16.1707 21.5293 18.2236 20.2676 19.4853C19.6563 20.0965 18.8436 20.433 17.9792 20.433C17.1148 20.433 16.3023 20.0965 15.691 19.4853C15.0798 18.8741 14.7432 18.0614 14.7432 17.1972C14.7432 16.3329 15.0798 15.5201 15.6911 14.9089ZM38.183 68.2825L36.3479 66.4472C35.9743 66.0739 35.3892 66.016 34.9501 66.3089C32.8927 67.6815 30.6261 68.6265 28.2132 69.1175C27.6973 69.2226 27.3266 69.6763 27.3266 70.2026V72.7793H21.4556V70.2028C21.4556 69.6763 21.0849 69.2227 20.569 69.1177C18.1559 68.6265 15.8893 67.6815 13.8322 66.3091C13.3934 66.0161 12.8079 66.0737 12.4347 66.4474L10.5992 68.2827L6.44762 64.1311L8.3054 62.2733C8.67655 61.9024 8.73635 61.3218 8.44842 60.8829C7.101 58.8288 6.1771 56.5693 5.70201 54.1675C5.5995 53.6487 5.1445 53.2749 4.61563 53.2749H1.95117V47.4038H4.66009C5.18421 47.4038 5.63652 47.0365 5.74409 46.5234C6.24164 44.1475 7.17915 41.9156 8.53068 39.8897C8.82383 39.4505 8.76577 38.8653 8.39257 38.4921L6.44794 36.5475L10.5995 32.3959L12.5666 34.363C12.9379 34.7341 13.5185 34.7938 13.9571 34.5058C15.9825 33.1774 18.2072 32.26 20.5693 31.7792C21.0852 31.6742 21.4559 31.2204 21.4559 30.6941V27.8991H27.327V30.6941C27.327 31.2206 27.6976 31.6742 28.2135 31.7792C30.5758 32.2602 32.8005 33.1776 34.8259 34.5058C35.2642 34.7936 35.8451 34.7341 36.2164 34.363L38.1833 32.3959L42.3349 36.5475L40.3903 38.4921C40.0171 38.8655 39.959 39.4505 40.2522 39.8897C41.6038 41.9159 42.5415 44.1479 43.0387 46.5233C43.1462 47.0363 43.5985 47.4037 44.1228 47.4037H46.8317V53.2747H44.1669C43.638 53.2747 43.183 53.6486 43.0805 54.1673C42.6054 56.5693 41.6814 58.8286 40.3341 60.8827C40.0463 61.3216 40.1061 61.9022 40.4771 62.2732L42.3349 64.131L38.183 68.2825ZM59.808 59.0257C59.1968 59.637 58.3841 59.9735 57.5199 59.9735C56.6554 59.9735 55.8428 59.637 55.2315 59.0256C54.6203 58.4145 54.2837 57.6018 54.2837 56.7375C54.2837 55.8732 54.6203 55.0605 55.2316 54.4492C55.8428 53.8381 56.6554 53.5015 57.5199 53.5015C58.3841 53.5015 59.1968 53.8381 59.808 54.4492C61.0696 55.7111 61.0696 57.7639 59.808 59.0257ZM60.0806 51.9227C59.3016 51.5071 58.4276 51.2866 57.5199 51.2866C56.0638 51.2866 54.695 51.8536 53.6656 52.883C52.6358 53.9126 52.0688 55.2814 52.0688 56.7375C52.0688 57.6459 52.2897 58.5204 52.7057 59.2998C50.1446 61.022 47.3458 62.2721 44.3613 63.0254L42.6662 61.3303C43.7556 59.5068 44.5567 57.5488 45.0565 55.4896H47.9388C48.5504 55.4896 49.0462 54.9938 49.0462 54.3822V46.2963C49.0462 45.6846 48.5504 45.1888 47.9388 45.1888H45.0024C44.4861 43.1567 43.6757 41.2262 42.5844 39.4298L44.6839 37.3304C44.8916 37.1227 45.0082 36.8411 45.0082 36.5473C45.0082 36.2535 44.8916 35.9719 44.6839 35.7642L38.9661 30.0466C38.7584 29.8389 38.4766 29.7223 38.183 29.7223C37.8894 29.7223 37.6076 29.839 37.3999 30.0466L35.2733 32.1733C33.4817 31.1029 31.5605 30.3105 29.5418 29.809V26.7915C29.5418 26.1799 29.046 25.6841 28.4344 25.6841H20.3485C19.7368 25.6841 19.241 26.1799 19.241 26.7915V29.809C17.2224 30.3105 15.3013 31.1029 13.5095 32.1733L11.7052 30.369C12.4592 27.3826 13.7104 24.5821 15.4344 22.0197C16.2094 22.4299 17.0776 22.6479 17.9794 22.6479C19.4353 22.6479 20.8041 22.081 21.8338 21.0515C23.562 19.3231 23.8848 16.7135 22.8022 14.6559C26.4768 12.1902 30.6839 10.6822 35.0875 10.2486V19.7983C35.0875 23.1203 37.79 25.8229 41.112 25.8229H62.1949C63.8007 29.3301 64.6151 33.0801 64.6151 36.9809C64.615 42.3549 63.0507 47.498 60.0806 51.9227Z" fill="#3147FF"/>
</g>
<defs>
<clipPath id="clip0_1_743">
<rect width="69" height="75" fill="white"/>
</clipPath>
</defs>
</svg>
