<svg width="30" height="52" viewBox="0 0 30 52" fill="none" xmlns="http://www.w3.org/2000/svg">
<path d="M18.9269 4.08176H20.6271V5.76778H18.9269V4.08176Z" fill="#217C6A"/>
<path d="M5.32542 26.8431H8.7258V28.5291H5.32542V26.8431Z" fill="#217C6A"/>
<path d="M24.0275 0.709717H5.32542C3.97308 0.711056 2.67652 1.24439 1.72027 2.19267C0.764017 3.14095 0.226204 4.42671 0.224854 5.76778V46.2323C0.226204 47.5734 0.764017 48.8591 1.72027 49.8074C2.67652 50.7557 3.97308 51.289 5.32542 51.2904H24.0275C25.3799 51.289 26.6764 50.7557 27.6327 49.8074C28.5889 48.8591 29.1267 47.5734 29.1281 46.2323V5.76778C29.1267 4.42671 28.5889 3.14095 27.6327 2.19267C26.6764 1.24439 25.3799 0.711056 24.0275 0.709717ZM24.0275 49.6043H5.32542C4.42359 49.6043 3.55869 49.2491 2.92099 48.6167C2.2833 47.9843 1.92504 47.1266 1.92504 46.2323V9.13982H25.7277V7.4538H1.92504V5.76778C1.92504 4.87346 2.2833 4.01577 2.92099 3.38339C3.55869 2.75101 4.42359 2.39574 5.32542 2.39574H24.0275C24.9293 2.39574 25.7942 2.75101 26.4319 3.38339C27.0696 4.01577 27.4279 4.87346 27.4279 5.76778V41.1742H3.62523V42.8603H27.4279V46.2323C27.4279 47.1266 27.0696 47.9843 26.4319 48.6167C25.7942 49.2491 24.9293 49.6043 24.0275 49.6043Z" fill="#217C6A"/>
<path d="M14.6765 43.7033C14.1721 43.7033 13.679 43.8516 13.2596 44.1295C12.8402 44.4074 12.5133 44.8024 12.3203 45.2645C12.1273 45.7266 12.0768 46.2351 12.1752 46.7257C12.2736 47.2163 12.5165 47.6669 12.8731 48.0206C13.2298 48.3743 13.6842 48.6152 14.1789 48.7127C14.6736 48.8103 15.1864 48.7602 15.6524 48.5688C16.1184 48.3774 16.5167 48.0533 16.7969 47.6374C17.0772 47.2215 17.2268 46.7325 17.2268 46.2323C17.2268 45.5616 16.9581 44.9183 16.4798 44.444C16.0015 43.9697 15.3528 43.7033 14.6765 43.7033ZM14.6765 47.0753C14.5083 47.0753 14.344 47.0259 14.2042 46.9332C14.0644 46.8406 13.9554 46.7089 13.8911 46.5549C13.8267 46.4009 13.8099 46.2314 13.8427 46.0678C13.8755 45.9043 13.9565 45.7541 14.0754 45.6362C14.1942 45.5183 14.3457 45.438 14.5106 45.4055C14.6755 45.373 14.8464 45.3897 15.0018 45.4535C15.1571 45.5173 15.2899 45.6253 15.3833 45.764C15.4767 45.9026 15.5266 46.0656 15.5266 46.2323C15.5266 46.4559 15.437 46.6703 15.2776 46.8284C15.1182 46.9865 14.9019 47.0753 14.6765 47.0753Z" fill="#217C6A"/>
<path d="M12.1262 4.08176H17.2268V5.76778H12.1262V4.08176Z" fill="#217C6A"/>
<path d="M11.0273 21.189L8.22794 18.4129L11.0273 15.6369L9.82527 14.4449L5.82388 18.4129L9.82527 22.381L11.0273 21.189Z" fill="#217C6A"/>
<path d="M19.5278 22.381L23.5292 18.4129L19.5278 14.4449L18.3257 15.6369L21.1251 18.4129L18.3257 21.189L19.5278 22.381Z" fill="#217C6A"/>
<path d="M11.4453 21.9604L16.0477 14.0554L17.52 14.8984L12.9176 22.8034L11.4453 21.9604Z" fill="#217C6A"/>
<path d="M10.426 26.8431H24.0275V28.5291H10.426V26.8431Z" fill="#217C6A"/>
<path d="M5.32542 30.2151H24.0275V31.9011H5.32542V30.2151Z" fill="#217C6A"/>
<path d="M5.32542 33.5871H24.0275V35.2732H5.32542V33.5871Z" fill="#217C6A"/>
</svg>
