<svg width="48" height="48" viewBox="0 0 48 48" fill="none" xmlns="http://www.w3.org/2000/svg">
<g clip-path="url(#clip0_1_2240)">
<path d="M40.4581 20.2128C36.5069 20.2128 33.2922 23.4274 33.2922 27.3787C33.2922 31.33 36.5068 34.5447 40.4581 34.5447C44.4094 34.5447 47.6267 31.3301 47.6267 27.3787C47.6267 23.4273 44.4109 20.2128 40.4581 20.2128ZM40.4581 33.4205C37.1267 33.4205 34.4164 30.7101 34.4164 27.3787C34.4164 24.0473 37.1267 21.3369 40.4581 21.3369C43.7895 21.3369 46.5026 24.0472 46.5026 27.3787C46.5026 30.7102 43.7911 33.4205 40.4581 33.4205ZM43.4232 26.3817L39.4081 24.0634C39.0466 23.8516 38.6146 23.8514 38.2556 24.0617C37.895 24.27 37.6797 24.6427 37.6797 25.0587V29.6986C37.6797 30.1147 37.8951 30.4874 38.2526 30.6938C38.4339 30.8 38.6328 30.853 38.8313 30.853C39.0297 30.853 39.2261 30.8004 39.4051 30.6956L43.4231 28.3756C43.7838 28.1674 43.9991 27.7947 43.9991 27.3786C43.9991 26.9625 43.7839 26.5899 43.4232 26.3817ZM42.8736 27.3929C42.8736 27.3929 42.8705 27.3968 42.8611 27.4021L38.84 29.7239C38.8342 29.7272 38.8304 29.7284 38.8313 29.7285C38.8303 29.7284 38.8267 29.7272 38.8177 29.7221C38.8085 29.7167 38.8056 29.7131 38.8055 29.7131C38.8055 29.7128 38.8037 29.7087 38.8037 29.6986V25.0587C38.8037 25.0486 38.8054 25.0445 38.8053 25.0445C38.8055 25.0442 38.8085 25.0405 38.8207 25.0334C38.8265 25.0301 38.8303 25.0289 38.8295 25.0288C38.8304 25.0289 38.8342 25.0301 38.843 25.0352L42.861 27.3553C42.8705 27.3606 42.8735 27.3636 42.8734 27.3633C42.8738 27.3645 42.8751 27.3696 42.8751 27.3788C42.8751 27.3888 42.8735 27.3929 42.8736 27.3929ZM14.1158 10.5428C15.2537 12.9983 17.7404 14.7065 20.6199 14.7065C21.6522 14.7065 22.6333 14.4854 23.5208 14.0908C23.5379 14.0844 23.5543 14.0761 23.5709 14.0681C25.4597 13.2107 26.9125 11.5583 27.5001 9.53957C27.5042 9.52466 27.5098 9.51022 27.5127 9.49513C27.6893 8.87338 27.7859 8.21826 27.7859 7.54063C27.7859 3.58935 24.5713 0.374756 20.6199 0.374756C16.6686 0.374756 13.4541 3.58935 13.4541 7.54063C13.4541 8.58782 13.6817 9.58222 14.0872 10.4798C14.0949 10.5014 14.1052 10.5221 14.1158 10.5428ZM15.2987 10.3991L17.3325 8.36723L18.8991 9.93379L22.3063 13.341C21.7706 13.497 21.2051 13.5824 20.6198 13.5824C18.3218 13.5824 16.3199 12.2926 15.2987 10.3991ZM23.4378 12.8828L20.0914 9.53638L23.2028 6.42491L26.3191 9.54341C25.8113 10.9843 24.7722 12.176 23.4378 12.8828ZM20.6199 1.49882C23.9514 1.49882 26.6618 4.20913 26.6618 7.54063C26.6618 7.78157 26.646 8.01885 26.6184 8.25257L23.6006 5.2326C23.4952 5.12713 23.3523 5.06788 23.2031 5.06788C23.0541 5.06788 22.9111 5.12704 22.8057 5.23251L19.2967 8.74157L17.7302 7.1751C17.5106 6.95563 17.155 6.95554 16.9355 7.17491L14.8332 9.2751C14.6681 8.72535 14.5782 8.14335 14.5782 7.54054C14.5782 4.20904 17.2885 1.49882 20.6199 1.49882ZM19.6074 6.31419C20.6105 6.31419 21.4265 5.49819 21.4265 4.49516C21.4265 3.49213 20.6105 2.67876 19.6074 2.67876C18.6044 2.67876 17.791 3.49354 17.791 4.49516C17.791 5.49679 18.6058 6.31419 19.6074 6.31419ZM19.6074 3.80291C19.9907 3.80291 20.3024 4.11341 20.3024 4.49516C20.3024 4.87691 19.9907 5.19013 19.6074 5.19013C19.2242 5.19013 18.9151 4.87841 18.9151 4.49516C18.9151 4.11191 19.2256 3.80291 19.6074 3.80291ZM33.4686 15.2189L37.5947 14.11C38.4981 14.5061 39.4601 14.7066 40.4581 14.7066C44.4109 14.7066 47.6267 11.492 47.6267 7.54063C47.6267 3.58926 44.4109 0.374756 40.4581 0.374756C36.5053 0.374756 33.2922 3.58935 33.2922 7.54063C33.2922 8.54404 33.4953 9.51173 33.8962 10.4201L32.7803 14.5287C32.7276 14.7228 32.7826 14.9304 32.9247 15.0729C33.0316 15.18 33.1754 15.2381 33.3227 15.2381C33.3713 15.2381 33.4204 15.2319 33.4686 15.2189ZM34.9994 10.1291C34.6125 9.31757 34.4163 8.44672 34.4163 7.54072C34.4163 4.20922 37.1266 1.49891 40.458 1.49891C43.7894 1.49891 46.5025 4.20922 46.5025 7.54072C46.5025 10.8722 43.791 13.5825 40.458 13.5825C39.5571 13.5825 38.6911 13.3889 37.8843 13.0067C37.7638 12.9495 37.6268 12.9374 37.4979 12.9719L34.1214 13.8793L35.0344 10.5181C35.0695 10.3884 35.0573 10.2504 34.9994 10.1291ZM37.4458 5.06929C37.4458 4.75888 37.6974 4.50726 38.0078 4.50726H42.911C43.2215 4.50726 43.473 4.75888 43.473 5.06929C43.473 5.37969 43.2214 5.63132 42.911 5.63132H38.0078C37.6973 5.63132 37.4458 5.37969 37.4458 5.06929ZM37.4458 7.54072C37.4458 7.23032 37.6974 6.97869 38.0078 6.97869H42.911C43.2215 6.97869 43.473 7.23032 43.473 7.54072C43.473 7.85113 43.2214 8.10276 42.911 8.10276H38.0078C37.6973 8.10276 37.4458 7.85113 37.4458 7.54072ZM37.4458 10.0122C37.4458 9.70176 37.6974 9.45013 38.0078 9.45013H42.911C43.2215 9.45013 43.473 9.70176 43.473 10.0122C43.473 10.3226 43.2214 10.5742 42.911 10.5742H38.0078C37.6973 10.5742 37.4458 10.3226 37.4458 10.0122ZM23.5988 30.5849C25.3774 29.4703 25.9716 27.1304 24.9148 25.2985C23.8564 23.4668 21.5327 22.8115 19.6799 23.796L16.5061 18.2981C15.8666 17.1945 14.4463 16.8137 13.339 17.4502C12.3395 18.0276 11.9326 19.2452 12.3353 20.2922C12.1215 20.6867 11.9154 21.0738 11.7153 21.4499C10.0989 24.4879 8.7017 27.113 5.10263 29.9862L2.29735 31.6064C0.462386 32.6657 -0.170146 35.0222 0.88726 36.8594C0.887073 36.8593 0.887448 36.8596 0.88726 36.8594L2.88882 40.3254C3.60029 41.5578 4.89695 42.2479 6.22895 42.2479C6.26495 42.2479 6.30095 42.2455 6.33695 42.2444L8.62632 46.209C9.15057 47.117 10.1048 47.6252 11.0845 47.6252C11.5646 47.6252 12.051 47.5032 12.4959 47.2463L14.4623 46.1089C14.7308 45.9536 14.8228 45.6101 14.6677 45.3414L11.5249 39.8975C15.509 38.4416 18.3685 38.5408 21.6532 38.6562C22.0782 38.6711 22.5159 38.6863 22.9636 38.6986C23.4121 39.2525 24.0826 39.558 24.7688 39.558C25.1615 39.558 25.5593 39.4582 25.9228 39.2482C26.4581 38.9406 26.8416 38.4406 27.0025 37.8404C27.1634 37.2403 27.0816 36.6158 26.7727 36.0827L23.5988 30.5849ZM23.9413 25.8605C24.6893 27.1571 24.2783 28.811 23.037 29.6115L20.2419 24.7696C21.5584 24.0944 23.1931 24.5656 23.9413 25.8605ZM3.86232 39.7633L1.86151 36.2984C1.1131 34.9977 1.56067 33.3297 2.85957 32.5799L5.21617 31.2187L9.93985 39.4003L7.58382 40.761C7.27107 40.941 6.93704 41.0513 6.59963 41.0979C6.58116 41.0995 6.5627 41.1019 6.54432 41.1054C5.49498 41.2285 4.42248 40.7334 3.86232 39.7633ZM11.9334 46.2731C11.1178 46.744 10.071 46.4628 9.59973 45.6469L7.50901 42.0263C7.72576 41.9494 7.93885 41.8536 8.1452 41.7349L10.5019 40.3738L13.4134 45.417L11.9334 46.2731ZM10.9543 38.9092L6.14841 30.5852C9.67454 27.6779 11.0844 25.0289 12.7076 21.9778C12.7972 21.8095 12.8883 21.6385 12.9803 21.4663L22.2675 37.5524C22.0739 37.546 21.8816 37.5393 21.6925 37.5327C18.2371 37.4111 15.2367 37.3063 10.9543 38.9092ZM25.9165 37.5493C25.8336 37.8586 25.6369 38.1159 25.3614 38.2741C24.7913 38.6036 24.0592 38.4071 23.7297 37.8366L13.4643 20.0563C13.136 19.4848 13.3321 18.7523 13.9002 18.424C14.471 18.0959 15.2036 18.2924 15.5331 18.8608L19.0002 24.867C19.0008 24.868 19.0013 24.869 19.0019 24.87L25.7993 36.6455C25.9578 36.919 25.9995 37.24 25.9165 37.5493ZM28.4508 24.0282C28.3623 24.0793 28.2656 24.1035 28.1704 24.1035C27.9761 24.1035 27.7871 24.0028 27.6831 23.8224C27.5279 23.5535 27.6201 23.2098 27.8888 23.0547L29.3346 22.2202C29.6036 22.065 29.9472 22.1572 30.1023 22.426C30.2574 22.6949 30.1653 23.0385 29.8965 23.1937L28.4508 24.0282ZM24.1691 17.7711C24.469 17.8512 24.6473 18.1592 24.5672 18.4591L24.1366 20.0722C24.0696 20.3235 23.8423 20.4894 23.594 20.4894C23.546 20.4894 23.4972 20.4832 23.4487 20.4703C23.1488 20.3902 22.9704 20.0821 23.0506 19.7822L23.4812 18.1692C23.5613 17.8693 23.8696 17.6911 24.1691 17.7711ZM31.0059 29.9139C30.9384 30.1648 30.7115 30.33 30.4636 30.33C30.4152 30.33 30.3661 30.3238 30.3172 30.3106L28.7067 29.8774C28.407 29.7968 28.2293 29.4884 28.3101 29.1886C28.3907 28.8888 28.6989 28.7112 28.9989 28.7919L30.6093 29.2251C30.909 29.3057 31.0867 29.6141 31.0059 29.9139Z" fill="#217C6A"/>
</g>
<defs>
<clipPath id="clip0_1_2240">
<rect width="48" height="48" fill="white"/>
</clipPath>
</defs>
</svg>
