<svg width="46" height="46" viewBox="0 0 46 46" fill="none" xmlns="http://www.w3.org/2000/svg">
<g clip-path="url(#clip0_1_2218)">
<path d="M23.1218 34.4208C23.0201 34.4203 22.9197 34.3983 22.8272 34.3561C5.0309 26.0689 8.0209 6.31052 8.04965 6.10927C8.0712 5.98968 8.12272 5.87751 8.1994 5.78323C8.27607 5.68896 8.3754 5.61567 8.48809 5.5702L22.8631 0.0430197C23.0253 -0.0175951 23.204 -0.0175951 23.3662 0.0430197L37.4609 5.57739C37.5705 5.62252 37.6672 5.69404 37.7424 5.78559C37.8176 5.87713 37.8691 5.98585 37.8922 6.10208C37.9281 6.30333 41.1984 26.0689 23.4165 34.3561C23.324 34.3983 23.2235 34.4203 23.1218 34.4208ZM9.37934 6.72739C9.07746 9.45145 7.94184 25.6808 23.1218 32.9546C38.4815 25.5802 36.9578 9.48739 36.5768 6.72739L23.1218 1.43739L9.37934 6.72739Z" fill="#217C6A"/>
<path d="M28.6417 25.4725H17.3574C17.0333 25.4725 16.7225 25.3437 16.4934 25.1146C16.2642 24.8854 16.1355 24.5747 16.1355 24.2506V15.8771C16.1355 15.5531 16.2642 15.2423 16.4934 15.0132C16.7225 14.784 17.0333 14.6553 17.3574 14.6553H28.6417C28.8022 14.6553 28.9611 14.6869 29.1093 14.7483C29.2576 14.8097 29.3923 14.8997 29.5057 15.0132C29.6192 15.1266 29.7092 15.2613 29.7706 15.4096C29.832 15.5578 29.8636 15.7167 29.8636 15.8771V24.2506C29.8636 24.411 29.832 24.5699 29.7706 24.7182C29.7092 24.8664 29.6192 25.0011 29.5057 25.1146C29.3923 25.228 29.2576 25.3181 29.1093 25.3795C28.9611 25.4409 28.8022 25.4725 28.6417 25.4725ZM17.5299 24.0781H28.4693V16.0496H17.5299V24.0781Z" fill="#217C6A"/>
<path d="M27.0681 16.0496C26.8775 16.0496 26.6946 15.9739 26.5599 15.8391C26.4251 15.7043 26.3493 15.5215 26.3493 15.3309V10.1487C26.3493 9.76743 26.1979 9.4018 25.9283 9.13222C25.6587 8.86263 25.2931 8.71118 24.9118 8.71118H21.0809C20.6996 8.71118 20.334 8.86263 20.0644 9.13222C19.7948 9.4018 19.6434 9.76743 19.6434 10.1487V15.3524C19.6044 15.5078 19.5147 15.6458 19.3884 15.7444C19.2621 15.8429 19.1064 15.8965 18.9462 15.8965C18.786 15.8965 18.6304 15.8429 18.5041 15.7444C18.3777 15.6458 18.288 15.5078 18.249 15.3524V10.1487C18.249 9.38618 18.5519 8.65492 19.0911 8.11575C19.6303 7.57658 20.3615 7.27368 21.124 7.27368H24.9621C25.7246 7.27368 26.4559 7.57658 26.9951 8.11575C27.5342 8.65492 27.8371 9.38618 27.8371 10.1487V15.3524C27.8345 15.4494 27.8122 15.5448 27.7717 15.6329C27.7312 15.721 27.6733 15.8 27.6014 15.8652C27.5296 15.9303 27.4453 15.9802 27.3536 16.0119C27.262 16.0436 27.1648 16.0564 27.0681 16.0496Z" fill="#217C6A"/>
<path d="M43.2255 38.0938C43.0348 38.0938 42.852 38.0181 42.7172 37.8833C42.5824 37.7485 42.5067 37.5657 42.5067 37.375V14.1882C42.5077 13.9497 42.4615 13.7134 42.3709 13.4928C42.2803 13.2722 42.147 13.0717 41.9788 12.9028C41.8105 12.7338 41.6105 12.5997 41.3903 12.5083C41.17 12.4168 40.9339 12.3697 40.6955 12.3697H37.4395C37.2841 12.3308 37.1462 12.241 37.0476 12.1147C36.949 11.9884 36.8955 11.8327 36.8955 11.6725C36.8955 11.5123 36.949 11.3567 37.0476 11.2304C37.1462 11.1041 37.2841 11.0143 37.4395 10.9753H40.717C41.5679 10.9772 42.3832 11.3166 42.9842 11.9189C43.5852 12.5212 43.9227 13.3373 43.9227 14.1882V37.411C43.9137 37.5916 43.8369 37.7623 43.7077 37.8888C43.5785 38.0154 43.4063 38.0886 43.2255 38.0938Z" fill="#217C6A"/>
<path d="M2.77441 38.0938C2.58379 38.0938 2.40097 38.0181 2.26618 37.8833C2.13139 37.7485 2.05566 37.5657 2.05566 37.375V14.1882C2.05566 13.3373 2.39317 12.5212 2.99413 11.9189C3.5951 11.3166 4.41044 10.9772 5.26129 10.9753H8.62504C8.78045 11.0143 8.9184 11.1041 9.01696 11.2304C9.11552 11.3567 9.16906 11.5123 9.16906 11.6725C9.16906 11.8327 9.11552 11.9884 9.01696 12.1147C8.9184 12.241 8.78045 12.3308 8.62504 12.3697H5.28285C5.04439 12.3697 4.80827 12.4168 4.58805 12.5083C4.36783 12.5997 4.16784 12.7338 3.99956 12.9028C3.83127 13.0717 3.69801 13.2722 3.60741 13.4928C3.51681 13.7134 3.47066 13.9497 3.4716 14.1882V37.411C3.46263 37.5916 3.38588 37.7623 3.25665 37.8888C3.12742 38.0154 2.95522 38.0886 2.77441 38.0938Z" fill="#217C6A"/>
<path d="M42.4062 45.9999H3.59375C2.64063 45.9999 1.72654 45.6213 1.05259 44.9474C0.378626 44.2734 0 43.3593 0 42.4062L0 37.4109C0 37.2203 0.0757252 37.0374 0.210517 36.9027C0.345309 36.7679 0.528126 36.6921 0.71875 36.6921H45.2812C45.4719 36.6921 45.6547 36.7679 45.7895 36.9027C45.9243 37.0374 46 37.2203 46 37.4109V42.4062C46 43.3593 45.6214 44.2734 44.9474 44.9474C44.2735 45.6213 43.3594 45.9999 42.4062 45.9999ZM1.4375 38.0937V42.4062C1.44104 42.981 1.66802 43.5319 2.07043 43.9424C2.47284 44.3528 3.01913 44.5907 3.59375 44.6056H42.4062C42.9884 44.6018 43.5456 44.3689 43.9573 43.9572C44.3689 43.5456 44.6019 42.9883 44.6056 42.4062V38.0937H1.4375Z" fill="#217C6A"/>
<path d="M28.6982 42.2841H17.2988C16.6799 42.2822 16.0868 42.0355 15.6492 41.5978C15.2115 41.1601 14.9648 40.5671 14.9629 39.9481V37.411C15.0018 37.2555 15.0916 37.1176 15.2179 37.019C15.3442 36.9205 15.4999 36.8669 15.6601 36.8669C15.8203 36.8669 15.9759 36.9205 16.1022 37.019C16.2286 37.1176 16.3183 37.2555 16.3573 37.411V39.9481C16.3573 40.1979 16.4565 40.4374 16.633 40.6139C16.8096 40.7905 17.0491 40.8897 17.2988 40.8897H28.6982C28.9479 40.8897 29.1874 40.7905 29.364 40.6139C29.5406 40.4374 29.6398 40.1979 29.6398 39.9481V37.411C29.6787 37.2555 29.7685 37.1176 29.8948 37.019C30.0211 36.9205 30.1767 36.8669 30.337 36.8669C30.4972 36.8669 30.6528 36.9205 30.7791 37.019C30.9054 37.1176 30.9952 37.2555 31.0341 37.411V39.9481C31.0322 40.5671 30.7855 41.1601 30.3479 41.5978C29.9102 42.0355 29.3172 42.2822 28.6982 42.2841Z" fill="#217C6A"/>
<path d="M22.9985 21.0379C22.7523 21.0379 22.5116 20.9648 22.307 20.8278C22.1024 20.6909 21.943 20.4963 21.8491 20.2686C21.7552 20.041 21.731 19.7906 21.7796 19.5492C21.8281 19.3078 21.9473 19.0863 22.1219 18.9127C22.2965 18.7391 22.5187 18.6212 22.7604 18.574C23.0021 18.5269 23.2523 18.5525 23.4794 18.6478C23.7065 18.743 23.9002 18.9035 24.0359 19.1089C24.1717 19.3143 24.2434 19.5554 24.242 19.8016C24.2401 20.1302 24.1082 20.4446 23.8753 20.6763C23.6423 20.9079 23.3271 21.0379 22.9985 21.0379ZM22.9985 19.6435C22.9781 19.6435 22.9579 19.6476 22.9391 19.6557C22.9203 19.6637 22.9033 19.6755 22.8892 19.6902C22.8751 19.705 22.8641 19.7225 22.857 19.7417C22.8498 19.7608 22.8466 19.7812 22.8476 19.8016C22.8476 19.967 23.1495 19.967 23.1495 19.8016C23.1505 19.7812 23.1473 19.7608 23.1401 19.7417C23.133 19.7225 23.122 19.705 23.1079 19.6902C23.0938 19.6755 23.0768 19.6637 23.058 19.6557C23.0392 19.6476 23.019 19.6435 22.9985 19.6435Z" fill="#217C6A"/>
<path d="M3.80391 43.0531C3.49117 43.0531 3.18545 42.9604 2.92541 42.7866C2.66538 42.6129 2.4627 42.3659 2.34302 42.077C2.22334 41.7881 2.19203 41.4701 2.25304 41.1634C2.31405 40.8567 2.46465 40.5749 2.68579 40.3538C2.90694 40.1326 3.18869 39.982 3.49542 39.921C3.80215 39.86 4.12009 39.8913 4.40903 40.011C4.69796 40.1307 4.94492 40.3333 5.11867 40.5934C5.29242 40.8534 5.38516 41.1591 5.38516 41.4719C5.38327 41.8907 5.21606 42.2918 4.91993 42.5879C4.6238 42.884 4.2227 43.0512 3.80391 43.0531ZM3.80391 41.285C3.77762 41.2819 3.75098 41.2845 3.72576 41.2925C3.70053 41.3005 3.6773 41.3138 3.65759 41.3315C3.63789 41.3492 3.62216 41.3708 3.61145 41.395C3.60074 41.4192 3.59529 41.4454 3.59547 41.4719C3.59547 41.6803 3.96922 41.6803 3.96922 41.4719C3.97123 41.4254 3.95512 41.3799 3.92428 41.3451C3.89345 41.3102 3.8503 41.2887 3.80391 41.285Z" fill="#217C6A"/>
<path d="M7.6418 43.0531C7.32906 43.0531 7.02334 42.9604 6.7633 42.7866C6.50327 42.6129 6.30059 42.3659 6.18091 42.077C6.06123 41.7881 6.02992 41.4701 6.09093 41.1634C6.15194 40.8567 6.30254 40.5749 6.52368 40.3538C6.74483 40.1326 7.02658 39.982 7.33331 39.921C7.64004 39.86 7.95798 39.8913 8.24692 40.011C8.53585 40.1307 8.78281 40.3333 8.95656 40.5934C9.13031 40.8534 9.22305 41.1591 9.22305 41.4719C9.22305 41.6795 9.18215 41.8851 9.10268 42.077C9.02322 42.2688 8.90674 42.4432 8.75991 42.59C8.61308 42.7368 8.43876 42.8533 8.24692 42.9328C8.05507 43.0122 7.84945 43.0531 7.6418 43.0531ZM7.6418 41.285C7.61699 41.284 7.59223 41.2881 7.5691 41.2972C7.54597 41.3062 7.52496 41.3199 7.5074 41.3375C7.48984 41.355 7.47611 41.376 7.46708 41.3992C7.45805 41.4223 7.45391 41.4471 7.45492 41.4719C7.45492 41.6803 7.82867 41.6803 7.82867 41.4719C7.82867 41.4223 7.80898 41.3748 7.77394 41.3397C7.73889 41.3047 7.69136 41.285 7.6418 41.285Z" fill="#217C6A"/>
</g>
<defs>
<clipPath id="clip0_1_2218">
<rect width="46" height="46" fill="white"/>
</clipPath>
</defs>
</svg>
