<svg width="45" height="36" viewBox="0 0 45 36" fill="none" xmlns="http://www.w3.org/2000/svg">
<path d="M18.378 27.2089C17.9791 27.2089 17.6245 26.9419 17.5358 26.5415L14.0783 13.5953H12.3495V12.7056H13.9009C14.3886 12.7056 14.8762 13.0615 15.0091 13.5509L15.9843 17.1989H31.5433C31.8092 17.1989 32.0752 17.3324 32.2525 17.5548C32.4298 17.7773 32.4742 18.0442 32.4298 18.3111L30.4794 26.586C30.3908 26.9864 30.0361 27.2534 29.6372 27.2534H18.378V27.2089ZM19.3089 24.762H28.6177V22.9824H19.3089V24.762ZM18.4223 21.5588H29.5042V19.7793H18.4223V21.5588Z" fill="#217C6A"/>
<path d="M20.639 28.1431C21.4369 28.1431 22.0575 28.766 22.0575 29.5668C22.0575 30.3676 21.4369 30.9904 20.639 30.9904C19.8411 30.9904 19.2205 30.3676 19.2205 29.5668C19.2205 28.766 19.8854 28.1431 20.639 28.1431ZM20.639 27.6982C19.6194 27.6982 18.7772 28.5435 18.7772 29.5668C18.7772 30.59 19.6194 31.4353 20.639 31.4353C21.6585 31.4353 22.5007 30.59 22.5007 29.5668C22.5007 28.5435 21.7028 27.6982 20.639 27.6982Z" fill="#217C6A"/>
<path d="M27.5081 28.1431C28.306 28.1431 28.9266 28.766 28.9266 29.5668C28.9266 30.3676 28.306 30.9904 27.5081 30.9904C26.7102 30.9904 26.0896 30.3676 26.0896 29.5668C26.0896 28.766 26.7102 28.1431 27.5081 28.1431ZM27.5081 27.6982C26.4886 27.6982 25.6464 28.5435 25.6464 29.5668C25.6464 30.59 26.4886 31.4353 27.5081 31.4353C28.5276 31.4353 29.3699 30.59 29.3699 29.5668C29.3699 28.5435 28.572 27.6982 27.5081 27.6982Z" fill="#217C6A"/>
<path d="M1.26729 9.90308C0.779684 9.90308 0.380737 9.50268 0.380737 9.01331C0.380737 8.52393 0.779684 8.12354 1.26729 8.12354H43.733C44.2206 8.12354 44.6195 8.52393 44.6195 9.01331C44.6195 9.50268 44.2206 9.90308 43.733 9.90308H1.26729Z" fill="#217C6A"/>
<path d="M27.9969 3.58569H30.2576V5.85461H27.9969V3.58569Z" fill="#217C6A"/>
<path d="M33.0057 3.58569H35.2664V5.85461H33.0057V3.58569Z" fill="#217C6A"/>
<path d="M38.0143 3.58569H40.275V5.85461H38.0143V3.58569Z" fill="#217C6A"/>
<path d="M0.247925 35.8398V0.159912H44.797V35.8843H0.247925V35.8398ZM2.02102 34.0602H43.0239V1.93946H2.02102V34.0602Z" fill="#217C6A"/>
</svg>
