<svg width="45" height="45" viewBox="0 0 45 45" fill="none" xmlns="http://www.w3.org/2000/svg">
<g clip-path="url(#clip0_1_2134)">
<path d="M44.1198 41.4846H28.3886C27.9032 41.4846 27.5098 41.8781 27.5098 42.3634C27.5098 42.8488 27.9033 43.2423 28.3886 43.2423H44.1198C44.6052 43.2423 44.9986 42.8488 44.9986 42.3634C44.9986 41.8781 44.6051 41.4846 44.1198 41.4846Z" fill="#217C6A"/>
<path d="M16.5242 41.4846H0.880893C0.395473 41.4846 0.0020752 41.8781 0.0020752 42.3634C0.0020752 42.8488 0.395561 43.2423 0.880893 43.2423H16.5242C17.0096 43.2423 17.403 42.8488 17.403 42.3634C17.403 41.8781 17.0095 41.4846 16.5242 41.4846Z" fill="#217C6A"/>
<path d="M22.848 17.9785H16.0371C15.5517 17.9785 15.1583 18.372 15.1583 18.8573C15.1583 19.3428 15.5518 19.7362 16.0371 19.7362H22.848C23.3334 19.7362 23.7268 19.3427 23.7268 18.8573C23.7268 18.372 23.3333 17.9785 22.848 17.9785Z" fill="#217C6A"/>
<path d="M29.6885 18.2358C29.525 18.0723 29.2982 17.9783 29.0672 17.9783C28.8351 17.9783 28.6084 18.0723 28.4459 18.2358C28.2815 18.3993 28.1884 18.626 28.1884 18.8571C28.1884 19.0882 28.2815 19.315 28.4459 19.4784C28.6093 19.6419 28.8352 19.7359 29.0672 19.7359C29.2983 19.7359 29.5251 19.6419 29.6885 19.4784C29.8519 19.3149 29.946 19.0882 29.946 18.8571C29.946 18.626 29.8519 18.3993 29.6885 18.2358Z" fill="#217C6A"/>
<path d="M26.6173 18.2358C26.453 18.0723 26.2271 17.9783 25.9952 17.9783C25.764 17.9783 25.5372 18.0723 25.3739 18.2358C25.2104 18.3993 25.1163 18.626 25.1163 18.8571C25.1163 19.0891 25.2104 19.315 25.3739 19.4784C25.5382 19.6419 25.7641 19.7359 25.9952 19.7359C26.2262 19.7359 26.4531 19.6419 26.6173 19.4784C26.7808 19.3149 26.874 19.0882 26.874 18.8571C26.874 18.626 26.7808 18.3993 26.6173 18.2358Z" fill="#217C6A"/>
<path d="M22.848 25.0093H16.0371C15.5517 25.0093 15.1583 25.4028 15.1583 25.8881C15.1583 26.3734 15.5518 26.7669 16.0371 26.7669H22.848C23.3334 26.7669 23.7268 26.3734 23.7268 25.8881C23.7268 25.4028 23.3333 25.0093 22.848 25.0093Z" fill="#217C6A"/>
<path d="M29.6885 25.2666C29.525 25.1031 29.2982 25.009 29.0672 25.009C28.8351 25.009 28.6093 25.1031 28.4459 25.2666C28.2815 25.43 28.1884 25.6568 28.1884 25.8879C28.1884 26.1199 28.2815 26.3458 28.4459 26.5091C28.6093 26.6726 28.8352 26.7667 29.0672 26.7667C29.2983 26.7667 29.5251 26.6726 29.6885 26.5091C29.8519 26.3457 29.946 26.1189 29.946 25.8879C29.946 25.6568 29.8519 25.43 29.6885 25.2666Z" fill="#217C6A"/>
<path d="M26.6173 25.2666C26.453 25.1031 26.2271 25.009 25.9952 25.009C25.764 25.009 25.5372 25.1031 25.3739 25.2666C25.2104 25.43 25.1163 25.6568 25.1163 25.8879C25.1163 26.1189 25.2104 26.3458 25.3739 26.5091C25.5373 26.6726 25.7641 26.7667 25.9952 26.7667C26.2272 26.7667 26.4531 26.6726 26.6173 26.5091C26.7808 26.3457 26.874 26.1189 26.874 25.8879C26.874 25.6568 26.7808 25.43 26.6173 25.2666Z" fill="#217C6A"/>
<path d="M22.848 32.04H16.0371C15.5517 32.04 15.1583 32.4335 15.1583 32.9189C15.1583 33.4042 15.5518 33.7977 16.0371 33.7977H22.848C23.3334 33.7977 23.7268 33.4042 23.7268 32.9189C23.7268 32.4335 23.3333 32.04 22.848 32.04Z" fill="#217C6A"/>
<path d="M29.6885 32.2973C29.5241 32.1338 29.2982 32.0398 29.0672 32.0398C28.8351 32.0398 28.6093 32.1338 28.445 32.2973C28.2815 32.4608 28.1884 32.6876 28.1884 32.9186C28.1884 33.1497 28.2815 33.3765 28.445 33.5399C28.6094 33.7034 28.8352 33.7974 29.0672 33.7974C29.2983 33.7974 29.5251 33.7034 29.6885 33.5399C29.8519 33.3764 29.946 33.1497 29.946 32.9186C29.946 32.6876 29.8519 32.4608 29.6885 32.2973Z" fill="#217C6A"/>
<path d="M26.6164 32.2973C26.453 32.1338 26.2271 32.0398 25.9952 32.0398C25.764 32.0398 25.5372 32.1338 25.3739 32.2973C25.2105 32.4608 25.1163 32.6876 25.1163 32.9186C25.1163 33.1497 25.2104 33.3765 25.3739 33.5399C25.5373 33.7034 25.7641 33.7974 25.9952 33.7974C26.2272 33.7974 26.4531 33.7034 26.6164 33.5399C26.7808 33.3764 26.874 33.1497 26.874 32.9186C26.874 32.6876 26.7808 32.4608 26.6164 32.2973Z" fill="#217C6A"/>
<path d="M33.9367 26.0135C33.9367 24.5776 33.2444 23.3005 32.176 22.4982C33.2443 21.6958 33.9367 20.4188 33.9367 18.9828C33.9367 16.5598 31.9655 14.5886 29.5425 14.5886H15.4811C13.0581 14.5886 11.0869 16.5598 11.0869 18.9828C11.0869 20.4188 11.7792 21.6958 12.8476 22.4982C11.7793 23.3005 11.0869 24.5776 11.0869 26.0135C11.0869 27.4495 11.7792 28.7265 12.8476 29.5289C11.7793 30.3312 11.0869 31.6083 11.0869 33.0442C11.0869 35.4672 13.0581 37.4384 15.4811 37.4384H21.6218V39.878C20.599 40.2408 19.8642 41.2176 19.8642 42.3634C19.8641 43.8172 21.0469 44.9999 22.5007 44.9999C23.9544 44.9999 25.1372 43.8172 25.1372 42.3634C25.1372 41.2177 24.4024 40.2408 23.3796 39.878V37.4384H29.5426C31.9656 37.4384 33.9368 35.4672 33.9368 33.0442C33.9368 31.6083 33.2445 30.3312 32.1761 29.5289C33.2443 28.7265 33.9367 27.4495 33.9367 26.0135ZM12.8445 18.9829C12.8445 17.5291 14.0272 16.3463 15.481 16.3463H29.5424C30.9962 16.3463 32.179 17.5291 32.179 18.9829C32.179 20.4367 30.9962 21.6194 29.5424 21.6194H15.481C14.0272 21.6193 12.8445 20.4366 12.8445 18.9829ZM22.5007 43.2423C22.016 43.2423 21.6218 42.848 21.6218 42.3635C21.6218 41.8788 22.0161 41.4846 22.5007 41.4846C22.9852 41.4846 23.3795 41.8789 23.3795 42.3635C23.3795 42.848 22.9853 43.2423 22.5007 43.2423ZM32.179 33.0442C32.179 34.498 30.9962 35.6808 29.5424 35.6808H15.481C14.0272 35.6808 12.8445 34.498 12.8445 33.0442C12.8445 31.5904 14.0272 30.4077 15.481 30.4077H29.5424C30.9962 30.4078 32.179 31.5905 32.179 33.0442ZM29.5424 28.6501H15.481C14.0272 28.6501 12.8445 27.4673 12.8445 26.0135C12.8445 24.5597 14.0272 23.377 15.481 23.377H29.5424C30.9962 23.377 32.179 24.5597 32.179 26.0135C32.179 27.4673 30.9962 28.6501 29.5424 28.6501Z" fill="#217C6A"/>
<path d="M43.1118 13.6085C41.9833 11.9705 40.4421 10.6904 38.6374 9.88699C36.4254 3.95692 30.7497 0 24.3898 0C20.6892 0 17.123 1.34534 14.3485 3.78809C11.8116 6.02148 10.0969 9.02268 9.46215 12.3113C9.32574 12.3051 9.1896 12.3021 9.05399 12.3021C4.06268 12.3021 0.00195312 16.3628 0.00195312 21.3541C0.00195312 23.5261 0.782949 25.6266 2.20106 27.2685C3.60424 28.893 5.53924 29.9688 7.64976 30.2978C7.69564 30.3049 7.74116 30.3084 7.78616 30.3084C8.21182 30.3084 8.58579 29.9985 8.65347 29.5648C8.72826 29.0852 8.39999 28.6359 7.92046 28.5611C4.35061 28.0047 1.75959 24.9738 1.75959 21.3542C1.75959 17.332 5.03176 14.0598 9.05399 14.0598C9.39263 14.0598 9.73602 14.0838 10.0747 14.1312C10.3064 14.1636 10.5411 14.1024 10.7272 13.9613C10.9136 13.8201 11.0359 13.6106 11.0673 13.3791C11.9659 6.75378 17.6934 1.75773 24.3898 1.75773C30.132 1.75773 35.2434 5.40431 37.1088 10.8317C37.1917 11.0733 37.3757 11.2666 37.6126 11.3617C41.0316 12.7336 43.2408 16.0004 43.2408 19.6843C43.2408 23.9244 40.231 27.6177 36.0841 28.4663C35.6086 28.5636 35.3021 29.028 35.3994 29.5035C35.4967 29.9791 35.9609 30.2854 36.4366 30.1882C41.3977 29.1731 44.9985 24.7555 44.9985 19.6843C44.9985 17.501 44.3461 15.4001 43.1118 13.6085Z" fill="#217C6A"/>
</g>
<defs>
<clipPath id="clip0_1_2134">
<rect width="45" height="45" fill="white"/>
</clipPath>
</defs>
</svg>
