<svg width="51" height="53" viewBox="0 0 51 53" fill="none" xmlns="http://www.w3.org/2000/svg">
<path d="M18.5058 11.3503C18.5058 10.8585 18.9046 10.4597 19.3965 10.4597H33.6377C34.1295 10.4597 34.5283 10.8585 34.5283 11.3503C34.5283 11.8422 34.1295 12.2409 33.6377 12.2409H19.3965C18.9046 12.2409 18.5058 11.8422 18.5058 11.3503ZM19.3965 21.9533H33.6377C34.1295 21.9533 34.5283 21.5545 34.5283 21.0627C34.5283 20.5709 34.1295 20.1721 33.6377 20.1721H19.3965C18.9046 20.1721 18.5058 20.5709 18.5058 21.0627C18.5058 21.5545 18.9046 21.9533 19.3965 21.9533ZM13.7843 28.847L11.6228 31.0086L10.8568 30.2426C10.5089 29.8949 9.94516 29.8949 9.59726 30.2426C9.24947 30.5905 9.24947 31.1543 9.59726 31.5022L10.993 32.8979C11.167 33.0718 11.3948 33.1587 11.6228 33.1587C11.8508 33.1587 12.0787 33.0718 12.2525 32.8979L15.0439 30.1066C15.3917 29.7587 15.3917 29.1949 15.0439 28.847C14.6959 28.4991 14.1321 28.4993 13.7843 28.847ZM10.9931 13.2783C11.167 13.4522 11.3949 13.5391 11.6228 13.5391C11.8507 13.5391 12.0787 13.4522 12.2524 13.2783L15.0438 10.4871C15.3917 10.1393 15.3917 9.57542 15.0439 9.22763C14.6961 8.87984 14.1322 8.87984 13.7844 9.22752L11.6228 11.3891L10.8567 10.6231C10.5093 10.2756 9.94527 10.2753 9.59726 10.6232C9.24947 10.971 9.24947 11.5349 9.59737 11.8827L10.9931 13.2783ZM13.7843 19.0371L11.6228 21.1987L10.8567 20.4328C10.5089 20.085 9.94505 20.0851 9.59726 20.4329C9.24947 20.7807 9.24947 21.3446 9.59737 21.6924L10.9931 23.088C11.167 23.2619 11.3949 23.3488 11.6228 23.3488C11.8507 23.3488 12.0787 23.2619 12.2525 23.088L15.0439 20.2967C15.3917 19.9488 15.3917 19.385 15.0439 19.0371C14.6959 18.6893 14.1321 18.6895 13.7843 19.0371ZM13.5432 42.5604C13.8055 43.5397 13.6709 44.5624 13.164 45.4404C12.6571 46.3184 11.8387 46.9464 10.8595 47.2089C10.5324 47.2965 10.2005 47.3398 9.8709 47.3398C9.21329 47.3398 8.56425 47.1674 7.97944 46.8297C7.10151 46.3228 6.4735 45.5045 6.21099 44.5252C5.9487 43.5459 6.0833 42.5232 6.59018 41.6452C7.09705 40.7672 7.91543 40.1392 8.89467 39.8767C9.87424 39.6144 10.8968 39.749 11.7747 40.2559C12.6527 40.7628 13.2808 41.5811 13.5432 42.5604ZM11.8226 43.0215C11.6833 42.5018 11.3501 42.0675 10.8841 41.7985C10.5738 41.6194 10.2293 41.5278 9.88026 41.5278C9.70536 41.5278 9.52924 41.5508 9.35568 41.5973C8.836 41.7366 8.40171 42.0698 8.13263 42.5358C7.86366 43.0017 7.79219 43.5445 7.93146 44.0642C8.07073 44.5839 8.40393 45.0182 8.86995 45.2873C9.33586 45.5561 9.8787 45.6277 10.3984 45.4884C10.9181 45.3492 11.3523 45.0159 11.6214 44.5499C11.8904 44.084 11.9619 43.5412 11.8226 43.0215ZM50.2861 19.1167L40.448 28.955V40.6377C40.448 41.1296 40.0492 41.5284 39.5573 41.5284H18.9852C19.0932 41.7274 19.1688 41.9486 19.2034 42.1861C19.3352 43.0871 19.336 43.9992 19.2059 44.8971C19.0656 45.8659 18.2541 46.5683 17.2756 46.5683C17.2734 46.5683 17.2713 46.5684 17.2695 46.5683C16.8263 46.5683 16.4138 46.8061 16.1927 47.1893C15.971 47.573 15.9718 48.0502 16.1945 48.4345C16.6861 49.2824 16.4842 50.3383 15.7143 50.9451C15.0018 51.5065 14.2115 51.9617 13.365 52.2983C12.4562 52.6594 11.4421 52.3067 10.9539 51.4592C10.7324 51.0745 10.3197 50.8356 9.8768 50.8356C9.43383 50.8356 9.02102 51.0745 8.79959 51.4595C8.44 52.0843 7.79552 52.4403 7.11787 52.4404C6.87384 52.4404 6.62536 52.3942 6.38422 52.2978C5.54236 51.9612 4.75404 51.506 4.04121 50.9451C3.27048 50.3387 3.06798 49.2826 3.55938 48.4342C3.78192 48.0501 3.78259 47.5732 3.56116 47.1894C3.33995 46.8062 2.92726 46.5683 2.48395 46.5683C2.48284 46.5684 2.48161 46.5684 2.48016 46.5683C1.50326 46.5684 0.69179 45.8671 0.550292 44.8999C0.41859 43.9984 0.417811 43.0864 0.547954 42.1887C0.688227 41.2199 1.4997 40.5175 2.47827 40.5175C2.4805 40.5175 2.48261 40.5176 2.48428 40.5175C2.92748 40.5175 3.34006 40.2797 3.56116 39.8965C3.78281 39.5128 3.78204 39.0356 3.55938 38.6513C3.07466 37.8154 3.26525 36.7783 4.00836 36.1678V1.45013C4.00836 0.958287 4.40714 0.559509 4.89899 0.559509H39.5571C40.049 0.559509 40.4477 0.958287 40.4477 1.45013V19.7741L45.6955 14.5263C45.8626 14.3593 46.0891 14.2654 46.3253 14.2654C46.5615 14.2654 46.788 14.3593 46.9551 14.5263L50.2859 17.8571C50.6339 18.205 50.6339 18.7688 50.2861 19.1167ZM17.441 42.4436C17.4284 42.3568 17.3609 42.2985 17.2732 42.2985C17.2734 42.2993 17.271 42.2987 17.27 42.2985C16.1922 42.2985 15.1887 41.7196 14.6502 40.7869C14.1112 39.853 14.1122 38.6927 14.653 37.7589C14.6971 37.6825 14.6804 37.5949 14.6113 37.5406C14.0326 37.085 13.3922 36.7154 12.708 36.4417C12.6263 36.4088 12.542 36.4383 12.4981 36.5145C11.9598 37.45 10.9555 38.0311 9.87703 38.0311C8.79904 38.0311 7.79497 37.4503 7.25647 36.5156C7.21272 36.4395 7.12856 36.4107 7.04684 36.4426C6.36051 36.7155 5.7197 37.0848 5.14224 37.5397C5.07322 37.5942 5.05641 37.6818 5.10049 37.7578C5.64199 38.692 5.64333 39.8526 5.10395 40.7869C4.56545 41.7196 3.56194 42.2985 2.48428 42.2985C2.48228 42.2985 2.4795 42.2984 2.47861 42.2985C2.39088 42.2985 2.32341 42.3568 2.31083 42.4438C2.20552 43.1714 2.20619 43.9109 2.31306 44.642C2.32564 44.7285 2.39311 44.7868 2.48072 44.7868H2.48395C3.56194 44.7868 4.56534 45.3659 5.10395 46.2986C5.64311 47.2325 5.64199 48.3928 5.10105 49.3267C5.05696 49.4028 5.07378 49.4906 5.14291 49.5449C5.72193 50.0006 6.36229 50.3702 7.04606 50.6437C7.12822 50.6767 7.21228 50.647 7.25614 50.5708C7.79441 49.6355 8.7987 49.0543 9.87714 49.0543C10.9551 49.0543 11.9592 49.6351 12.4977 50.5699C12.5416 50.6461 12.6258 50.6749 12.7073 50.6429C13.3938 50.3698 14.0347 50.0007 14.612 49.5458C14.6811 49.4915 14.6979 49.4038 14.6537 49.3277C14.1122 48.3935 14.1108 47.2329 14.6502 46.2986C15.1887 45.3659 16.1922 44.7869 17.2699 44.7869C17.2719 44.7869 17.275 44.7872 17.2756 44.7869C17.3633 44.7869 17.4307 44.7287 17.4433 44.6417C17.5485 43.914 17.5479 43.1746 17.441 42.4436ZM38.6667 30.7362L33.6319 35.771C33.5331 35.8697 33.4127 35.9438 33.2802 35.9872L28.3188 37.6179C28.2276 37.6479 28.1337 37.6624 28.0408 37.6624C27.8082 37.6624 27.5805 37.5713 27.4109 37.4016C27.1733 37.1639 27.0897 36.8129 27.1947 36.4937L28.7815 31.6653H19.3966C18.9047 31.6653 18.506 31.2665 18.506 30.7746C18.506 30.2828 18.9047 29.884 19.3966 29.884H30.338L38.6668 21.5552V2.34076H5.78973V35.0504C5.986 34.9561 6.18572 34.8682 6.38878 34.7875C7.29778 34.4262 8.31175 34.779 8.79993 35.6265C9.02147 36.0111 9.43405 36.25 9.87703 36.25C10.32 36.25 10.7328 36.0111 10.9542 35.6262C11.4432 34.7763 12.4591 34.4239 13.3694 34.7878C14.2118 35.1249 15.0001 35.5801 15.7127 36.1408C16.4835 36.7473 16.6859 37.8033 16.1942 38.6518C16 38.9873 15.975 39.3939 16.1196 39.7471H38.6666V30.7362H38.6667ZM48.3968 18.4869L46.3255 16.4156L30.4511 32.29L29.4372 35.3754L32.5225 34.3614L48.3968 18.4869Z" fill="#FF7322"/>
</svg>
