<svg width="58" height="58" viewBox="0 0 58 58" fill="none" xmlns="http://www.w3.org/2000/svg">
<g clip-path="url(#clip0_1_1918)">
<path d="M28.2059 6.91919V0.791809C28.2059 0.353411 28.5605 -0.00115967 28.9989 -0.00115967C29.4373 -0.00115967 29.7918 0.353411 29.7918 0.791809V6.91806C29.7918 7.35646 29.4373 7.71103 28.9989 7.71103C28.5605 7.71103 28.2059 7.35646 28.2059 6.91919ZM38.2256 10.184C38.3502 10.2565 38.4873 10.2904 38.6221 10.2904C38.8962 10.2904 39.1625 10.1477 39.3097 9.89396L42.3728 4.589C42.5915 4.2095 42.4623 3.72466 42.0828 3.50603C41.7034 3.2874 41.2185 3.41654 40.9999 3.79603L37.9368 9.10099C37.717 9.48048 37.8461 9.96533 38.2256 10.184ZM45.6682 17.3354C45.803 17.3354 45.9389 17.3014 46.0647 17.2289L51.3696 14.1658C51.7491 13.9472 51.8794 13.4612 51.6596 13.0828C51.441 12.7033 50.955 12.5731 50.5767 12.7928L45.2717 15.856C44.8922 16.0746 44.7619 16.5606 44.9817 16.9389C45.1278 17.1938 45.3941 17.3354 45.6682 17.3354ZM54.3727 25.3761H48.2465C47.8081 25.3761 47.4535 25.7307 47.4535 26.1691C47.4535 26.6075 47.8081 26.962 48.2465 26.962H54.3727C54.8111 26.962 55.1657 26.6075 55.1657 26.1691C55.1657 25.7307 54.8111 25.3761 54.3727 25.3761ZM9.74785 25.3761H3.625C3.1866 25.3761 2.83203 25.7307 2.83203 26.1691C2.83203 26.6075 3.1866 26.962 3.625 26.962H9.74898C10.1874 26.962 10.542 26.6075 10.542 26.1691C10.542 25.7307 10.1862 25.3761 9.74785 25.3761ZM13.0137 16.9389C13.2324 16.5594 13.1032 16.0746 12.7237 15.856L7.41879 12.7917C7.0393 12.5719 6.55445 12.7022 6.33582 13.0817C6.11719 13.4612 6.24633 13.946 6.62582 14.1647L11.9308 17.2278C12.0554 17.3003 12.1925 17.3343 12.3273 17.3343C12.6003 17.3354 12.8665 17.1938 13.0137 16.9389ZM18.6846 9.89396C18.8319 10.1488 19.0981 10.2904 19.3722 10.2904C19.507 10.2904 19.643 10.2565 19.7676 10.184C20.1471 9.96533 20.2773 9.48048 20.0587 9.10099L16.999 3.79603C16.7804 3.41654 16.2944 3.28626 15.916 3.5049C15.5365 3.72353 15.4062 4.20837 15.6249 4.58786L18.6846 9.89396ZM52.7188 46.0058C53.8199 47.1069 53.8199 48.9001 52.7188 50.0012C52.1683 50.5517 51.4444 50.827 50.7205 50.827C49.9967 50.827 49.2739 50.5517 48.7223 50.0012L43.3539 44.6328L42.4521 45.5345C41.9809 46.0058 41.3522 46.2652 40.6804 46.2652C40.0087 46.2652 39.38 46.0058 38.9087 45.5345C37.9334 44.5546 37.9345 42.9664 38.9087 41.9922L39.8104 41.0905L39.0016 40.2817C37.6807 41.9616 36.3553 43.8953 35.2916 46.4419V52.3722C35.2916 55.4761 32.4687 58.0011 28.9977 58.0011C25.5257 58.0011 22.7004 55.4761 22.7004 52.3722V46.4396C21.2606 42.9948 19.4039 40.7472 17.6062 38.5734C14.935 35.3426 12.4122 32.2919 12.4122 26.1555C12.4122 17.0103 19.8525 9.56998 28.9977 9.56998C38.1407 9.56998 45.5798 17.0103 45.5798 26.1555C45.5798 30.7411 44.1684 33.5528 42.5439 35.8297L43.807 37.0917L44.7076 36.1911C45.6818 35.2169 47.2711 35.2157 48.2487 36.1899L48.2499 36.1911C49.2264 37.1676 49.2264 38.7569 48.2499 39.7334L47.3482 40.6351L52.7188 46.0058ZM33.7068 52.1094V50.2855H24.2886V52.1094H33.7068ZM33.7068 47.074H24.2886V48.6985H33.7068V47.074ZM33.4463 53.6953H24.5492C25.1892 55.2767 26.9417 56.4152 29 56.4152C31.0549 56.4152 32.8062 55.2767 33.4463 53.6953ZM37.8733 39.1522L36.1798 37.4587C34.1543 38.7342 31.8309 39.4049 29.4191 39.4049C22.415 39.4049 16.7158 33.7068 16.7158 26.7015C16.7158 19.6962 22.415 13.9981 29.4191 13.9981C36.4233 13.9981 42.1225 19.6973 42.1225 26.7015C42.1225 29.1144 41.4519 31.4378 40.1763 33.4621L41.4066 34.6912C42.98 32.4211 43.995 29.9855 43.995 26.1555C43.995 17.8848 37.2684 11.1559 28.9989 11.1559C20.7282 11.1559 13.9993 17.8848 13.9993 26.1555C13.9993 31.721 16.2377 34.4273 18.8296 37.5618C20.5583 39.6529 22.5079 42.0092 24.0202 45.4858H33.973C35.1149 42.8645 36.5015 40.882 37.8733 39.1522ZM40.933 39.9679L42.6866 38.2143L40.9693 36.4981C40.9534 36.4833 40.9387 36.4686 40.924 36.4528L38.5949 34.126C38.3219 33.8529 38.2845 33.4236 38.5077 33.1076C39.8353 31.226 40.5366 29.0113 40.5366 26.7026C40.5366 20.573 35.5499 15.5852 29.4191 15.5852C23.2884 15.5852 18.3017 20.5718 18.3017 26.7026C18.3017 32.8323 23.2884 37.8201 29.4191 37.8201C31.7278 37.8201 33.9425 37.1188 35.8241 35.7912C36.139 35.5692 36.5695 35.6054 36.8425 35.8784L39.4966 38.5326L39.5 38.536L40.933 39.9679ZM42.7614 42.9823C42.7716 42.971 42.7807 42.9596 42.7909 42.9494C42.8011 42.9392 42.8124 42.929 42.8237 42.92L45.6342 40.1095C45.6444 40.0981 45.6535 40.0868 45.6648 40.0755C45.6761 40.0642 45.6875 40.0551 45.6988 40.0449L47.1295 38.6142C47.4818 38.2619 47.4818 37.6671 47.1307 37.3148C46.9505 37.1358 46.7149 37.0463 46.4793 37.0463C46.2437 37.0463 46.0092 37.1358 45.8302 37.3137L44.37 38.7739L44.3689 38.775L44.3677 38.7761L41.5244 41.6195C41.5142 41.6308 41.5051 41.6422 41.4938 41.6535C41.4825 41.6648 41.4711 41.6739 41.4598 41.6841L40.0291 43.1148C39.6722 43.4728 39.6722 44.0562 40.0302 44.4153C40.2001 44.5852 40.4312 44.6804 40.6782 44.6804C40.9251 44.6804 41.1562 44.5863 41.3284 44.4142L42.7614 42.9823ZM51.5962 47.1272L46.2278 41.7588L44.4753 43.5113L49.8437 48.8797C50.3263 49.3623 51.1125 49.3623 51.5962 48.8797C52.0799 48.3971 52.0799 47.6098 51.5962 47.1272Z" fill="#E28094"/>
</g>
<defs>
<clipPath id="clip0_1_1918">
<rect width="58" height="58" fill="white"/>
</clipPath>
</defs>
</svg>
