<svg width="46" height="46" viewBox="0 0 46 46" fill="none" xmlns="http://www.w3.org/2000/svg">
<path d="M3.20793 0.0810547C1.49469 0.0810547 0.0849605 1.49884 0.0849609 3.21211V42.7894C0.0849609 44.5027 1.49471 45.9185 3.20793 45.9185H42.7933C44.5065 45.9185 45.9142 44.5027 45.9142 42.7894V3.21211C45.9142 1.49888 44.5065 0.0810547 42.7933 0.0810547H3.20793ZM3.20793 2.16634H27.1683V8.41644H4.24552V10.5018H43.8309V42.7894C43.8309 43.3846 43.3884 43.8351 42.7933 43.8351H3.20793C2.61281 43.8351 2.16219 43.3846 2.16219 42.7894V3.21211C2.16219 2.61699 2.61283 2.16634 3.20793 2.16634ZM29.2516 2.16634H42.7933C43.3884 2.16634 43.8309 2.61699 43.8309 3.21211V8.41644H29.2516V2.16634ZM31.335 4.24971V6.33307H33.4122V4.24971H31.335ZM35.4955 4.24971V6.33307H37.5789V4.24971H35.4955ZM39.6642 4.24971V6.33307H41.7476V4.24971H39.6642ZM24.1613 14.7295L19.8095 26.3872L21.7626 27.1176L26.1144 15.4619L24.1613 14.7295ZM16.4709 15.6999L10.8902 20.1901C10.7671 20.2887 10.668 20.4139 10.6003 20.5563C10.5326 20.6988 10.4982 20.8547 10.4995 21.0124C10.5009 21.1701 10.5381 21.3254 10.6082 21.4667C10.6784 21.6079 10.7797 21.7314 10.9045 21.8278L16.4872 26.1492L17.7628 24.5033L13.2279 20.9815L17.7791 17.3214L16.4709 15.6999ZM29.5283 15.6999L28.2222 17.3214L32.7734 20.9815L28.2364 24.5033L29.5141 26.1492L35.0947 21.8278C35.2197 21.7316 35.3211 21.6082 35.3914 21.467C35.4617 21.3259 35.4991 21.1706 35.5006 21.0129C35.5022 20.8552 35.4679 20.6992 35.4004 20.5567C35.3329 20.4141 35.2339 20.2888 35.1109 20.1901L29.5283 15.6999ZM8.41423 29.2477V31.3311H33.4122V29.2477H8.41423ZM35.4955 29.2477V31.3311H37.5789V29.2477H35.4955ZM8.41423 33.4163V35.4997H10.4976V33.4163H8.41423ZM12.5809 33.4163V35.4997H37.5789V33.4163H12.5809ZM8.41423 37.5831V39.6664H33.4122V37.5831H8.41423ZM35.4955 37.5831V39.6664H37.5789V37.5831H35.4955Z" fill="#76A6B0"/>
</svg>
