<svg width="50" height="50" viewBox="0 0 50 50" fill="none" xmlns="http://www.w3.org/2000/svg">
<path d="M45.6055 11.2689H37.3047V6.87433C37.3047 4.45118 35.3333 2.4798 32.9102 2.4798H4.39453C1.97139 2.4798 0 4.45118 0 6.87433V34.8248L6.95439 27.8704H10.7422V34.2181C10.7422 36.6412 12.7136 38.6126 15.1367 38.6126H41.0925L50 47.5202V15.6634C50 13.2402 48.0286 11.2689 45.6055 11.2689ZM10.7422 15.6634V24.9407H5.74092L2.92969 27.752V6.87433C2.92969 6.06661 3.58682 5.40949 4.39453 5.40949H32.9102C33.7179 5.40949 34.375 6.06661 34.375 6.87433V11.2689H15.1367C12.7136 11.2689 10.7422 13.2402 10.7422 15.6634ZM47.0703 40.4473L42.306 35.6829H15.1367C14.329 35.6829 13.6719 35.0258 13.6719 34.2181V15.6634C13.6719 14.8557 14.329 14.1985 15.1367 14.1985H45.6055C46.4132 14.1985 47.0703 14.8557 47.0703 15.6634V40.4473Z" fill="#B8A2E1"/>
<path d="M44.1406 20.0576H16.6016V22.9873H44.1406V20.0576Z" fill="#B8A2E1"/>
<path d="M38.2812 25.917H16.6016V28.8467H38.2812V25.917Z" fill="#B8A2E1"/>
</svg>
