<svg width="50" height="50" viewBox="0 0 50 50" fill="none" xmlns="http://www.w3.org/2000/svg">
<path d="M10.5091 1.56152C9.28614 1.56152 8.27977 2.56789 8.27977 3.79087V27.5858C8.27977 28.5782 9.7684 28.5782 9.7684 27.5858V9.00036H39.5076V27.5858C39.4851 28.5997 41.0176 28.5997 40.9948 27.5858V3.79087C40.9948 2.56789 39.9899 1.56152 38.7669 1.56152H10.5091ZM10.5091 3.05018H38.7669C39.1918 3.05018 39.5076 3.36605 39.5076 3.79087V7.5117H9.7684V3.79087C9.7684 3.36605 10.0843 3.05018 10.5091 3.05018ZM11.9977 4.53593C11.587 4.53593 11.2541 4.86887 11.2541 5.27953C11.2541 5.69022 11.587 6.02304 11.9977 6.02304C12.4084 6.02304 12.7413 5.69022 12.7413 5.27953C12.7413 4.86887 12.4084 4.53593 11.9977 4.53593ZM14.9721 4.53593C14.5614 4.53593 14.2285 4.86887 14.2285 5.27953C14.2285 5.69022 14.5614 6.02304 14.9721 6.02304C15.3828 6.02304 15.7157 5.69022 15.7157 5.27953C15.7157 4.86887 15.3828 4.53593 14.9721 4.53593ZM17.9464 4.53593C17.5358 4.53593 17.2028 4.86887 17.2028 5.27953C17.2028 5.69022 17.5358 6.02304 17.9464 6.02304C18.3571 6.02304 18.69 5.69022 18.69 5.27953C18.69 4.86887 18.3571 4.53593 17.9464 4.53593ZM28.3189 4.53739C27.315 4.60568 27.3835 6.04918 28.3538 6.02459H37.2798C38.2495 6.0021 38.2495 4.55889 37.2798 4.53739H28.3189ZM4.56473 6.02459C3.34175 6.02459 2.33105 7.02949 2.33105 8.25247V35.0231C2.33105 36.2461 3.34175 37.2524 4.56473 37.2524H44.7171C45.9401 37.2524 46.9464 36.2461 46.9464 35.0231V8.25239C46.9464 7.02941 45.9401 6.0245 44.7171 6.0245H43.2299C42.2162 6.00202 42.2162 7.53419 43.2299 7.5117H44.7171C45.1419 7.5117 45.4578 7.82757 45.4578 8.25239V29.8194H3.81823V8.25239C3.81823 7.82757 4.13993 7.5117 4.56473 7.5117H6.04609C7.05979 7.53419 7.05979 6.00202 6.04609 6.0245L4.56473 6.02459ZM26.8782 11.9602C26.5513 11.958 26.2614 12.1696 26.1637 12.4817L21.7007 25.8648C21.386 26.8059 22.7977 27.2779 23.1124 26.3367L27.5753 12.9493C27.7437 12.4677 27.3883 11.9636 26.8782 11.9602ZM30.1111 16.2591L33.8871 19.4092L30.1111 22.5549C29.3043 23.1866 30.3005 24.3785 31.0653 23.6965L35.5224 19.9799C35.8784 19.6827 35.8784 19.1357 35.5224 18.8385L31.0653 15.1162C30.932 15.0021 30.7628 14.9388 30.5497 14.9391C29.8468 15.0006 29.592 15.839 30.1111 16.2591ZM18.6711 14.9404C18.5037 14.946 18.343 15.0079 18.2151 15.1161L13.7536 18.8384C13.3977 19.1357 13.3977 19.6826 13.7536 19.9798L18.2151 23.6964C18.9824 24.4111 20.0072 23.1794 19.1649 22.5548L15.3889 19.4091L19.1649 16.259C19.7144 15.8091 19.3809 14.9188 18.6711 14.9404ZM3.81823 31.3081H45.4578V35.0231C45.4578 35.4479 45.1419 35.7637 44.7171 35.7637H4.56473C4.13993 35.7637 3.81823 35.4479 3.81823 35.0231V31.3081ZM26.1666 32.7938L23.1153 32.7953C22.1674 32.9085 22.2311 34.2512 23.1501 34.2766H26.1259C27.1471 34.3668 27.2321 32.8143 26.1666 32.7938ZM20.4677 38.6815C20.1692 38.6758 19.8959 38.8478 19.7735 39.1201C19.4154 39.8881 18.7739 40.7849 17.6661 41.7139H16.4593C15.2363 41.7139 14.2314 42.7261 14.2314 43.9491V45.4305C14.2299 45.8411 14.5614 46.1753 14.9721 46.1769H34.304C34.7169 46.1784 35.052 45.8434 35.0504 45.4305V43.9491C35.0504 42.7261 34.0398 41.7139 32.8168 41.7139H31.6113C30.5037 40.785 29.8621 39.888 29.504 39.1201C29.3781 38.8407 29.0939 38.6673 28.788 38.6829C28.2568 38.711 27.925 39.27 28.1563 39.749C28.4461 40.3707 28.8888 41.0376 29.4851 41.7139H19.7923C20.3887 41.0376 20.8313 40.3707 21.1212 39.749C21.3573 39.2613 21.0094 38.693 20.4677 38.6815ZM16.4593 43.2026H32.8168C33.2415 43.2026 33.5633 43.5243 33.5633 43.9491V44.6898H15.7186V43.9491C15.7186 43.5243 16.0344 43.2026 16.4593 43.2026Z" fill="#217C6A"/>
</svg>
