<svg width="45" height="33" viewBox="0 0 45 33" fill="none" xmlns="http://www.w3.org/2000/svg">
<g opacity="0.9">
<path d="M10.6598 27.1865C10.278 27.1867 9.89989 27.1116 9.5471 26.9657C9.19431 26.8197 8.87373 26.6057 8.60367 26.3358L0.852057 18.5842C0.581934 18.3142 0.36765 17.9937 0.22145 17.6409C0.0752505 17.2881 0 16.9099 0 16.528C0 16.1462 0.0752505 15.768 0.22145 15.4152C0.36765 15.0624 0.581934 14.7419 0.852057 14.4719L8.60367 6.72032C9.14898 6.17501 9.88859 5.86865 10.6598 5.86865C11.431 5.86865 12.1706 6.17501 12.7159 6.72032C13.2612 7.26564 13.5676 8.00525 13.5676 8.77644C13.5676 9.54763 13.2612 10.2872 12.7159 10.8326L7.01847 16.528L12.7159 22.2235C13.1227 22.6301 13.3998 23.1482 13.512 23.7122C13.6243 24.2762 13.5667 24.8609 13.3466 25.3922C13.1265 25.9236 12.7537 26.3776 12.2754 26.697C11.7972 27.0164 11.2349 27.1868 10.6598 27.1865Z" fill="#A98ADD"/>
</g>
<g opacity="0.9">
<path d="M33.914 27.1863C33.3389 27.1865 32.7767 27.0162 32.2984 26.6968C31.8201 26.3774 31.4473 25.9233 31.2272 25.392C31.0071 24.8607 30.9495 24.276 31.0618 23.712C31.1741 23.1479 31.4511 22.6298 31.8579 22.2233L37.5554 16.5278L31.8579 10.8323C31.5879 10.5623 31.3737 10.2417 31.2276 9.88895C31.0815 9.53617 31.0062 9.15805 31.0062 8.77619C31.0062 8.39434 31.0815 8.01622 31.2276 7.66343C31.3737 7.31064 31.5879 6.99009 31.8579 6.72008C32.4032 6.17476 33.1428 5.86841 33.914 5.86841C34.2959 5.86841 34.674 5.94362 35.0268 6.08975C35.3796 6.23588 35.7001 6.45006 35.9701 6.72008L43.7218 14.4717C43.9919 14.7416 44.2062 15.0622 44.3524 15.415C44.4986 15.7678 44.5738 16.1459 44.5738 16.5278C44.5738 16.9097 44.4986 17.2878 44.3524 17.6406C44.2062 17.9934 43.9919 18.314 43.7218 18.5839L35.9701 26.3355C35.7001 26.6054 35.3795 26.8195 35.0267 26.9654C34.6739 27.1114 34.2958 27.1864 33.914 27.1863Z" fill="#A98ADD"/>
</g>
<path d="M18.4091 33C18.1384 32.9996 17.869 32.9618 17.6087 32.8876C16.8677 32.6757 16.2411 32.1782 15.8668 31.5044C15.4925 30.8307 15.4011 30.0359 15.6127 29.2947L23.3643 2.16409C23.4631 1.79032 23.6354 1.44001 23.8713 1.13366C24.1071 0.82732 24.4017 0.571094 24.7377 0.379987C25.0738 0.18888 25.4446 0.0667308 25.8284 0.0206885C26.2123 -0.0253538 26.6015 0.00563534 26.9732 0.111844C27.3449 0.218052 27.6918 0.397347 27.9933 0.639229C28.2949 0.881112 28.5452 1.18072 28.7296 1.52053C28.914 1.86034 29.0287 2.23351 29.0671 2.6182C29.1055 3.00289 29.0668 3.39138 28.9532 3.76092L21.2016 30.8916C21.0282 31.4986 20.6619 32.0326 20.1581 32.413C19.6543 32.7934 19.0403 32.9995 18.4091 33Z" fill="#A98ADD"/>
</svg>
