<svg width="47" height="53" viewBox="0 0 47 53" fill="none" xmlns="http://www.w3.org/2000/svg">
<path d="M44.9677 6.26804C39.1438 6.26804 28.5468 5.08206 25.2274 0.711365C24.6633 -0.174987 23.4288 -0.253836 22.7547 0.592079C18.8466 4.96197 8.22497 6.26804 1.96875 6.26804C1.11111 6.26804 0.416016 6.96556 0.416016 7.82644V32.764C0.416016 43.9958 13.3449 50.8569 23.1393 52.9903C24.4041 53.2653 46.5204 47.6629 46.5204 32.764V7.82644C46.5204 6.96597 45.8254 6.26804 44.9677 6.26804ZM43.415 32.764C43.415 44.4689 26.0919 49.2149 23.468 49.8655C20.8442 49.2149 3.52148 44.4689 3.52148 32.764V9.36745C15.5119 9.09046 21.4915 5.63684 23.8687 3.76467C28.6588 8.00112 37.0354 9.22269 43.415 9.36785V32.764Z" fill="#E09268"/>
<path d="M15.7103 20.2435V24.9712H14.1523C13.2951 24.9712 12.5996 25.6691 12.5996 26.5296V38.9984C12.5996 39.8592 13.2951 40.5572 14.1523 40.5572H32.7851C33.6428 40.5572 34.3379 39.8592 34.3379 38.9984V26.5296C34.3379 25.6691 33.6428 24.9712 32.7851 24.9712H18.8158V20.2435C18.8158 17.8076 20.7341 15.6196 23.5156 15.6196C26.0558 15.6196 28.1221 17.6936 28.1221 20.2435C28.1221 21.1039 28.8176 21.8019 29.6748 21.8019C30.5325 21.8019 31.2275 21.1039 31.2275 20.2435C31.2275 15.9751 27.7683 12.5024 23.5156 12.5024C18.9945 12.5024 15.7103 16.1158 15.7103 20.2435ZM31.2324 37.44H15.7051V28.0884H31.2324V37.44Z" fill="#E09268"/>
</svg>
