<svg width="50" height="50" viewBox="0 0 50 50" fill="none" xmlns="http://www.w3.org/2000/svg">
<path fill-rule="evenodd" clip-rule="evenodd" d="M10.9922 34.1688C4.94653 34.1688 0 29.2454 0 23.2277C0 17.8821 3.94061 13.2818 9.23918 12.4273C9.23867 12.3803 9.23735 12.3335 9.23735 12.2865C9.23735 5.50088 14.7639 0 21.5811 0C25.6772 0 29.3066 1.98635 31.552 5.04362C32.6177 4.31884 33.9061 3.8947 35.2942 3.8947C38.9619 3.8947 41.9353 6.85426 41.9353 10.505C41.9353 11.2357 41.8159 11.9386 41.5959 12.5958C46.4035 13.7619 50 18.0966 50 23.2277C50 29.2454 45.0535 34.1689 39.0077 34.1689H10.9922V34.1688ZM13.3977 44.4137C13.7036 44.4137 13.9979 44.4626 14.2736 44.5526L17.5868 39.8465V35.7939H19.2195V40.0971C19.2195 40.2969 19.1469 40.4798 19.0267 40.6214L15.6048 45.4818C15.9799 45.9567 16.2038 46.5558 16.2038 47.2068C16.2038 48.7493 14.9474 49.9999 13.3977 49.9999C11.8479 49.9999 10.5915 48.7494 10.5915 47.2068C10.5915 45.6642 11.8479 44.4137 13.3977 44.4137ZM38.9231 35.7939V39.2632L45.2517 42.8C45.7559 42.3187 46.4401 42.0228 47.1939 42.0228C48.7437 42.0228 50 43.2733 50 44.8159C50 46.3585 48.7437 47.609 47.1939 47.609C45.6441 47.609 44.3878 46.3585 44.3878 44.8159C44.3878 44.6095 44.4104 44.4084 44.4532 44.2147L37.7472 40.4671C37.4767 40.3348 37.2904 40.0578 37.2904 39.7374V35.7938L38.9231 35.7939ZM12.7096 35.7939H11.0769V39.2632L4.74827 42.8C4.24418 42.3187 3.5599 42.0228 2.80612 42.0228C1.25633 42.0228 0 43.2733 0 44.8159C0 46.3585 1.25633 47.609 2.80612 47.609C4.35592 47.609 5.61225 46.3585 5.61225 44.8159C5.61225 44.6095 5.58949 44.4084 5.54684 44.2147L12.2528 40.4671C12.5233 40.3348 12.7096 40.0578 12.7096 39.7374V35.7939ZM24.1837 44.5339V35.7939H25.8163V44.534C26.968 44.882 27.8061 45.9469 27.8061 47.2069C27.8061 48.7494 26.5498 50 25 50C23.4502 50 22.1939 48.7495 22.1939 47.2069C22.1939 45.9469 23.0321 44.8819 24.1837 44.5339ZM32.4132 35.7939H30.7805V40.0971C30.7805 40.2969 30.8531 40.4798 30.9733 40.6214L34.3952 45.4818C34.02 45.9567 33.7962 46.5558 33.7962 47.2068C33.7962 48.7493 35.0526 49.9999 36.6023 49.9999C38.1521 49.9999 39.4085 48.7494 39.4085 47.2068C39.4085 45.6642 38.1521 44.4137 36.6023 44.4137C36.2964 44.4137 36.002 44.4626 35.7264 44.5526L32.4132 39.8465V35.7939ZM28.7563 8.67262C29.6477 9.81048 30.2694 11.203 30.7011 12.5735H33.9963C32.6926 10.8001 30.8725 9.42686 28.7563 8.67262ZM31.1322 14.1985C31.4112 15.4715 31.5854 16.8545 31.6331 18.3032H36.1118C36.0052 16.8375 35.6119 15.451 34.9882 14.1985H31.1322ZM31.6331 19.9283C31.5854 21.377 31.4112 22.76 31.1322 24.033H34.9882C35.6117 22.7804 36.0051 21.394 36.1117 19.9283H31.6331ZM30.7011 25.6581C30.2695 27.0287 29.6476 28.421 28.7563 29.5591C30.8725 28.8049 32.6927 27.4316 33.9963 25.6581H30.7011ZM21.2437 29.5591C20.3523 28.4211 19.7306 27.0288 19.2989 25.6582H16.0037C17.3074 27.4315 19.1276 28.8048 21.2437 29.5591ZM18.8679 24.033C18.5889 22.7601 18.4147 21.377 18.3669 19.9283H13.8882C13.9948 21.394 14.3882 22.7804 15.0117 24.033H18.8679ZM18.3669 18.3032C18.4147 16.8545 18.5889 15.4715 18.8679 14.1985H15.0119C14.3882 15.451 13.9949 16.8376 13.8883 18.3032H18.3669ZM19.2989 12.5734C19.7305 11.2029 20.3523 9.81048 21.2437 8.67252C19.1276 9.42686 17.3074 10.8 16.0037 12.5734H19.2989ZM25.8163 8.32181V12.5734H28.9859C28.4472 11.0454 27.3842 8.92643 25.8163 8.32181ZM24.1837 8.32181C22.6158 8.92643 21.5528 11.0454 21.014 12.5734H24.1837V8.32181ZM20.5383 14.1985C20.2393 15.4508 20.0514 16.8365 20.0004 18.3032H24.1837V14.1985H20.5383ZM20.0004 19.9283C20.0514 21.395 20.2393 22.7808 20.5383 24.033H24.1837V19.9283H20.0004ZM21.014 25.6581C21.5528 27.1861 22.6158 29.3052 24.1837 29.9098V25.6581H21.014ZM25.8163 29.9098C27.3842 29.3052 28.4472 27.1862 28.9859 25.6581H25.8163V29.9098ZM29.4618 24.033C29.7608 22.7807 29.9487 21.395 29.9997 19.9283H25.8163V24.033H29.4618ZM29.9997 18.3032C29.9487 16.8365 29.7608 15.4508 29.4618 14.1985H25.8163V18.3032H29.9997Z" fill="#C3D979"/>
</svg>
