<svg width="55" height="55" viewBox="0 0 55 55" fill="none" xmlns="http://www.w3.org/2000/svg">
<path d="M46.5732 25.1217C45.0752 22.1948 44.1164 21.8859 41.1895 23.384C39.5301 24.2367 38.4238 24.9281 37.8016 25.6794L30.5879 23.596C29.1183 23.1715 27.5563 23.188 26.096 23.6437C24.6357 24.0993 23.3415 24.9739 22.374 26.1588C21.0945 25.7082 19.7343 25.5323 18.3823 25.6426L17.7923 25.6887C17.1977 24.753 16.0361 24.0155 14.4597 23.0936C13.1829 22.3423 12.2702 21.8721 11.2884 22.1256C10.3066 22.3791 9.73969 23.2411 8.98836 24.5225L4.73391 31.7823C3.98258 33.0637 3.51242 33.9763 3.76594 34.9581C4.01945 35.9399 4.88141 36.5069 6.16281 37.2536C7.82219 38.2262 9.07594 38.9037 10.2375 38.9037C10.436 38.9053 10.634 38.8837 10.8275 38.8392L13.1875 40.7337L12.4362 41.6601C11.9861 42.2142 11.7022 42.8843 11.6172 43.593C11.5322 44.3017 11.6496 45.02 11.9558 45.6647C12.262 46.3095 12.7445 46.8543 13.3475 47.2363C13.9505 47.6182 14.6494 47.8216 15.3631 47.8229C15.4138 47.8229 15.4691 47.8229 15.5199 47.8183C15.5956 48.7653 16.0242 49.6495 16.7207 50.2957C17.4173 50.9418 18.331 51.303 19.2811 51.3076C19.335 51.309 19.389 51.3059 19.4424 51.2983C19.5163 52.2461 19.9443 53.1314 20.6413 53.7779C21.3382 54.4245 22.253 54.7849 23.2037 54.7876C23.3051 54.7876 23.4065 54.783 23.5079 54.7738C24.0184 54.7346 24.5156 54.5919 24.9691 54.3543C25.4228 54.1173 25.8229 53.7893 26.1445 53.391L27.2692 52.0082L29.0484 53.4555C29.5498 53.8634 30.1474 54.1359 30.7842 54.247C31.421 54.3581 32.0756 54.304 32.6855 54.0899C33.2954 53.8758 33.8402 53.5089 34.2678 53.0242C34.6955 52.5395 34.9917 51.9532 35.1281 51.3214C35.7239 51.5277 36.3619 51.5815 36.9838 51.478C37.6057 51.3744 38.1918 51.1168 38.6886 50.7287C39.1854 50.3405 39.5771 49.8341 39.8279 49.2557C40.0788 48.6772 40.1808 48.0452 40.1247 47.4172C41.1006 47.3044 41.9937 46.8148 42.6138 46.0529C43.2189 45.2991 43.5147 44.3433 43.4411 43.3795C43.3674 42.4156 42.93 41.5159 42.2174 40.8627L44.015 39.337C44.2356 39.3886 44.4614 39.4149 44.688 39.4154C45.3083 39.3938 45.9193 39.2578 46.4903 39.0144C47.2359 38.7133 47.9652 38.3733 48.6751 37.9957C49.998 37.3181 50.8876 36.8019 51.1964 35.8339C51.5053 34.8659 51.0858 33.9348 50.4128 32.6119L46.5732 25.1217ZM29.9472 25.8085L37.2116 27.9058C37.49 29.1492 37.9563 30.3429 38.5944 31.4458L40.6179 35.396C41.0396 36.2847 41.5361 37.1359 42.1021 37.9404L40.4013 39.3831L37.5296 37.0508L29.1129 30.1966L29.1083 30.192L29.0899 30.1782L27.8684 29.1365C27.7108 28.9999 27.5171 28.9118 27.3106 28.883H27.306C27.0578 28.8412 26.8028 28.8822 26.5801 28.9995C26.3575 29.1169 26.1795 29.3042 26.0737 29.5326C25.9679 29.7609 25.9401 30.0178 25.9945 30.2635C26.0489 30.5092 26.1826 30.7303 26.3749 30.8926L26.8036 31.2568C26.7956 31.2685 26.7863 31.2793 26.776 31.2891C25.2364 33.1881 23.0193 34.5248 21.0004 34.7092C20.8609 34.7221 20.7206 34.6952 20.5957 34.6315C20.4709 34.5679 20.3667 34.4702 20.2952 34.3497C20.218 34.2272 20.1778 34.0851 20.1795 33.9404C20.1811 33.7957 20.2245 33.6545 20.3044 33.5338L23.1714 29.0996L23.7061 28.2699C23.9336 27.8887 24.2077 27.5372 24.522 27.2236C25.2168 26.5237 26.0868 26.0231 27.0411 25.7742C27.9954 25.5253 28.999 25.5371 29.9472 25.8085ZM10.362 36.5852C10.3167 36.5965 10.2703 36.6027 10.2237 36.6037C9.65211 36.6037 8.48594 35.9445 7.32899 35.2669C7.30133 35.2485 7.26446 35.2301 7.22758 35.207C6.79276 34.9741 6.38471 34.6943 6.01071 34.3727C6.20033 33.8751 6.43969 33.3979 6.72516 32.9484L10.9796 25.6887C11.2305 25.219 11.5303 24.7772 11.8738 24.3704C12.3723 24.5581 12.8496 24.7976 13.2981 25.0848C13.7867 25.3706 14.2661 25.6564 14.6809 25.933C15.3493 26.3709 15.8471 26.7765 15.9301 27.0853C15.9472 27.4646 15.8544 27.8408 15.6627 28.1685C15.3468 28.8379 14.996 29.4902 14.6118 30.1229L12.367 33.9533C11.9648 34.6767 11.5152 35.3726 11.0211 36.0367C10.8547 36.2755 10.627 36.465 10.362 36.5852ZM14.3859 45.1402C14.1025 44.8883 13.9274 44.5366 13.8974 44.1586C13.8673 43.7806 13.9845 43.4056 14.2246 43.1121L14.9852 42.1718L16.0545 40.8581C16.1865 40.6943 16.3535 40.562 16.5431 40.4709C16.7206 40.3793 16.9153 40.3259 17.1147 40.3142H17.2069C17.3956 40.313 17.5827 40.3491 17.7575 40.4202C17.9323 40.4914 18.0913 40.5964 18.2256 40.729C18.4134 40.9073 18.5503 41.1323 18.6224 41.381C18.6945 41.6297 18.6991 41.8931 18.6358 42.1441C18.5901 42.3318 18.5052 42.5077 18.3869 42.6604C18.3177 42.7341 18.2532 42.8079 18.1887 42.8862L17.276 44.0063L16.3541 45.1402L16.3495 45.1448C16.0792 45.3862 15.7293 45.5192 15.3669 45.5183C15.0045 45.5175 14.6552 45.3828 14.3859 45.1402ZM18.3039 48.6249C18.0314 48.3798 17.8597 48.0422 17.8223 47.6776C17.7848 47.313 17.8842 46.9475 18.1011 46.6521C18.1735 46.5812 18.2412 46.5058 18.3039 46.4262L19.0875 45.4583L20.12 44.1907C20.1235 44.1837 20.1281 44.1775 20.1338 44.1722C20.3104 44.0141 20.5222 43.9003 20.7515 43.8404C20.8435 43.8157 20.9376 43.8003 21.0327 43.7943H21.1249C21.3223 43.7948 21.5177 43.8349 21.6994 43.9121C21.8811 43.9893 22.0456 44.1021 22.183 44.2439C22.3205 44.3856 22.4282 44.5534 22.4998 44.7375C22.5714 44.9215 22.6054 45.118 22.5999 45.3154C22.5913 45.6218 22.4847 45.9175 22.2956 46.1589C22.2899 46.1641 22.2853 46.1704 22.2818 46.1773C22.2214 46.237 22.1645 46.3001 22.1113 46.3663L20.2767 48.6203L20.2721 48.6249C20.0008 48.8655 19.6507 48.9984 19.288 48.9984C18.9254 48.9984 18.5753 48.8655 18.3039 48.6249ZM24.356 51.9344C24.231 52.0906 24.0753 52.2194 23.8985 52.313C23.7217 52.4065 23.5276 52.4628 23.3281 52.4783C23.0472 52.5002 22.7659 52.4412 22.5174 52.3085C22.2689 52.1758 22.0635 51.9748 21.9254 51.7291C21.7874 51.4835 21.7224 51.2036 21.7382 50.9223C21.7539 50.641 21.8498 50.37 22.0145 50.1414C22.0882 50.0676 22.1574 49.9893 22.2265 49.9063L23.1806 48.7309L24.0564 47.6569L24.061 47.6477C24.3073 47.4248 24.6234 47.2944 24.9552 47.279C24.9843 47.2751 25.0136 47.2736 25.0428 47.2744H25.0474C25.3263 47.2745 25.5993 47.3537 25.835 47.5027C26.0706 47.6518 26.2592 47.8645 26.3789 48.1164C26.4985 48.3682 26.5443 48.6488 26.511 48.9257C26.4777 49.2025 26.3666 49.4642 26.1906 49.6804L25.4715 50.5654L24.356 51.9344ZM40.8253 44.5963C40.5777 44.8999 40.2196 45.0928 39.8298 45.1326C39.44 45.1724 39.0504 45.0557 38.7465 44.8083C38.7378 44.7981 38.7267 44.7902 38.7142 44.7853H38.7101L32.4814 39.721C32.364 39.6255 32.2289 39.5541 32.0839 39.5108C31.9389 39.4675 31.7867 39.4532 31.6362 39.4687C31.4856 39.4842 31.3396 39.5293 31.2064 39.6012C31.0733 39.6732 30.9556 39.7706 30.8601 39.8881C30.7646 40.0055 30.6932 40.1406 30.6499 40.2856C30.6066 40.4306 30.5923 40.5828 30.6078 40.7333C30.6234 40.8839 30.6684 41.0299 30.7403 41.1631C30.8123 41.2962 30.9097 41.4139 31.0272 41.5094L37.2927 46.6014L37.2982 46.6051C37.6015 46.8531 37.7939 47.2115 37.833 47.6013C37.872 47.9912 37.7546 48.3806 37.5066 48.6839C37.2585 48.9872 36.9002 49.1795 36.5103 49.2186C36.1205 49.2577 35.7311 49.1403 35.4278 48.8922L33.9159 47.6708C33.8952 47.6491 33.8725 47.6295 33.8481 47.6122C33.8375 47.603 33.8297 47.5915 33.8186 47.5827L28.8124 43.514C28.5752 43.3212 28.2712 43.2304 27.9671 43.2618C27.663 43.2931 27.3839 43.444 27.191 43.6811C26.9982 43.9183 26.9074 44.2223 26.9388 44.5264C26.9701 44.8305 27.121 45.1096 27.3581 45.3025L32.3524 49.361L32.3579 49.367L32.3625 49.3716C32.3671 49.3808 32.3763 49.3854 32.381 49.3901C32.6772 49.6379 32.8644 49.9921 32.9023 50.3765C32.9403 50.7609 32.8259 51.1449 32.5838 51.4458C32.335 51.7487 31.9771 51.9417 31.5874 51.9831C31.1976 52.0245 30.8072 51.911 30.5003 51.6671L28.5782 50.0999C28.8013 49.5159 28.8761 48.8857 28.7958 48.2657C28.7155 47.6457 28.4827 47.0553 28.1182 46.5474C27.7537 46.0395 27.2689 45.6299 26.7073 45.3554C26.1456 45.0808 25.5246 44.9499 24.8999 44.9743C24.8198 44.0008 24.3673 43.0957 23.6366 42.4475C22.906 41.7993 21.9534 41.4578 20.9774 41.4942C20.9235 40.7908 20.6736 40.1165 20.2561 39.5479C19.8386 38.9792 19.2701 38.5389 18.615 38.2769C17.96 38.0149 17.2447 37.9417 16.5501 38.0655C15.8556 38.1893 15.2097 38.5052 14.6856 38.9775C14.0495 38.4658 13.4241 37.965 12.8095 37.4748C13.3849 36.7286 13.9026 35.9396 14.3583 35.1148L16.5984 31.2891C17.3682 29.98 17.949 28.9244 18.1564 27.9703L18.562 27.938C19.3922 27.872 20.2275 27.9468 21.0327 28.1593L18.3684 32.2847C18.0562 32.7668 17.8858 33.327 17.8765 33.9014C17.8672 34.4757 18.0195 35.0411 18.3159 35.5331C18.6124 36.0252 19.0411 36.424 19.5532 36.6841C20.0653 36.9443 20.6403 37.0554 21.2124 37.0047C23.8536 36.7604 26.6285 35.1287 28.5644 32.741L39.6868 41.78C39.7002 41.7933 39.7158 41.8042 39.7329 41.8122L40.6087 42.5221C40.9099 42.7702 41.1014 43.1267 41.142 43.5148C41.1825 43.9029 41.0688 44.2914 40.8253 44.5963ZM48.3524 35.5573C48.0759 35.7094 47.7901 35.8615 47.6242 35.9445C47.1909 36.1658 46.7576 36.3824 46.3566 36.5714C45.5453 36.9448 44.8493 37.1937 44.5221 37.0876C44.2271 36.9908 43.8629 36.5069 43.4803 35.8523C43.213 35.4052 42.941 34.8751 42.6691 34.3451L40.6456 30.3948C40.3321 29.791 40.0279 29.1826 39.8113 28.6571C39.5783 28.2402 39.471 27.7647 39.5024 27.2881C39.7235 26.9213 40.045 26.6254 40.4289 26.4354C40.9314 26.1173 41.5859 25.7716 42.2404 25.4352C42.706 25.1749 43.1972 24.9633 43.7062 24.8037C44.0243 25.2309 44.2976 25.6896 44.5221 26.1726L48.3617 33.6629C48.621 34.1273 48.8326 34.6169 48.9932 35.1241C48.7968 35.2924 48.5818 35.4378 48.3524 35.5573Z" fill="#3F92CB"/>
<path d="M27.4996 5.89001C27.8052 5.89001 28.0983 5.76861 28.3145 5.5525C28.5306 5.33639 28.652 5.04329 28.652 4.73767V1.36499C28.652 1.05937 28.5306 0.766267 28.3145 0.55016C28.0983 0.334054 27.8052 0.212646 27.4996 0.212646C27.194 0.212646 26.9009 0.334054 26.6848 0.55016C26.4687 0.766267 26.3473 1.05937 26.3473 1.36499V4.73629C26.3471 4.88773 26.3768 5.03773 26.4346 5.17769C26.4924 5.31766 26.5773 5.44486 26.6843 5.55201C26.7913 5.65916 26.9184 5.74417 27.0583 5.80217C27.1982 5.86016 27.3482 5.89001 27.4996 5.89001Z" fill="#3F92CB"/>
<path d="M14.2707 6.87918C14.3458 7.0113 14.4463 7.12724 14.5664 7.22036C14.6865 7.31347 14.8239 7.3819 14.9705 7.42172C15.1172 7.46154 15.2703 7.47195 15.421 7.45236C15.5717 7.43278 15.717 7.38357 15.8486 7.30758C15.9802 7.2316 16.0955 7.13033 16.1878 7.00961C16.2801 6.88888 16.3477 6.7511 16.3865 6.60417C16.4254 6.45725 16.4348 6.3041 16.4142 6.15353C16.3936 6.00296 16.3434 5.85794 16.2666 5.72684L15.423 4.2689C15.2691 4.00639 15.0177 3.8154 14.7235 3.73762C14.4293 3.65985 14.1163 3.70159 13.8527 3.85374C13.5892 4.00589 13.3966 4.2561 13.3168 4.54976C13.2371 4.84343 13.2768 5.15671 13.4272 5.42124L14.2707 6.87918Z" fill="#3F92CB"/>
<path d="M4.26836 15.3886L7.18794 17.0742C7.31904 17.1511 7.46405 17.2012 7.61462 17.2218C7.76519 17.2424 7.91835 17.233 8.06527 17.1942C8.21219 17.1553 8.34998 17.0878 8.4707 16.9955C8.59142 16.9032 8.69269 16.7879 8.76868 16.6563C8.84467 16.5247 8.89387 16.3793 8.91346 16.2286C8.93305 16.0779 8.92263 15.9248 8.88282 15.7782C8.843 15.6315 8.77456 15.4942 8.68145 15.3741C8.58834 15.254 8.47239 15.1535 8.34028 15.0784L5.4207 13.3927C5.15617 13.2423 4.84289 13.2026 4.54923 13.2824C4.25556 13.3621 4.00535 13.5547 3.8532 13.8183C3.70105 14.0818 3.65931 14.3948 3.73709 14.689C3.81487 14.9832 4.00585 15.2347 4.26836 15.3886Z" fill="#3F92CB"/>
<path d="M4.15405 27.4513C4.15405 27.1457 4.03264 26.8526 3.81653 26.6365C3.60043 26.4203 3.30733 26.2989 3.0017 26.2989H1.31836C1.01274 26.2989 0.719636 26.4203 0.503529 26.6365C0.287423 26.8526 0.166016 27.1457 0.166016 27.4513C0.166016 27.7569 0.287423 28.05 0.503529 28.2661C0.719636 28.4822 1.01274 28.6036 1.31836 28.6036H3.00355C3.30885 28.6031 3.60148 28.4815 3.81719 28.2655C4.03289 28.0494 4.15405 27.7566 4.15405 27.4513Z" fill="#3F92CB"/>
<path d="M53.6348 26.2989H51.9496C51.644 26.2989 51.3509 26.4203 51.1348 26.6365C50.9187 26.8526 50.7973 27.1457 50.7973 27.4513C50.7973 27.7569 50.9187 28.05 51.1348 28.2661C51.3509 28.4822 51.644 28.6036 51.9496 28.6036H53.6348C53.9404 28.6036 54.2335 28.4822 54.4496 28.2661C54.6657 28.05 54.7872 27.7569 54.7872 27.4513C54.7872 27.1457 54.6657 26.8526 54.4496 26.6365C54.2335 26.4203 53.9404 26.2989 53.6348 26.2989Z" fill="#3F92CB"/>
<path d="M39.1051 7.30095C39.3698 7.45375 39.6843 7.49516 39.9795 7.41607C40.2747 7.33697 40.5264 7.14385 40.6792 6.87919L41.5218 5.42124C41.5987 5.29014 41.6488 5.14513 41.6694 4.99456C41.69 4.84399 41.6806 4.69083 41.6418 4.54391C41.6029 4.39699 41.5354 4.2592 41.4431 4.13848C41.3508 4.01776 41.2355 3.91649 41.1039 3.8405C40.9723 3.76451 40.8269 3.71531 40.6762 3.69572C40.5255 3.67613 40.3724 3.68654 40.2258 3.72636C40.0791 3.76618 39.9418 3.83462 39.8217 3.92773C39.7015 4.02084 39.601 4.13679 39.5259 4.2689L38.6833 5.72869C38.5311 5.99319 38.49 6.30727 38.5691 6.60203C38.6482 6.89678 38.8409 7.14814 39.1051 7.30095Z" fill="#3F92CB"/>
<path d="M47.189 17.2291C47.391 17.2289 47.5895 17.1755 47.7642 17.0742L50.6838 15.3886C50.8159 15.3134 50.9319 15.2129 51.025 15.0928C51.1181 14.9727 51.1865 14.8354 51.2264 14.6887C51.2662 14.5421 51.2766 14.389 51.257 14.2383C51.2374 14.0876 51.1882 13.9422 51.1122 13.8106C51.0362 13.679 50.935 13.5637 50.8142 13.4714C50.6935 13.3791 50.5557 13.3116 50.4088 13.2727C50.2619 13.2339 50.1087 13.2245 49.9582 13.2451C49.8076 13.2657 49.6626 13.3158 49.5315 13.3927L46.6119 15.0783C46.3919 15.2051 46.22 15.401 46.1228 15.6355C46.0256 15.8701 46.0086 16.1302 46.0744 16.3754C46.1402 16.6206 46.2851 16.8372 46.4866 16.9916C46.6882 17.146 46.9351 17.2294 47.189 17.2291Z" fill="#3F92CB"/>
<path d="M14.7902 20.7612C15.086 20.6846 15.3393 20.4935 15.4943 20.2301C15.6493 19.9668 15.6933 19.6526 15.6166 19.3568C14.3919 14.6271 16.8851 11.2396 19.9803 10.3376C22.1951 9.69228 25.2041 10.2523 26.4035 13.9495C26.4786 14.1811 26.6252 14.3829 26.8221 14.526C27.019 14.6692 27.2562 14.7463 27.4996 14.7463C27.7431 14.7463 27.9802 14.6692 28.1772 14.526C28.3741 14.3829 28.5206 14.1811 28.5957 13.9495C29.7942 10.2523 32.805 9.6932 35.0184 10.3376C38.1141 11.2396 40.6068 14.6271 39.3826 19.3568C39.3424 19.504 39.3318 19.6577 39.3515 19.8091C39.3712 19.9604 39.4208 20.1063 39.4973 20.2383C39.5739 20.3704 39.6759 20.4859 39.7975 20.5781C39.919 20.6704 40.0577 20.7376 40.2054 20.7759C40.3532 20.8141 40.507 20.8226 40.6581 20.8009C40.8092 20.7792 40.9544 20.7278 41.0854 20.6495C41.2164 20.5712 41.3306 20.4676 41.4212 20.3449C41.5119 20.2221 41.5773 20.0825 41.6135 19.9343C43.2061 13.7836 39.8256 9.33736 35.6633 8.1251C34.1794 7.65591 32.5838 7.67759 31.1132 8.18691C29.6427 8.69622 28.3755 9.66605 27.4996 10.9525C26.6238 9.66596 25.3567 8.69605 23.8861 8.18665C22.4155 7.67724 20.8199 7.6555 19.3359 8.12464C15.1737 9.3369 11.7932 13.7831 13.3857 19.9338C13.4236 20.0804 13.4899 20.2181 13.581 20.339C13.6721 20.4599 13.7861 20.5617 13.9165 20.6385C14.0469 20.7154 14.1912 20.7657 14.3411 20.7868C14.491 20.8078 14.6436 20.7992 14.7902 20.7612Z" fill="#3F92CB"/>
</svg>
