<svg width="58" height="54" viewBox="0 0 58 54" fill="none" xmlns="http://www.w3.org/2000/svg">
<path d="M23.7462 53.4024C23.6124 53.4024 23.479 53.3734 23.3549 53.3158C23.293 53.2868 16.9873 50.2464 10.9684 43.6159C7.59666 39.9016 4.97389 35.7882 3.1728 31.3906C0.932064 25.9189 -0.0357637 19.9909 0.295997 13.771C0.319583 13.3314 0.648637 12.9687 1.08402 12.9029C6.86934 12.0287 12.249 9.82623 17.0731 6.35706C20.4963 3.89515 22.4969 1.58636 23.0285 0.937536C23.2049 0.72255 23.4682 0.597656 23.7466 0.597656C24.0246 0.597656 24.2883 0.72255 24.4646 0.937536L24.5017 0.983163C25.5542 2.27811 29.5319 6.75069 36.5344 9.93257C37.0011 10.1445 37.2072 10.6947 36.9953 11.1614C36.7834 11.6281 36.2332 11.8346 35.7665 11.6223C32.4323 10.1073 29.3695 8.15235 26.6624 5.81147C25.8709 5.12668 24.7813 4.12135 23.7381 2.94859C22.7277 4.05639 20.8543 5.92361 18.1565 7.86351C15.9251 9.46818 13.5293 10.8378 11.0361 11.9336C8.18207 13.1879 5.18463 14.0892 2.11565 14.6159C1.73246 25.1332 5.17071 34.4673 12.3426 42.3681C14.6479 44.9077 17.3724 47.2908 20.2213 49.2593C21.8763 50.4027 23.1434 51.1134 23.7477 51.4331C24.9441 50.8048 28.7071 48.6789 32.759 44.8668C39.0021 38.9925 42.9821 32.0414 44.5875 24.206C44.6904 23.7037 45.1815 23.3805 45.683 23.4833C46.1852 23.5862 46.5089 24.0765 46.4056 24.5787C45.4811 29.0904 43.769 33.3889 41.3167 37.355C39.3467 40.5415 36.8952 43.5235 34.0308 46.2185C28.8459 51.0967 24.1843 53.2938 24.1379 53.3154C24.0134 53.3734 23.8796 53.4024 23.7462 53.4024Z" fill="#59C2B9"/>
<path d="M23.7469 47.9755C23.6131 47.9755 23.4797 47.9465 23.3556 47.8889C23.3065 47.866 18.3076 45.456 13.545 40.2089C10.8763 37.2687 8.79987 34.0122 7.37384 30.5303C5.59904 26.1969 4.83266 21.5028 5.09521 16.579C5.1188 16.1393 5.44785 15.7766 5.88324 15.7109C10.4049 15.0277 14.6095 13.3062 18.3803 10.5945C21.0549 8.67086 22.6151 6.87093 23.0292 6.36478C23.2055 6.1498 23.4689 6.0249 23.7473 6.0249C24.0257 6.0249 24.289 6.1498 24.4653 6.36478L24.5032 6.41157C25.5105 7.65547 29.3222 11.9007 36.0893 14.2988C36.5722 14.4701 36.8251 15.0002 36.6542 15.4835C36.4829 15.9665 35.9528 16.2194 35.4695 16.0484C32.2029 14.8908 29.2055 13.2065 26.5606 11.0415C25.7935 10.4136 24.7414 9.48363 23.7368 8.36965C22.9063 9.26207 21.4733 10.6568 19.4645 12.1017C17.6971 13.3727 15.7997 14.4573 13.825 15.3254C11.6133 16.2975 9.29325 17.0016 6.91757 17.4227C6.6585 25.5809 9.34855 32.8247 14.92 38.9627C18.6796 43.1043 22.5343 45.355 23.7488 46.0058C24.8183 45.4366 27.9198 43.6487 31.1558 40.5012C36.2629 35.5345 39.3292 29.6436 40.2695 22.993C40.3415 22.4857 40.8109 22.1323 41.3182 22.2042C41.8255 22.2757 42.1789 22.7455 42.107 23.2528C39.6718 40.478 24.294 47.8177 24.139 47.89C24.0141 47.9465 23.8803 47.9755 23.7469 47.9755Z" fill="#59C2B9"/>
<path d="M46.2674 25.3485C43.1958 25.3485 40.3077 24.1526 38.1358 21.9814C35.9635 19.8099 34.7676 16.9227 34.7676 13.8518C34.7676 10.7808 35.9639 7.8936 38.1358 5.72208C40.3077 3.55056 43.1958 2.35498 46.2674 2.35498C49.3391 2.35498 52.2272 3.55094 54.3991 5.72208C56.5714 7.8936 57.7673 10.7808 57.7673 13.8518C57.7673 16.9227 56.571 19.8099 54.3991 21.9814C52.2268 24.1526 49.3391 25.3485 46.2674 25.3485ZM46.2674 4.2106C40.9496 4.2106 36.6236 8.53547 36.6236 13.8514C36.6236 19.1673 40.95 23.4921 46.2674 23.4921C51.5849 23.4921 55.9113 19.1677 55.9113 13.8518C55.9113 8.53585 51.5849 4.2106 46.2674 4.2106Z" fill="#59C2B9"/>
<path d="M43.3518 18.3423C43.1008 18.3423 42.851 18.2409 42.6685 18.0422L40.2155 15.3742C39.8687 14.9968 39.8934 14.4099 40.2704 14.063C40.6474 13.7162 41.2348 13.7409 41.5816 14.1179L43.4272 16.1251L51.0337 9.58543C51.4223 9.25135 52.0081 9.29543 52.3422 9.68403C52.6762 10.0726 52.6322 10.6584 52.2436 10.9929L43.9565 18.118C43.7814 18.268 43.566 18.3423 43.3518 18.3423Z" fill="#59C2B9"/>
<path d="M24.2474 32.0413C21.4379 32.0413 19.1523 29.7557 19.1523 26.9462C19.1523 24.1367 21.4379 21.8511 24.2474 21.8511C27.057 21.8511 29.3425 24.1367 29.3425 26.9462C29.3425 29.7557 27.0566 32.0413 24.2474 32.0413ZM24.2474 23.7075C22.4614 23.7075 21.0083 25.1605 21.0083 26.9466C21.0083 28.7326 22.4614 30.1857 24.2474 30.1857C26.0335 30.1857 27.4865 28.7326 27.4865 26.9466C27.4865 25.1605 26.0331 23.7075 24.2474 23.7075Z" fill="#59C2B9"/>
<path d="M25.415 38.2443H22.592C22.1195 38.2443 21.722 37.8889 21.6698 37.4191L21.4405 35.3648C20.9034 35.1858 20.3857 34.9561 19.8919 34.6773L18.322 35.9316C17.9528 36.2267 17.4207 36.1973 17.0866 35.8628L15.0903 33.8664C14.7562 33.5324 14.7264 33.0003 15.0214 32.631L16.3423 30.9784C16.0898 30.4847 15.8853 29.97 15.7302 29.4379L13.706 29.2121C13.2362 29.1595 12.8809 28.7624 12.8809 28.2899V25.4669C12.8809 24.994 13.2362 24.5969 13.706 24.5447L15.7723 24.3142C15.9405 23.7709 16.1609 23.2466 16.4308 22.7455L15.1935 21.1973C14.8985 20.828 14.9279 20.296 15.2623 19.9619L17.2587 17.9655C17.5928 17.6311 18.1248 17.6017 18.4941 17.8967L20.0415 19.1333C20.572 18.8467 21.1284 18.6167 21.7053 18.4446L21.9134 16.5813C21.966 16.1115 22.3631 15.7561 22.8356 15.7561H25.6586C26.1311 15.7561 26.5286 16.1115 26.5808 16.5813L26.7888 18.4446C27.3971 18.6259 27.9821 18.8719 28.5381 19.18L29.9286 18.0688C30.2978 17.7737 30.8299 17.8031 31.164 18.1376L33.1603 20.134C33.4944 20.468 33.5242 21.0005 33.2291 21.3694L32.0896 22.7954C32.394 23.368 32.6325 23.9697 32.8038 24.5942L34.5446 24.7883C35.0144 24.8409 35.3697 25.238 35.3697 25.7105V28.5335C35.3697 29.0064 35.0144 29.4035 34.5446 29.4557L32.6956 29.6622C32.5022 30.2646 32.2455 30.8423 31.9276 31.3902L33.0571 32.8035C33.3521 33.1728 33.3227 33.7048 32.9883 34.0389L30.9919 36.0353C30.6578 36.3693 30.1254 36.3991 29.7565 36.1041L28.2238 34.8791C27.6878 35.1483 27.1283 35.3613 26.5499 35.5164L26.3376 37.4195C26.285 37.8889 25.8879 38.2443 25.415 38.2443ZM23.4221 36.3883H24.5848L24.7782 34.6545C24.8234 34.2481 25.1297 33.919 25.5318 33.8448C26.35 33.6936 27.1279 33.3997 27.8433 32.9717C28.1754 32.773 28.5965 32.8012 28.8993 33.0432L30.2665 34.136L31.0886 33.3139L30.0647 32.0325C29.8091 31.7127 29.7932 31.263 30.026 30.9258C30.5171 30.2144 30.8678 29.4294 31.0688 28.5923C31.1601 28.2122 31.4799 27.9303 31.8681 27.887L33.5133 27.7034V26.5406L31.9458 26.3659C31.5414 26.3206 31.2138 26.0175 31.1373 25.6181C30.973 24.7597 30.652 23.948 30.1838 23.2068C29.9726 22.8723 29.9966 22.4408 30.2433 22.1319L31.2606 20.859L30.4386 20.0369L29.1916 21.0337C28.8776 21.2847 28.4372 21.3048 28.1016 21.0836C27.3785 20.6072 26.5843 20.2728 25.741 20.0903C25.3516 20.006 25.0593 19.6823 25.0152 19.2864L24.8284 17.6125H23.6657L23.479 19.2864C23.4349 19.6823 23.1426 20.006 22.7532 20.0903C21.9377 20.267 21.1671 20.586 20.4626 21.038C20.1274 21.253 19.6928 21.2305 19.3819 20.9819L17.9837 19.8644L17.1616 20.6865L18.2795 22.0851C18.5277 22.396 18.5505 22.8306 18.3359 23.1654C17.9002 23.8452 17.5877 24.588 17.4079 25.3729C17.3198 25.7576 16.9985 26.0442 16.6064 26.0882L14.7369 26.297V27.4598L16.5758 27.6651C16.9741 27.7095 17.2989 28.0046 17.3813 28.3966C17.544 29.1723 17.8364 29.9101 18.2493 30.5887C18.4519 30.9216 18.4249 31.3458 18.1817 31.6505L16.99 33.1418L17.812 33.9639L19.2431 32.8201C19.5594 32.5672 20.0036 32.5487 20.34 32.7749C21.009 33.2246 21.7432 33.5521 22.5216 33.7489C22.8967 33.8436 23.1735 34.1611 23.2164 34.5458L23.4221 36.3883Z" fill="#59C2B9"/>
</svg>
