<svg width="54" height="54" viewBox="0 0 54 54" fill="none" xmlns="http://www.w3.org/2000/svg">
<path d="M7.9759 11.4353H3.28178C1.88178 11.4353 0.646484 12.5882 0.646484 14.0706C0.646484 15.5529 1.79943 16.7059 3.28178 16.7059H7.9759C8.47001 16.7059 8.79943 16.3765 8.79943 15.8824V14.8941H10.1994C10.9406 14.8941 11.6818 15.3882 11.8465 16.1294L17.2818 38.5294C17.6112 40.0118 18.9288 41.0824 20.4935 41.0824H50.3053C51.1288 41.0824 51.7877 41.7412 51.7877 42.5647C51.7877 43.3882 51.1288 44.0471 50.3053 44.0471H14.3994C13.9053 44.0471 13.5759 44.3765 13.5759 44.8706C13.5759 45.3647 13.9053 45.6941 14.3994 45.6941H22.3053V47.8353C21.1524 48.1647 20.2465 49.3177 20.2465 50.553C20.2465 52.1177 21.5641 53.4353 23.1288 53.4353C24.6935 53.4353 26.0112 52.1177 26.0112 50.553C26.0112 49.2353 25.1053 48.1647 23.9524 47.8353V45.6941H44.7053V47.8353C43.5524 48.1647 42.6465 49.3177 42.6465 50.553C42.6465 52.1177 43.9641 53.4353 45.5288 53.4353C47.0935 53.4353 48.4112 52.1177 48.4112 50.553C48.4112 49.2353 47.5053 48.1647 46.3524 47.8353V45.6941H50.223C51.9524 45.6941 53.3524 44.2941 53.3524 42.5647C53.3524 41.1647 52.3641 39.9294 51.0465 39.6L53.023 20.8235C53.27 18.8471 51.7053 17.2 49.7288 17.2H44.2935C43.7994 17.2 43.47 17.5294 43.47 18.0235C43.47 18.5177 43.7994 18.8471 44.2935 18.8471H49.7288C50.7171 18.8471 51.4582 19.6706 51.3759 20.6588L49.3994 39.353H46.5171V30.9529C46.5171 30.4588 46.1877 30.1294 45.6935 30.1294C45.1994 30.1294 44.87 30.4588 44.87 30.9529V39.353H39.7641V34.5765C39.7641 34.0824 39.4347 33.753 38.9406 33.753C38.4465 33.753 38.1171 34.0824 38.1171 34.5765V39.353H31.1994V32.3529C31.1994 31.8588 30.87 31.5294 30.3759 31.5294C29.8818 31.5294 29.5524 31.8588 29.5524 32.3529V39.353H24.1171V36.8C24.1171 36.3059 23.7877 35.9765 23.2935 35.9765C22.7994 35.9765 22.47 36.3059 22.47 36.8V39.353C22.3877 39.353 20.3288 39.353 20.4112 39.353C19.67 39.353 19.0112 38.8588 18.8465 38.1177L14.07 18.6824H26.1759C26.67 18.6824 26.9994 18.3529 26.9994 17.8588C26.9994 17.3647 26.67 17.0353 26.1759 17.0353H13.7406L13.4112 15.7177C12.9994 14.2353 11.6818 13.2471 10.1994 13.2471H8.79943V12.2588C8.79943 11.7647 8.38766 11.4353 7.9759 11.4353ZM24.3641 50.4706C24.3641 51.1294 23.7877 51.7059 23.1288 51.7059C22.47 51.7059 21.8935 51.1294 21.8935 50.4706C21.8935 49.8118 22.47 49.2353 23.1288 49.2353C23.7877 49.2353 24.3641 49.7294 24.3641 50.4706ZM46.8465 50.4706C46.8465 51.1294 46.27 51.7059 45.6112 51.7059C44.9524 51.7059 44.3759 51.1294 44.3759 50.4706C44.3759 49.8118 44.9524 49.2353 45.6112 49.2353C46.27 49.2353 46.8465 49.7294 46.8465 50.4706ZM7.15237 14.9765H3.28178C2.78766 14.9765 2.29354 14.5647 2.29354 13.9882C2.29354 13.4118 2.70531 13 3.28178 13H7.15237V14.9765Z" fill="#EBAF3D"/>
<path d="M35.2342 0.646973C29.7166 0.646973 25.2695 5.09403 25.2695 10.6117C25.2695 16.1293 29.7166 20.5764 35.2342 20.5764C40.7519 20.5764 45.1989 16.1293 45.1989 10.6117C45.1989 5.17638 40.7519 0.646973 35.2342 0.646973ZM35.2342 18.9293C30.6225 18.9293 26.9166 15.2234 26.9166 10.6117C26.9166 6.08227 30.7048 2.29403 35.2342 2.29403C39.7636 2.29403 43.5519 5.99991 43.5519 10.6117C43.5519 15.2234 39.846 18.9293 35.2342 18.9293Z" fill="#EBAF3D"/>
<path d="M38.1178 10.1998C38.5296 9.7057 38.7766 9.04688 38.7766 8.3057C38.7766 6.65864 37.459 5.25864 35.7296 5.25864H34.906V4.68217C34.906 4.18805 34.5766 3.85864 34.0825 3.85864C33.5884 3.85864 33.259 4.18805 33.259 4.68217V5.25864C33.0943 5.25864 31.1178 5.25864 31.2825 5.25864C30.7884 5.25864 30.459 5.58805 30.459 6.08217C30.459 6.57629 30.7884 6.9057 31.2825 6.9057H32.0237C32.0237 6.98805 32.0237 14.3175 32.0237 14.0704H31.2825C30.7884 14.0704 30.459 14.3998 30.459 14.8939C30.459 15.3881 30.7884 15.7175 31.2825 15.7175H32.8472H33.259V16.3763C33.259 16.8704 33.5884 17.1998 34.0825 17.1998C34.5766 17.1998 34.906 16.8704 34.906 16.3763V15.7175H36.4707C38.1178 15.7175 39.5178 14.3998 39.5178 12.6704C39.5178 11.6822 39.0237 10.7763 38.1178 10.1998ZM37.1296 8.3057C37.1296 9.04688 36.4707 9.7057 35.7296 9.7057H33.5884V6.98805H35.7296C36.5531 6.98805 37.1296 7.64688 37.1296 8.3057ZM36.5531 14.0704H33.6707V11.3528C34.0002 11.3528 36.6355 11.3528 36.5531 11.3528C37.2943 11.3528 37.9531 11.9292 37.9531 12.7528C37.8707 13.4116 37.3766 14.0704 36.5531 14.0704Z" fill="#EBAF3D"/>
<path d="M45.3638 26.0117C46.7638 26.0117 47.8344 24.9411 47.8344 23.5411C47.8344 22.1411 46.7638 21.0706 45.3638 21.0706C43.9638 21.0706 42.8932 22.1411 42.8932 23.5411C42.8932 23.8706 42.9755 24.2 43.0579 24.5294L40.2579 26.8353C39.8461 26.5059 39.352 26.3411 38.7755 26.3411C38.0344 26.3411 37.2932 26.7529 36.8814 27.247L32.4344 24.5294C32.4344 24.5294 32.4344 24.5294 32.352 24.5294C32.352 23.2117 31.2814 22.0588 29.8814 22.0588C28.4814 22.0588 27.4108 23.1294 27.4108 24.5294C27.4108 24.7764 27.4932 25.1059 27.5755 25.3529L24.1991 29.1411C23.8696 28.9764 23.5402 28.9764 23.2108 28.9764C21.8108 28.9764 20.7402 30.047 20.7402 31.447C20.7402 32.847 21.8108 33.9176 23.2108 33.9176C24.6108 33.9176 25.6814 32.847 25.6814 31.447C25.6814 31.0353 25.5991 30.6235 25.352 30.2941L28.6461 26.5882C29.0579 26.8353 29.4696 26.9176 29.8814 26.9176C30.6226 26.9176 31.3638 26.5882 31.7755 26.0117L36.3049 28.8117C36.3049 30.1294 37.4579 31.2 38.7755 31.2C40.1755 31.2 41.2461 30.1294 41.2461 28.7294C41.2461 28.5647 41.2461 28.3176 41.1638 28.1529L44.2108 25.6823C44.5402 25.847 44.8696 26.0117 45.3638 26.0117ZM23.1285 32.1882C22.6344 32.1882 22.3049 31.8588 22.3049 31.3647C22.3049 30.8706 22.6344 30.5411 23.1285 30.5411C23.6226 30.5411 23.952 30.8706 23.952 31.3647C23.952 31.7764 23.6226 32.1882 23.1285 32.1882ZM29.8814 25.2706C29.3873 25.2706 29.0579 24.9411 29.0579 24.447C29.0579 23.9529 29.3873 23.6235 29.8814 23.6235C30.3755 23.6235 30.7049 23.9529 30.7049 24.447C30.7049 24.8588 30.2932 25.2706 29.8814 25.2706ZM45.3638 22.7176C45.8579 22.7176 46.1873 23.047 46.1873 23.5411C46.1873 24.0353 45.8579 24.3647 45.3638 24.3647C44.8696 24.3647 44.5402 24.0353 44.5402 23.5411C44.5402 23.047 44.8696 22.7176 45.3638 22.7176ZM38.7755 29.5529C38.2814 29.5529 37.952 29.2235 37.952 28.7294C37.952 28.2353 38.2814 27.9058 38.7755 27.9058C39.2696 27.9058 39.5991 28.2353 39.5991 28.7294C39.5991 29.1411 39.1873 29.5529 38.7755 29.5529Z" fill="#EBAF3D"/>
</svg>
