<svg width="41" height="37" viewBox="0 0 41 37" fill="none" xmlns="http://www.w3.org/2000/svg">
<path d="M39.7177 2.99592C39.7177 2.84612 39.5679 2.84612 39.5679 2.69632C38.9683 1.94735 38.3688 1.34816 37.6194 0.898775C37.1698 6.44122 33.4228 10.9351 28.1771 13.182C32.3737 10.7853 35.2214 6.59102 35.5211 1.79755C35.5211 1.64775 35.5211 1.49796 35.5211 1.19837C35.5211 0.748979 35.5211 0.449387 35.5211 0C35.3713 0 35.2214 0 35.0715 0C34.9216 0 34.7718 0 34.6219 0C34.472 0 34.3221 0 34.1722 0H30.2754H6.44476C5.99513 0 5.54549 0 5.09586 0.149796C4.94598 0.149796 4.94598 0.149796 4.7961 0.299592C4.7961 0.299592 4.7961 0.299592 4.64623 0.299592H4.49635C4.49635 0.299592 4.49635 0.299592 4.34647 0.299592C4.34647 0.299592 4.34647 0.299592 4.19659 0.299592C4.19659 0.299592 4.19659 0.299592 4.04671 0.299592C3.89683 0.299592 3.89683 0.299592 3.74696 0.449387C3.74696 0.449387 3.74696 0.449387 3.59708 0.449387C3.4472 0.449387 3.4472 0.599183 3.29732 0.599183C2.99756 1.04857 2.69781 1.34816 2.24817 1.49796C2.0983 1.64775 2.0983 1.79755 1.94842 1.79755L1.79854 1.94735C1.79854 1.94735 1.79854 1.94735 1.79854 2.09714L1.64866 2.24694C1.64866 2.24694 1.64866 2.24694 1.64866 2.39673C1.64866 2.39673 1.49878 2.54653 1.49878 2.69632C1.49878 2.69632 1.49878 2.69632 1.49878 2.84612C1.04915 2.99592 0.899269 3.14571 0.899269 3.29551C0.299756 4.19428 0.149878 5.09306 0 6.14163C0 6.29142 0 6.44122 0 6.59102C0 6.74081 0 6.89061 0 7.0404C0 7.1902 0 7.33999 0 7.33999C0 7.48979 0 7.48979 0 7.63959C0 7.63959 0 7.63959 0 7.78938C0 7.93918 0 7.93918 0 8.08897V8.23877C0 8.38857 0 8.38857 0 8.53836V8.68816V8.83795C0 8.83795 0 8.98775 0.149878 8.98775V9.13754C0.149878 9.28734 0.299756 9.43714 0.299756 9.58693L9.74208 25.9147L14.2384 33.5543C15.8871 35.8012 17.9854 36.9996 20.3834 36.9996C20.5333 36.9996 20.6832 36.9996 20.8331 36.9996C20.983 36.9996 21.1328 36.9996 21.1328 36.9996C21.2827 36.9996 21.2827 36.9996 21.4326 36.9996C21.4326 36.9996 21.4326 36.9996 21.5825 36.9996C21.5825 36.9996 21.7323 36.9996 21.8822 36.9996H22.0321C22.182 36.9996 22.182 36.9996 22.3319 36.8498H22.4817H22.6316C22.7815 36.8498 22.7815 36.7 22.9314 36.7C23.2311 36.5502 23.381 36.5502 23.5309 36.4004L23.6808 36.2506C23.6808 36.2506 23.6808 36.2506 23.8306 36.2506L23.9805 36.1008C23.9805 36.1008 24.1304 36.1008 24.1304 35.951L24.2803 35.8012L24.4302 35.6514L24.58 35.5016L24.7299 35.3518L24.8798 35.202L25.0297 35.0522C25.0297 35.0522 25.0297 34.9024 25.1795 34.9024L25.3294 34.7526C25.3294 34.7526 25.3294 34.6028 25.4793 34.6028C25.4793 34.453 25.6292 34.3032 25.6292 34.3032L31.4744 24.4167C29.526 25.0159 27.5776 25.3155 25.4793 25.3155C25.3294 25.3155 25.1795 25.3155 25.0297 25.3155H24.8798C24.7299 25.3155 24.7299 25.3155 24.58 25.3155H24.4302C24.2803 25.3155 24.2803 25.3155 24.1304 25.3155H23.9805C23.8306 25.3155 23.8306 25.3155 23.6808 25.3155H23.5309C23.381 25.3155 23.381 25.3155 23.2311 25.3155H23.0812C22.9314 25.3155 22.7815 25.3155 22.6316 25.3155H22.4817C22.3319 25.3155 22.3319 25.3155 22.182 25.3155H22.0321C21.8822 25.3155 21.8822 25.3155 21.7323 25.3155H21.5825C21.5825 25.3155 21.4326 25.3155 21.2827 25.3155C21.2827 25.3155 21.1328 25.3155 20.983 25.3155C20.8331 25.3155 20.8331 25.3155 20.6832 25.3155H20.5333C20.5333 25.3155 20.3834 25.3155 20.2336 25.3155H20.0837C19.9338 25.3155 19.7839 25.1657 19.634 25.1657C19.634 25.1657 19.4842 25.1657 19.3343 25.1657H19.1844C19.1844 25.1657 19.0345 25.1657 18.8847 25.0159H18.7348C18.5849 25.0159 18.5849 25.0159 18.435 24.8661H18.2851C18.2851 24.8661 18.1353 24.8661 17.9854 24.7163H17.8355C17.6856 24.7163 17.6856 24.7163 17.5358 24.5665C17.5358 24.5665 17.5358 24.5665 17.3859 24.5665C17.0861 23.3681 16.7864 23.2183 16.4866 23.0686C16.4866 23.0686 16.4866 23.0686 16.3367 23.0686C16.1868 23.0686 16.1868 22.9188 16.037 22.9188C16.037 22.9188 16.037 22.9188 15.8871 22.9188C15.7372 22.9188 15.7372 22.769 15.5873 22.769C15.5873 22.769 15.5873 22.769 15.4375 22.769C15.2876 22.769 15.2876 22.6192 15.1377 22.6192C14.8379 22.1698 14.3883 21.8702 13.9387 21.5706C13.7888 21.5706 13.6389 21.4208 13.6389 21.4208C13.489 21.4208 13.489 21.271 13.3392 21.271C13.9387 21.5706 14.5382 21.8702 15.1377 22.1698C15.7372 22.3196 16.1868 22.4694 16.7864 22.769C16.7864 22.769 16.7864 22.769 16.9362 22.769C17.0861 22.769 17.236 22.9188 17.3859 22.9188C17.6856 23.0686 18.1353 23.0686 18.5849 23.2183C18.5849 23.2183 18.5849 23.2183 18.7348 23.2183C18.8847 23.2183 19.0345 23.2183 19.1844 23.3681H19.3343C19.4842 23.3681 19.6341 23.3681 19.7839 23.5179C19.7839 23.5179 19.7839 23.5179 19.9338 23.5179C20.0837 23.5179 20.3834 23.5179 20.5333 23.5179C20.5333 23.5179 20.5333 23.5179 20.6832 23.5179C20.8331 23.5179 20.983 23.5179 21.1328 23.5179H21.2827C21.4326 23.5179 21.5825 23.5179 21.7323 23.5179H21.8822C22.0321 23.5179 22.3319 23.5179 22.4817 23.5179C27.2778 23.5179 31.6243 21.7204 34.9216 18.5747L40.0175 9.73673C41.2165 7.78938 41.2165 5.24285 40.0175 3.29551C39.8676 3.14571 39.7177 2.99592 39.7177 2.99592ZM20.3834 21.271C19.4842 21.271 18.7348 20.8216 18.2851 20.0726L15.1377 14.8298L14.3883 13.4816C14.3883 13.4816 14.3883 13.3318 14.2384 13.3318C13.9387 12.5828 13.9387 11.8339 14.3883 11.0849C14.3883 11.0849 14.3883 10.9351 14.5382 10.9351C14.5382 10.9351 14.5382 10.7853 14.6881 10.7853C15.1377 10.1861 15.7372 9.88652 16.4866 9.88652H24.1304H24.2803H24.4302C24.58 9.88652 24.7299 9.88652 24.7299 10.0363C24.8798 10.0363 25.0297 10.1861 25.0297 10.1861C25.1795 10.1861 25.3294 10.3359 25.3294 10.4857C25.3294 10.4857 25.3294 10.6355 25.4793 10.6355L25.6292 10.7853C25.6292 10.7853 25.6292 10.9351 25.7791 10.9351L25.9289 11.0849C26.3786 11.8339 26.3786 12.7326 25.9289 13.4816L25.7791 14.3804L23.9805 17.5261L22.4817 20.0726C22.0321 20.8216 21.2827 21.271 20.3834 21.271Z" fill="#3147FF"/>
<path d="M39.8672 3.29523C39.2677 2.24666 38.5183 1.49768 37.619 0.8985C37.0195 7.18992 32.3733 12.283 25.9285 13.9307L22.4813 20.0724C22.0317 20.8213 21.2823 21.2707 20.383 21.2707C19.4837 21.2707 18.7343 20.8213 18.2847 20.0724L14.3879 13.4813C14.3879 13.4813 14.3879 13.3316 14.238 13.3316C8.84237 10.9348 4.94554 5.99156 4.79566 0.299316C4.34602 0.449112 3.74651 0.598908 3.29688 0.8985C3.29688 1.49768 3.29688 2.24666 3.29688 2.99564C3.29688 14.3801 11.8399 23.5177 22.3314 23.5177C27.1275 23.5177 31.474 21.7201 34.7713 18.5744L39.8672 9.73645C41.0662 7.78911 41.0662 5.24258 39.8672 3.29523Z" fill="#3147FF"/>
<path d="M25.7792 14.3804C31.4746 12.2833 35.5213 7.1902 35.5213 1.34816C35.5213 0.898775 35.5213 0.599183 35.5213 0.149796C35.0717 0 34.6221 0 34.1724 0H6.44495C5.69556 0 4.94617 0.149796 4.19678 0.449387C4.19678 0.748979 4.19678 1.04857 4.19678 1.34816C4.19678 7.63959 8.843 13.0322 15.1379 14.8298L14.3885 13.4816C13.9389 12.7326 13.9389 11.8339 14.3885 11.0849C14.8381 10.3359 15.7374 9.88652 16.4868 9.88652H24.1306C25.0299 9.88652 25.7792 10.3359 26.2289 11.0849C26.6785 11.8339 26.6785 12.7326 26.2289 13.4816L25.7792 14.3804Z" fill="#3147FF"/>
<path d="M39.8672 3.29553C39.7173 3.14574 39.5674 2.84615 39.5674 2.69635C38.818 13.3319 31.0244 21.5706 21.4321 21.5706C11.6901 21.5706 3.74651 12.8825 3.29688 2.09717C3.29688 2.39676 3.29688 2.69635 3.29688 2.99594C3.29688 14.3804 11.8399 23.518 22.3314 23.518C27.1275 23.518 31.474 21.7204 34.7713 18.5747L39.8672 9.73675C41.0662 7.78941 41.0662 5.24288 39.8672 3.29553Z" fill="#3147FF"/>
<path d="M12.8896 20.8213C13.1894 27.1127 16.187 32.805 20.9831 36.9992C23.0814 36.8494 24.8799 35.6511 25.9291 33.8535L31.4745 24.4164C29.5261 25.0156 27.5777 25.3152 25.4794 25.3152C20.6833 25.3152 16.3368 23.6674 12.8896 20.8213Z" fill="#3147FF"/>
<path d="M37.6196 0.898438C37.02 7.18986 32.3738 12.2829 25.9291 13.9307L22.4819 20.0723C22.0322 20.8213 21.2828 21.2707 20.3836 21.2707C19.4843 21.2707 18.7349 20.8213 18.2853 20.0723L14.3884 13.4813C14.3884 13.4813 14.3884 13.3315 14.2386 13.3315C14.0887 13.1817 13.7889 13.0319 13.4892 12.8821C13.0395 14.6797 12.8896 16.627 12.8896 18.5743C12.8896 19.4731 12.8896 20.2221 13.0395 20.9711C15.7373 22.6188 19.0347 23.5176 22.332 23.5176C27.1281 23.5176 31.4746 21.7201 34.7719 18.5743L39.8677 9.73639C41.0668 7.78904 41.0668 5.24252 39.8677 3.29517C39.2682 2.2466 38.5188 1.49762 37.6196 0.898438Z" fill="#3147FF"/>
<path d="M14.3881 11.0849C14.3881 10.9351 14.5379 10.9351 14.5379 10.7854C10.4912 9.88658 6.89415 7.48984 4.49609 4.19434C5.69512 9.28739 9.74183 13.3319 15.1374 14.8298L14.3881 13.4817C13.9384 12.7327 13.9384 11.8339 14.3881 11.0849Z" fill="#3147FF"/>
<path d="M34.6215 0C33.1227 4.49388 29.5256 8.23877 24.8794 10.0363C25.4789 10.1861 25.9285 10.6355 26.2283 11.0849C26.6779 11.8339 26.6779 12.7326 26.2283 13.4816L25.7787 14.3804C31.474 12.2833 35.5207 7.1902 35.5207 1.34816C35.5207 0.898775 35.5207 0.599183 35.5207 0.149796C35.221 0 34.9212 0 34.6215 0Z" fill="#3147FF"/>
<path d="M14.3889 13.4813C14.3889 13.4813 14.3889 13.3316 14.239 13.3316C8.84337 10.9348 4.94654 5.99156 4.79666 0.299316C4.34702 0.299316 3.89739 0.598908 3.44775 0.748704C4.4969 8.23849 9.59276 14.3801 16.3373 16.6271L14.3889 13.4813Z" fill="#1F33DC"/>
<path d="M40.0179 3.44497C40.0179 3.44497 40.0179 3.29517 39.8681 3.29517C39.2685 2.2466 38.5191 1.49762 37.6199 0.898438C37.0204 7.18986 32.3741 12.2829 25.9294 13.9307L23.981 17.5258C31.6247 16.627 37.9196 10.9348 40.0179 3.44497Z" fill="#3147FF"/>
</svg>
