<svg width="54" height="55" viewBox="0 0 54 55" fill="none" xmlns="http://www.w3.org/2000/svg">
<g clip-path="url(#clip0_1_478)">
<path d="M47.2428 21.0256C45.3755 19.5992 43.1802 18.6638 40.8581 18.3049H40.8681V11.901C42.5984 11.0929 43.7074 9.35945 43.7158 7.44984V7.30018C43.7085 4.57856 41.5039 2.37394 38.7823 2.36666H38.6326C35.9109 2.37394 33.7064 4.57856 33.6991 7.30018V7.44984C33.7076 9.35945 34.8166 11.0929 36.5468 11.901V18.3183C34.1098 18.6909 31.8145 19.7009 29.8934 21.2458L12.2817 7.52968C13.0825 4.53162 11.3011 1.45204 8.30308 0.651216C5.30503 -0.149609 2.22545 1.63165 1.42462 4.62971C0.623798 7.62776 2.40506 10.7073 5.40322 11.5082C6.83675 11.891 8.36341 11.6915 9.65024 10.9528L26.9658 24.4326C23.7739 29.2482 23.8596 35.5279 27.182 40.2544L21.9125 45.524C21.4894 45.3893 21.049 45.3174 20.6051 45.311C18.0788 45.311 16.0309 47.3589 16.0309 49.8852C16.0309 52.4115 18.0788 54.4595 20.6051 54.4595C23.1314 54.4595 25.1792 52.4115 25.1792 49.8852C25.173 49.4414 25.1013 49.0007 24.9663 48.5778L30.1793 43.3649C36.3482 48.0768 45.1687 46.8958 49.8808 40.7269C54.5927 34.558 53.4116 25.7375 47.2428 21.0256ZM38.7157 39.4061L38.6991 39.4028C34.7158 39.3936 31.4942 36.1571 31.5035 32.1738C31.5126 28.1906 34.7492 24.969 38.7324 24.9781C42.7105 24.9873 45.9299 28.2157 45.9281 32.1938C45.928 36.1771 42.699 39.4061 38.7157 39.4061Z" fill="#FF7B57"/>
</g>
<defs>
<clipPath id="clip0_1_478">
<rect width="54" height="54" fill="white" transform="translate(0 0.459473)"/>
</clipPath>
</defs>
</svg>
