<svg width="56" height="56" viewBox="0 0 56 56" fill="none" xmlns="http://www.w3.org/2000/svg">
<g clip-path="url(#clip0_1_546)">
<path d="M4.97121 45.2284L7.36026 49.3721C7.85664 50.2444 8.57123 50.9303 9.41063 51.4298L17.9802 45.3539L17.9958 36.6309L9.44396 32.7779L0.878427 36.6002C0.876729 37.5649 1.12391 38.5302 1.6204 39.4025L4.97121 45.2284Z" fill="#0066DD"/>
<path d="M28.0794 19.2202L28.5265 7.85723L19.5472 4.39062C18.706 4.88711 17.989 5.5705 17.4894 6.44099L1.63037 33.8005C1.13091 34.6711 0.880116 35.6354 0.878418 36.6001L17.9958 36.6307L28.0794 19.2202Z" fill="#00AD3C"/>
<path d="M28.0797 19.2202L36.3053 14.7951L36.6647 4.42119C35.8253 3.92173 34.8609 3.67105 33.8651 3.66925L22.3498 3.64866C21.3538 3.64685 20.3886 3.92524 19.5474 4.39063L28.0797 19.2202Z" fill="#00831E"/>
<path d="M38.1008 36.6668L17.9957 36.6309L9.41064 51.4298C10.25 51.9292 11.2145 52.1799 12.2103 52.1817L43.8307 52.2382C44.8266 52.24 45.7919 51.9616 46.6331 51.4962L46.6664 41.5559L38.1008 36.6668Z" fill="#0084FF"/>
<path d="M46.6333 51.4963C47.4745 50.9998 48.1916 50.3164 48.691 49.4459L49.69 47.736L54.4665 39.4971C54.966 38.6266 55.2168 37.6622 55.2185 36.6974L45.3247 31.4915L38.1323 36.6669L46.6333 51.4963Z" fill="#FF4131"/>
<path d="M46.5959 20.187L38.7152 6.47889C38.2188 5.60648 37.5043 4.92055 36.6647 4.42109L28.0796 19.2201L38.1009 36.6667L55.1872 36.6972C55.1889 35.7325 54.9416 34.7672 54.4452 33.8948L46.5959 20.187Z" fill="#FFBA00"/>
</g>
<defs>
<clipPath id="clip0_1_546">
<rect width="54.3398" height="54.3398" fill="white" transform="translate(0.878418 0.773521)"/>
</clipPath>
</defs>
</svg>
