<svg width="54" height="55" viewBox="0 0 54 55" fill="none" xmlns="http://www.w3.org/2000/svg">
<path fill-rule="evenodd" clip-rule="evenodd" d="M12.9968 12.9458C14.3828 14.072 14.9025 13.9865 17.5058 13.8121L42.0443 12.3383C42.5652 12.3383 42.132 11.8197 41.9588 11.7331L37.884 8.78672C37.1033 8.18035 36.0627 7.48622 34.0692 7.65947L10.3092 9.39197C9.44291 9.47747 9.26966 9.9106 9.61504 10.2582L12.9968 12.9458Z" fill="white"/>
<path fill-rule="evenodd" clip-rule="evenodd" d="M14.4695 18.6642V44.483C14.4695 45.8701 15.1625 46.3898 16.724 46.3043L43.6914 44.744C45.2529 44.6585 45.4272 43.7033 45.4272 42.5761V16.9306C45.4272 15.8056 44.9941 15.1981 44.039 15.2847L15.8577 16.9306C14.8171 17.0172 14.4695 17.5381 14.4695 18.6642Z" fill="white"/>
<path fill-rule="evenodd" clip-rule="evenodd" d="M12.9969 12.9459C14.3829 14.072 14.9026 13.9865 17.5059 13.8121L42.0444 12.3384C42.5653 12.3384 42.1321 11.8197 41.9589 11.7331L37.8841 8.78673C37.1034 8.18035 36.0628 7.48623 34.0693 7.65948L10.3093 9.39198C9.44301 9.47748 9.26976 9.9106 9.61513 10.2582L12.9969 12.9459ZM14.4695 18.6642V44.483C14.4695 45.8701 15.1625 46.3899 16.724 46.3044L43.6914 44.744C45.2529 44.6585 45.4273 43.7034 45.4273 42.5761V16.9306C45.4273 15.8056 44.9941 15.1981 44.039 15.2847L15.8578 16.9306C14.8171 17.0172 14.4695 17.5381 14.4695 18.6642ZM41.0915 20.0491C41.2648 20.8299 41.0915 21.6095 40.3096 21.6972L39.0103 21.956V41.0169C37.8819 41.6232 36.8413 41.9697 35.975 41.9697C34.5868 41.9697 34.2391 41.5366 33.1996 40.2372L24.7003 26.8947V39.8041L27.3901 40.4105C27.3901 40.4105 27.3901 41.9697 25.22 41.9697L19.2384 42.3162C19.0651 41.9697 19.2384 41.1035 19.8448 40.9302L21.4063 40.4971V23.4297L19.2384 23.2565C19.064 22.4757 19.4971 21.3507 20.7121 21.263L27.1291 20.8299L35.9739 34.3467V22.3891L33.7183 22.1304C33.545 21.1764 34.238 20.4834 35.1054 20.3979L41.0915 20.0491ZM8.31238 7.05423L33.0264 5.23398C36.0616 4.9741 36.8424 5.14848 38.7493 6.53335L46.6389 12.0785C47.9405 13.0325 48.3748 13.2924 48.3748 14.3307V44.7417C48.3748 46.6475 47.6806 47.7747 45.2529 47.9469L16.5519 49.6805C14.7294 49.7671 13.862 49.5072 12.908 48.2945L7.09851 40.757C6.05788 39.3699 5.62476 38.3315 5.62476 37.1176V10.085C5.62476 8.52685 6.31888 7.22635 8.31238 7.05423Z" fill="#424242"/>
</svg>
