<svg width="54" height="54" viewBox="0 0 54 54" fill="none" xmlns="http://www.w3.org/2000/svg">
<g clip-path="url(#clip0_1_530)">
<path d="M0.593262 33.6061C0.910457 40.9597 11.3556 40.9597 11.6728 33.6061V28.0664H6.13301C4.66451 28.0687 3.25682 28.6531 2.21843 29.6915C1.18003 30.7299 0.595625 32.1376 0.593262 33.6061Z" fill="#E1185A"/>
<path d="M33.93 25.2295C35.3985 25.2248 36.8055 24.639 37.8435 23.6002C38.8815 22.5613 39.4662 21.1538 39.4697 19.6853V5.81356C39.1525 -1.54001 28.7074 -1.54448 28.3857 5.81356V19.7121C28.3963 21.1768 28.9847 22.578 30.0229 23.6112C31.0611 24.6444 32.4653 25.226 33.93 25.2295Z" fill="#2BB77D"/>
<path d="M20.009 28.0664C18.5405 28.0687 17.1328 28.6531 16.0944 29.6915C15.056 30.7299 14.4716 32.1376 14.4692 33.6061V47.4823C14.7864 54.8314 25.2315 54.8359 25.5487 47.4823V33.6061C25.5464 32.1376 24.962 30.7299 23.9236 29.6915C22.8852 28.6531 21.4775 28.0687 20.009 28.0664Z" fill="#E1185A"/>
<path d="M53.3462 19.6853C53.0245 12.3362 42.5839 12.3362 42.2622 19.6853V25.2295H47.8064C49.275 25.2248 50.682 24.639 51.72 23.6002C52.758 22.5613 53.3426 21.1538 53.3462 19.6853Z" fill="#2BB77D"/>
<path d="M6.13313 25.2295H20.0093C27.3584 24.9078 27.3673 14.4672 20.0093 14.1455H6.13313C-1.21597 14.4627 -1.22044 24.9078 6.13313 25.2295Z" fill="#33C6F1"/>
<path d="M33.93 41.9381H28.3857V47.4823C28.3893 48.9517 28.9745 50.3598 30.0135 51.3988C31.0525 52.4378 32.4606 53.023 33.93 53.0266C41.2835 52.7049 41.2791 42.2598 33.93 41.9381Z" fill="#EDB429"/>
<path d="M47.8064 28.0664H33.9302C26.5766 28.3836 26.5766 38.8287 33.9302 39.1459H47.8064C55.1555 38.8287 55.16 28.3836 47.8064 28.0664Z" fill="#EDB429"/>
<path d="M20.0093 0.269348C12.6557 0.591011 12.6557 11.0317 20.0093 11.3533H25.5491V5.8091C25.5455 4.34096 24.9607 2.93395 23.9226 1.89581C22.8845 0.857674 21.4775 0.272887 20.0093 0.269348Z" fill="#33C6F1"/>
</g>
<defs>
<clipPath id="clip0_1_530">
<rect width="52.7527" height="52.7527" fill="white" transform="translate(0.593262 0.269348)"/>
</clipPath>
</defs>
</svg>
