<svg width="54" height="55" viewBox="0 0 54 55" fill="none" xmlns="http://www.w3.org/2000/svg">
<g clip-path="url(#clip0_1_453)">
<path d="M49.1153 0.459473H4.88474C2.187 0.459473 0 2.64647 0 5.34421V49.5746C0 52.2725 2.187 54.4595 4.88474 54.4595H49.1151C51.813 54.4595 54 52.2725 54 49.5746V5.34421C54 2.64647 51.813 0.459473 49.1153 0.459473ZM16.7099 47.0866C16.7099 47.8718 16.0735 48.5082 15.2884 48.5082H9.23725C8.45213 48.5082 7.81572 47.8718 7.81572 47.0866V21.7206C7.81572 20.9355 8.45213 20.2991 9.23725 20.2991H15.2884C16.0735 20.2991 16.7099 20.9355 16.7099 21.7206V47.0866ZM12.2628 17.908C9.08797 17.908 6.51421 15.3342 6.51421 12.1594C6.51421 8.98455 9.08797 6.41078 12.2628 6.41078C15.4376 6.41078 18.0114 8.98455 18.0114 12.1594C18.0114 15.3342 15.4378 17.908 12.2628 17.908ZM48.3328 47.2011C48.3328 47.9229 47.7476 48.5082 47.0258 48.5082H40.5325C39.8107 48.5082 39.2255 47.9229 39.2255 47.2011V35.303C39.2255 33.5281 39.7461 27.5252 34.587 27.5252C30.5852 27.5252 29.7735 31.634 29.6105 33.4779V47.2011C29.6105 47.9229 29.0254 48.5082 28.3035 48.5082H22.0234C21.3016 48.5082 20.7163 47.9229 20.7163 47.2011V21.6061C20.7163 20.8843 21.3016 20.2991 22.0234 20.2991H28.3035C29.0253 20.2991 29.6105 20.8843 29.6105 21.6061V23.8191C31.0944 21.5923 33.2996 19.8735 37.9949 19.8735C48.3923 19.8735 48.3328 29.5872 48.3328 34.9245V47.2011Z" fill="#0077B7"/>
</g>
<defs>
<clipPath id="clip0_1_453">
<rect width="54" height="54" fill="white" transform="translate(0 0.459473)"/>
</clipPath>
</defs>
</svg>
