<svg width="54" height="55" viewBox="0 0 54 55" fill="none" xmlns="http://www.w3.org/2000/svg">
<g clip-path="url(#clip0_1_488)">
<path d="M45.7134 10.2915C42.2716 8.7123 38.5809 7.54877 34.7219 6.88231C34.6516 6.86944 34.5814 6.90161 34.5452 6.96584C34.0705 7.81012 33.5447 8.91142 33.1765 9.77711C29.026 9.15569 24.8967 9.15569 20.8313 9.77711C20.463 8.89223 19.9182 7.81012 19.4413 6.96584C19.4052 6.90372 19.3349 6.87155 19.2647 6.88231C15.4079 7.54655 11.7171 8.71008 8.27315 10.2915C8.24331 10.3043 8.21778 10.3258 8.2008 10.3536C1.20021 20.8124 -0.717635 31.0142 0.223146 41.0894C0.227365 41.1387 0.255103 41.1858 0.293388 41.2159C4.91218 44.6078 9.38638 46.667 13.7774 48.032C13.8476 48.0534 13.9221 48.0278 13.9668 47.9699C15.0054 46.5514 15.9313 45.0558 16.7252 43.4829C16.772 43.3908 16.7273 43.2815 16.6316 43.2451C15.1629 42.688 13.7645 42.0087 12.4192 41.2374C12.3128 41.1753 12.3043 41.0231 12.4023 40.9502C12.6853 40.7381 12.9685 40.5173 13.2388 40.2945C13.2878 40.2538 13.3559 40.2452 13.4134 40.2709C22.2508 44.3058 31.8184 44.3058 40.5516 40.2709C40.609 40.243 40.6772 40.2517 40.7282 40.2923C40.9986 40.5151 41.2817 40.738 41.5669 40.9501C41.6648 41.023 41.6583 41.1752 41.552 41.2373C40.2068 42.0237 38.8084 42.6879 37.3376 43.2429C37.2418 43.2793 37.1992 43.3907 37.2462 43.4828C38.0571 45.0535 38.983 46.5491 40.0025 47.9677C40.0451 48.0277 40.1217 48.0534 40.1919 48.0319C44.6042 46.667 49.0784 44.6077 53.6972 41.2158C53.7377 41.1858 53.7632 41.1408 53.7674 41.0915C54.8934 29.4434 51.8815 19.3253 45.7834 10.3557C45.7687 10.3258 45.7431 10.3043 45.7134 10.2915ZM18.0451 34.9546C15.3845 34.9546 13.1921 32.512 13.1921 29.512C13.1921 26.5122 15.3419 24.0694 18.0451 24.0694C20.7695 24.0694 22.9407 26.5336 22.8981 29.512C22.8981 32.512 20.7482 34.9546 18.0451 34.9546ZM35.9882 34.9546C33.3277 34.9546 31.1353 32.512 31.1353 29.512C31.1353 26.5122 33.2851 24.0694 35.9882 24.0694C38.7127 24.0694 40.8838 26.5336 40.8413 29.512C40.8413 32.512 38.7128 34.9546 35.9882 34.9546Z" fill="#5865F2"/>
</g>
<defs>
<clipPath id="clip0_1_488">
<rect width="54" height="54" fill="white" transform="translate(0 0.459473)"/>
</clipPath>
</defs>
</svg>
