<svg width="55" height="55" viewBox="0 0 55 55" fill="none" xmlns="http://www.w3.org/2000/svg">
<g clip-path="url(#clip0_1_398)">
<path fill-rule="evenodd" clip-rule="evenodd" d="M27.7632 0.0474854C42.7692 0.0474854 54.9331 12.2113 54.9331 27.2174C54.9331 42.2235 42.7692 54.3873 27.7632 54.3873C12.7571 54.3873 0.593262 42.2235 0.593262 27.2174C0.593262 12.2113 12.7571 0.0474854 27.7632 0.0474854Z" fill="#008DFF"/>
<path d="M13.0576 20.0418V30.8121C13.0682 33.2479 15.0572 35.2071 17.4823 35.1975H33.1825C33.6293 35.1975 33.988 34.8388 33.988 34.4026V23.6312C33.9784 21.1965 31.9895 19.2362 29.5633 19.2458H13.8632C13.4174 19.2458 13.0576 19.6045 13.0576 20.0418ZM34.9878 24.2425L41.4693 19.5079C42.0318 19.042 42.469 19.1588 42.469 20.0025V34.4408C42.469 35.4013 41.9352 35.2856 41.4693 34.9364L34.9878 30.2103V24.2425Z" fill="white"/>
</g>
<defs>
<clipPath id="clip0_1_398">
<rect width="54.3398" height="54.3398" fill="white" transform="translate(0.593262 0.0474854)"/>
</clipPath>
</defs>
</svg>
