<svg width="54" height="55" viewBox="0 0 54 55" fill="none" xmlns="http://www.w3.org/2000/svg">
<path d="M50.3778 14.5672C47.9634 10.4304 44.6884 7.15534 40.552 4.74119C36.415 2.32692 31.8985 1.12009 26.9996 1.12009C22.1012 1.12009 17.5833 2.32729 13.4471 4.74119C9.31036 7.15522 6.0355 10.4304 3.6211 14.5672C1.20708 18.7039 0 23.2212 0 28.1189C0 34.0022 1.71648 39.2927 5.1503 43.9915C8.58375 48.6908 13.0193 51.9425 18.4565 53.747C19.0894 53.8645 19.5579 53.7819 19.8625 53.5013C20.1673 53.2203 20.3195 52.8683 20.3195 52.447C20.3195 52.3767 20.3134 51.7441 20.3017 50.5486C20.2897 49.3531 20.284 48.3102 20.284 47.4203L19.4754 47.5602C18.9598 47.6546 18.3094 47.6947 17.5242 47.6833C16.7394 47.6724 15.9246 47.5901 15.081 47.4372C14.237 47.2856 13.4521 46.9341 12.7255 46.3833C11.9992 45.8325 11.4837 45.1116 11.1789 44.2216L10.8274 43.4126C10.593 42.874 10.2241 42.2757 9.72014 41.6199C9.21616 40.9634 8.70651 40.5184 8.19095 40.2841L7.94481 40.1079C7.78079 39.9908 7.6286 39.8496 7.48786 39.6857C7.34724 39.5218 7.24196 39.3578 7.17165 39.1935C7.10122 39.0291 7.15959 38.8943 7.34736 38.7885C7.53514 38.6828 7.8745 38.6314 8.36691 38.6314L9.06975 38.7365C9.53852 38.8304 10.1184 39.111 10.81 39.58C11.5013 40.0487 12.0695 40.658 12.5149 41.4076C13.0542 42.3688 13.704 43.1012 14.4661 43.6052C15.2275 44.1091 15.9953 44.3607 16.7685 44.3607C17.5418 44.3607 18.2097 44.3021 18.7724 44.1855C19.3345 44.0683 19.8619 43.8921 20.3543 43.6579C20.5652 42.0869 21.1395 40.8801 22.0767 40.0365C20.7409 39.8961 19.54 39.6847 18.4733 39.4036C17.4072 39.1221 16.3056 38.6653 15.169 38.0319C14.0319 37.3994 13.0886 36.6139 12.3388 35.6768C11.5889 34.7393 10.9735 33.5085 10.4934 31.9854C10.0131 30.4618 9.77284 28.7042 9.77284 26.7121C9.77284 23.8757 10.6988 21.4621 12.5504 19.4698C11.683 17.3374 11.7649 14.9469 12.7963 12.2985C13.476 12.0873 14.4839 12.2458 15.8197 12.7729C17.1557 13.3003 18.1338 13.7521 18.7552 14.1267C19.3765 14.5011 19.8743 14.8184 20.2494 15.0758C22.4295 14.4666 24.6792 14.162 26.9993 14.162C29.3194 14.162 31.5697 14.4666 33.7499 15.0758L35.0857 14.2324C35.9993 13.6697 37.078 13.154 38.3195 12.6853C39.5616 12.2167 40.5115 12.0877 41.168 12.2989C42.2223 14.9473 42.3162 17.3377 41.4486 19.4702C43.3001 21.4625 44.2264 23.8767 44.2264 26.7125C44.2264 28.7045 43.9853 30.4677 43.5057 32.003C43.0255 33.5386 42.4048 34.7682 41.6433 35.6945C40.881 36.6205 39.9316 37.3998 38.7951 38.0323C37.6584 38.6652 36.5563 39.122 35.4902 39.4035C34.4236 39.685 33.2227 39.8965 31.887 40.0371C33.1053 41.0914 33.7145 42.7555 33.7145 45.0288V52.446C33.7145 52.8674 33.861 53.2192 34.1544 53.5003C34.4473 53.7809 34.9099 53.8635 35.5428 53.7459C40.9807 51.9416 45.4162 48.6898 48.8496 43.9906C52.2825 39.2917 53.9996 34.0012 53.9996 28.1179C53.9984 23.2208 52.7907 18.7039 50.3778 14.5672Z" fill="black"/>
</svg>
