<svg width="57" height="57" viewBox="0 0 57 57" fill="none" xmlns="http://www.w3.org/2000/svg">
<path d="M1.61719 55.5404L5.41039 41.7084C3.06689 37.6645 1.83519 33.0647 1.83519 28.3668C1.84609 13.6409 13.8252 1.67267 28.5402 1.67267C35.6797 1.67267 42.3941 4.45217 47.4299 9.49886C52.4766 14.5456 55.2561 21.2491 55.2452 28.3886C55.2343 43.1035 43.2552 55.0826 28.5402 55.0826H28.5293C24.0603 55.0826 19.6676 53.9599 15.7654 51.8344L1.61719 55.5404Z" fill="url(#paint0_linear_1_497)"/>
<path d="M0.647461 56.5099L4.57146 42.1764C2.15166 37.9908 0.887261 33.2275 0.887261 28.3552C0.887261 13.1061 13.3024 0.701935 28.5515 0.701935C35.9525 0.701935 42.8958 3.59043 48.1169 8.81153C53.338 14.0435 56.2156 20.9868 56.2156 28.377C56.2047 43.6261 43.8005 56.0303 28.5515 56.0303H28.5406C23.9081 56.0303 19.3628 54.864 15.3189 52.6622L0.647461 56.5099ZM15.9947 47.6591L16.834 48.1605C20.3656 50.2533 24.4095 51.3651 28.5406 51.3651H28.5515C41.2281 51.3651 51.5395 41.0537 51.5395 28.377C51.5395 22.2403 49.1524 16.4633 44.8142 12.1142C40.476 7.76513 34.6991 5.37803 28.5624 5.37803C15.8748 5.37803 5.56336 15.6894 5.56336 28.3661C5.56336 32.7043 6.77326 36.9335 9.07316 40.5959L9.61816 41.4679L7.29646 49.9481L15.9947 47.6591Z" fill="url(#paint1_linear_1_497)"/>
<path fill-rule="evenodd" clip-rule="evenodd" d="M21.6299 16.7906C21.1067 15.6352 20.5617 15.6134 20.0712 15.5916C19.6679 15.5698 19.2101 15.5807 18.7414 15.5807C18.2836 15.5807 17.5315 15.7551 16.8993 16.4418C16.2671 17.1285 14.4795 18.8071 14.4795 22.2079C14.4795 25.6087 16.9538 28.9005 17.3026 29.3583C17.6514 29.8161 22.0877 37.021 29.1073 39.7896C34.9497 42.0895 36.1378 41.6317 37.4022 41.5227C38.6666 41.4137 41.4897 39.855 42.0674 38.2418C42.6451 36.6286 42.6451 35.2443 42.4707 34.9609C42.2963 34.6775 41.8385 34.5031 41.1409 34.1543C40.4542 33.8055 37.0534 32.1378 36.4212 31.9089C35.789 31.68 35.3312 31.5601 34.8625 32.2577C34.4047 32.9444 33.0749 34.5031 32.6716 34.9609C32.2683 35.4187 31.865 35.4841 31.1783 35.1353C30.4916 34.7865 28.2571 34.0562 25.6193 31.7018C23.5592 29.8706 22.1749 27.6034 21.7716 26.9167C21.3683 26.23 21.728 25.8485 22.0768 25.5106C22.382 25.2054 22.7635 24.704 23.1123 24.3007C23.4611 23.8974 23.5701 23.614 23.799 23.1453C24.0279 22.6875 23.9189 22.2842 23.7445 21.9354C23.5919 21.5757 22.2512 18.164 21.6299 16.7906Z" fill="white"/>
<defs>
<linearGradient id="paint0_linear_1_497" x1="28.431" y1="55.5449" x2="28.431" y2="1.66896" gradientUnits="userSpaceOnUse">
<stop stop-color="#20B038"/>
<stop offset="1" stop-color="#60D66A"/>
</linearGradient>
<linearGradient id="paint1_linear_1_497" x1="28.4316" y1="56.5099" x2="28.4316" y2="0.701935" gradientUnits="userSpaceOnUse">
<stop stop-color="#F9F9F9"/>
<stop offset="1" stop-color="white"/>
</linearGradient>
</defs>
</svg>
