<svg width="54" height="55" viewBox="0 0 54 55" fill="none" xmlns="http://www.w3.org/2000/svg">
<g clip-path="url(#clip0_1_439)">
<path d="M44.9121 10.8577C44.8748 10.5851 44.636 10.4343 44.4391 10.4178C44.2422 10.4014 40.3983 10.3429 40.3983 10.3429C40.3983 10.3429 37.1835 7.22075 36.8659 6.90298C36.5483 6.5852 35.928 6.6816 35.6872 6.75247C35.6836 6.75353 35.0839 6.93926 34.0717 7.2526C33.9029 6.70396 33.6538 6.03012 33.2987 5.35301C32.154 3.16938 30.4782 2.01355 28.4527 2.0106C28.4503 2.0106 28.4482 2.0106 28.4458 2.0106C28.3054 2.0106 28.1655 2.02378 28.0254 2.03654C27.9659 1.96482 27.9057 1.89374 27.8423 1.82592C26.9605 0.882082 25.8281 0.422238 24.4727 0.462C21.8562 0.536988 19.2519 2.42625 17.1395 5.78142C15.6525 8.14287 14.5228 11.1094 14.2015 13.4053C11.198 14.3355 9.09652 14.9863 9.05106 15.0006C7.53495 15.4763 7.48727 15.524 7.28847 16.9524C7.13796 18.0337 3.17139 48.7102 3.17139 48.7102L36.4187 54.4595L50.8283 50.8778C50.8283 50.8778 44.9494 11.1304 44.9121 10.8577ZM16.0641 12.8284C16.9631 8.62486 20.4853 2.31857 24.523 2.20244C25.1373 2.18958 25.6546 2.32437 26.0964 2.61514C25.3898 2.98207 24.7062 3.50941 24.0651 4.19707C22.4033 5.9797 21.1304 8.74762 20.6228 11.4167C19.0386 11.9073 17.4894 12.387 16.0641 12.8284ZM28.0869 9.10558C26.3452 9.64485 24.4437 10.2337 22.5362 10.8243C23.0732 8.76998 24.0897 6.72463 25.3389 5.38465C25.8036 4.8862 26.4537 4.32996 27.2234 4.01239C27.9476 5.52134 28.1044 7.66045 28.0869 9.10558ZM29.8261 8.56706C29.8068 7.24227 29.6486 5.39962 29.0315 3.80673C31.0165 4.18283 31.9939 6.42889 32.4064 7.76814C31.6414 8.00491 30.77 8.2747 29.8261 8.56706Z" fill="#95BF47"/>
<path d="M44.4392 10.4178C44.2423 10.4014 40.3984 10.3429 40.3984 10.3429C40.3984 10.3429 37.1836 7.22076 36.866 6.90298C36.7476 6.78443 36.587 6.72379 36.4197 6.69763L36.4205 54.4592L50.8284 50.8779C50.8284 50.8779 44.9496 11.1304 44.9122 10.8577C44.8749 10.5851 44.6361 10.4343 44.4392 10.4178Z" fill="#5E8E3E"/>
<path d="M28.4335 17.8268L26.7598 24.0875C26.7598 24.0875 24.893 23.2374 22.6797 23.3772C19.4345 23.5821 19.4001 25.6292 19.4324 26.1422C19.6092 28.9423 26.9754 29.5541 27.3894 36.1123C27.7152 41.2721 24.6526 44.8015 20.2397 45.0801C14.9442 45.4145 12.0283 42.2897 12.0283 42.2897L13.1504 37.5157C13.1504 37.5157 16.0849 39.7297 18.4339 39.5814C19.9682 39.4845 20.5164 38.2366 20.4608 37.354C20.2301 33.7014 14.2319 33.9166 13.8529 27.9151C13.534 22.864 16.8508 17.747 24.1695 17.2848C26.9894 17.1069 28.4335 17.8268 28.4335 17.8268Z" fill="white"/>
</g>
<defs>
<clipPath id="clip0_1_439">
<rect width="54" height="54" fill="white" transform="translate(0 0.459473)"/>
</clipPath>
</defs>
</svg>
