<svg width="54" height="55" viewBox="0 0 54 55" fill="none" xmlns="http://www.w3.org/2000/svg">
<g clip-path="url(#clip0_1_422)">
<path d="M39.8325 25.9771C40.2267 25.93 40.6043 25.9281 40.9512 25.9772C41.1521 25.5165 41.1866 24.7226 41.006 23.858C40.7375 22.5729 40.3741 21.7952 39.6231 21.9162C38.8721 22.0373 38.8444 22.9683 39.1129 24.2534C39.2639 24.9763 39.5329 25.5943 39.8325 25.9771Z" fill="black"/>
<path d="M33.3857 26.9941C33.9231 27.2299 34.2532 27.3862 34.3825 27.2496C34.4656 27.1643 34.4407 27.0018 34.3123 26.7923C34.0473 26.3594 33.5018 25.9204 32.923 25.6739C31.7394 25.1645 30.3281 25.3339 29.2392 26.1163C28.8798 26.3797 28.5388 26.7445 28.5877 26.9661C28.6035 27.0377 28.6572 27.0916 28.7835 27.1093C29.0798 27.1433 30.1156 26.6196 31.3085 26.5465C32.1508 26.495 32.8483 26.7583 33.3857 26.9941Z" fill="black"/>
<path d="M32.3048 27.6107C31.6051 27.7212 31.219 27.9519 30.9713 28.1665C30.7598 28.3514 30.6291 28.5556 30.6301 28.6994C30.6307 28.7677 30.6603 28.807 30.6836 28.8269C30.7155 28.855 30.7533 28.8706 30.7987 28.8706C30.9568 28.8706 31.3107 28.7287 31.3107 28.7287C32.2846 28.3801 32.927 28.4222 33.5637 28.4949C33.9155 28.5343 34.0817 28.5562 34.1588 28.4356C34.1816 28.4011 34.2093 28.326 34.1389 28.2119C33.9752 27.9458 33.2685 27.4964 32.3048 27.6107Z" fill="black"/>
<path d="M37.6555 29.8747C38.1306 30.1082 38.6538 30.0166 38.8242 29.67C38.9944 29.3234 38.7472 28.8533 38.2721 28.6198C37.7968 28.3864 37.2737 28.478 37.1034 28.8246C36.9331 29.171 37.1803 29.6412 37.6555 29.8747Z" fill="black"/>
<path d="M40.7102 27.2054C40.3242 27.1989 40.004 27.6227 39.9951 28.1521C39.9861 28.6813 40.2917 29.1159 40.6778 29.1224C41.0638 29.1289 41.384 28.7051 41.3929 28.1758C41.4019 27.6464 41.0963 27.2119 40.7102 27.2054Z" fill="black"/>
<path d="M14.7824 36.7503C14.6864 36.63 14.5285 36.6667 14.3759 36.7022C14.2692 36.7271 14.1483 36.7552 14.0158 36.7528C13.7319 36.7474 13.4914 36.6261 13.3564 36.4186C13.1806 36.1486 13.1908 35.746 13.3849 35.2849C13.4111 35.2229 13.4419 35.1538 13.4754 35.0785C13.7851 34.384 14.3032 33.2214 13.7215 32.1137C13.2836 31.28 12.5695 30.7607 11.7109 30.6517C10.8866 30.5473 10.038 30.8529 9.49682 31.4501C8.64284 32.3922 8.50942 33.6741 8.67448 34.1271C8.73502 34.293 8.82962 34.3389 8.89839 34.3483C9.04362 34.3679 9.25846 34.2621 9.39314 33.9001C9.40285 33.874 9.41571 33.8336 9.43175 33.7823C9.49165 33.5909 9.60334 33.2345 9.78623 32.9488C10.0068 32.6042 10.3503 32.3669 10.7535 32.2806C11.1642 32.1927 11.584 32.271 11.9355 32.5011C12.5336 32.8926 12.764 33.6256 12.5086 34.3251C12.3765 34.6867 12.1621 35.3784 12.2094 35.9466C12.305 37.0969 13.0124 37.5588 13.6481 37.6079C14.2661 37.6312 14.698 37.2844 14.8074 37.0307C14.8718 36.8808 14.8175 36.7894 14.7824 36.7503Z" fill="black"/>
<path d="M50.4505 34.6467C50.4268 34.5635 50.2738 34.0034 50.0632 33.3284C49.8525 32.6534 49.6346 32.1781 49.6346 32.1781C50.4791 30.9137 50.4942 29.7828 50.382 29.1427C50.262 28.3487 49.9315 27.6722 49.2654 26.9728C48.5993 26.2736 47.2369 25.5573 45.3222 25.0198C45.1032 24.9583 44.3811 24.7602 44.3176 24.7408C44.3127 24.6993 44.2648 22.3723 44.2211 21.3735C44.1894 20.6515 44.1275 19.5242 43.7777 18.4136C43.3607 16.9108 42.6345 15.5956 41.7279 14.7543C44.2298 12.1608 45.7915 9.30398 45.7878 6.85299C45.7806 2.1398 39.9922 0.713651 32.859 3.66741C32.8514 3.67057 31.3584 4.3037 31.3475 4.30908C31.3409 4.30254 28.6153 1.62817 28.5742 1.59242C20.4414 -5.50131 -4.98687 22.7629 3.14297 29.6275L4.91981 31.1326C4.45891 32.3265 4.27782 33.6944 4.42579 35.1652C4.61574 37.0545 5.59027 38.8655 7.16967 40.2649C8.66911 41.5933 10.6405 42.4341 12.5536 42.4326C15.7174 49.7232 22.9459 54.1958 31.4217 54.4474C40.5133 54.7176 48.1453 50.4515 51.3431 42.788C51.5523 42.2501 52.44 39.8267 52.44 37.6876C52.4399 35.5376 51.2245 34.6467 50.4505 34.6467ZM13.2526 40.3848C12.9765 40.4318 12.6945 40.4506 12.4105 40.4438C9.66453 40.3701 6.69843 37.898 6.40365 34.9662C6.07785 31.7257 7.73361 29.2317 10.6653 28.6404C11.0158 28.5698 11.4393 28.529 11.896 28.5527C13.5386 28.6426 15.9591 29.9039 16.5121 33.4822C17.0018 36.6515 16.2239 39.8781 13.2526 40.3848ZM10.186 26.702C8.36094 27.0568 6.75243 28.0911 5.76883 29.52C5.18084 29.0297 4.08565 28.0805 3.89222 27.7106C2.3219 24.7288 5.60609 18.9314 7.90025 15.6575C13.57 7.56627 22.4502 1.44212 26.5611 2.55313C27.2293 2.74224 29.4427 5.30861 29.4427 5.30861C29.4427 5.30861 25.3335 7.58853 21.5228 10.7666C16.3882 14.7203 12.5095 20.4665 10.186 26.702ZM20.6577 15.6244C22.6734 13.2951 25.1548 11.27 27.3776 10.133C27.4545 10.0936 27.5361 10.177 27.4943 10.2527C27.3179 10.5723 26.9781 11.2566 26.8703 11.7758C26.8535 11.8567 26.9417 11.9176 27.0098 11.8711C28.3927 10.9284 30.7983 9.91844 32.9083 9.7886C32.999 9.78302 33.0427 9.89924 32.9706 9.95461C32.6497 10.2007 32.2988 10.5412 32.0425 10.8859C31.9989 10.9445 32.0398 11.0289 32.1129 11.0294C33.5945 11.0399 35.6833 11.5585 37.0445 12.322C37.1367 12.3736 37.0711 12.5521 36.9681 12.5285C34.9084 12.0563 31.5366 11.6982 28.0342 12.5524C24.9075 13.3151 22.5211 14.4926 20.78 15.7589C20.6922 15.8229 20.5866 15.7067 20.6577 15.6244ZM50.5434 38.412C50.1486 40.804 49.1318 42.7453 47.4231 44.5312C46.383 45.6508 45.1202 46.6243 43.6755 47.3321C42.9082 47.7351 42.091 48.0839 41.2281 48.3657C34.7864 50.4696 28.1928 48.1566 26.0672 43.1895C25.8976 42.816 25.7542 42.4253 25.641 42.0164C24.7352 38.7432 25.5042 34.8161 27.908 32.3444C27.9082 32.3442 27.9077 32.3434 27.9078 32.3431C28.0561 32.1856 28.2072 32.0003 28.2072 31.767C28.2072 31.5719 28.0832 31.3661 27.9757 31.2203C27.1348 30.0005 24.2217 27.922 24.8065 23.8995C25.2263 21.0098 27.7536 18.9746 30.1099 19.0953C30.3089 19.1055 30.5082 19.1178 30.7069 19.1296C31.7281 19.19 32.6188 19.3209 33.4594 19.3561C34.8662 19.4168 36.1314 19.2123 37.6297 17.9638C38.1353 17.5426 38.5404 17.1774 39.2262 17.0612C39.2981 17.049 39.4774 16.9846 39.8358 17.0016C40.2015 17.0211 40.5498 17.1216 40.8627 17.3298C42.064 18.1292 42.2343 20.0652 42.2967 21.4814C42.332 22.2898 42.4299 24.2457 42.4633 24.8071C42.5397 26.091 42.8772 26.2721 43.56 26.4969C43.944 26.6232 44.3005 26.7175 44.8257 26.8649C46.4158 27.3114 47.3585 27.7643 47.9528 28.3461C48.3072 28.7097 48.472 29.0959 48.5229 29.4645C48.7105 30.8324 47.461 32.5221 44.1533 34.0573C40.5377 35.7355 36.1514 36.1604 33.1208 35.8228C32.8883 35.797 32.0619 35.7032 32.059 35.7029C29.6348 35.3763 28.2519 38.5093 29.7069 40.6557C30.6446 42.0391 33.1986 42.9393 35.754 42.9398C41.613 42.9406 46.1165 40.4386 47.7917 38.2776C47.8418 38.213 47.8467 38.2059 47.9257 38.0866C48.0081 37.9623 47.9402 37.8939 47.8375 37.9642C46.4688 38.9006 40.3896 42.6185 33.8871 41.5C33.8871 41.5 33.0969 41.3702 32.3756 41.0894C31.8024 40.8666 30.6029 40.3147 30.4571 39.0839C35.7049 40.7069 39.009 39.1727 39.009 39.1727C39.0686 39.1475 39.1098 39.0793 39.103 39.0116C39.0945 38.9284 39.0202 38.8677 38.9371 38.8763C38.9371 38.8763 34.6354 39.5131 30.5717 38.0253C31.0142 36.5867 32.1913 37.1063 33.9702 37.2498C37.1767 37.4409 40.0505 36.9725 42.1743 36.3629C44.0147 35.8346 46.432 34.7933 48.3094 33.3116C48.9428 34.7025 49.1664 36.2335 49.1664 36.2335C49.1664 36.2335 49.6566 36.1458 50.0662 36.3979C50.4533 36.6365 50.7372 37.1318 50.5434 38.412Z" fill="black"/>
</g>
<defs>
<clipPath id="clip0_1_422">
<rect width="54" height="54" fill="white" transform="translate(0 0.459473)"/>
</clipPath>
</defs>
</svg>
