<svg width="56" height="56" viewBox="0 0 56 56" fill="none" xmlns="http://www.w3.org/2000/svg">
<g clip-path="url(#clip0_1_516)">
<path d="M55.657 28.2951C55.657 41.9871 45.6254 53.3356 32.5121 55.3929V36.2244H38.9037L40.1199 28.2951H32.5121V23.1497C32.5121 20.9798 33.575 18.8657 36.9825 18.8657H40.4413V12.1151C40.4413 12.1151 37.3018 11.5794 34.3004 11.5794C28.0352 11.5794 23.9399 15.3768 23.9399 22.2517V28.2951H16.9749V36.2244H23.9399V55.3929C10.8265 53.3356 0.794922 41.9871 0.794922 28.2951C0.794922 13.1459 13.0767 0.864105 28.226 0.864105C43.3752 0.864105 55.657 13.1459 55.657 28.2951Z" fill="#1877F2"/>
<path d="M38.9039 36.2244L40.12 28.2951H32.5122V23.1496C32.5122 20.9803 33.5749 18.8657 36.9825 18.8657H40.4415V12.1151C40.4415 12.1151 37.3024 11.5794 34.3011 11.5794C28.0353 11.5794 23.94 15.3768 23.94 22.2517V28.2951H16.9751V36.2244H23.94V55.3928C25.3366 55.612 26.768 55.7262 28.2261 55.7262C29.6842 55.7262 31.1156 55.612 32.5122 55.3928V36.2244H38.9039Z" fill="white"/>
</g>
<defs>
<clipPath id="clip0_1_516">
<rect width="54.8621" height="54.8621" fill="white" transform="translate(0.794922 0.864105)"/>
</clipPath>
</defs>
</svg>
