<svg width="172" height="38" viewBox="0 0 172 38" fill="none" xmlns="http://www.w3.org/2000/svg">
<path d="M39.6959 3.49592C39.6959 3.34612 39.5461 3.34612 39.5461 3.19632C38.9469 2.44735 38.3477 1.84816 37.5987 1.39877C37.1494 6.94122 33.4045 11.4351 28.1616 13.682C32.3559 11.2853 35.202 7.09102 35.5016 2.29755C35.5016 2.14775 35.5016 1.99796 35.5016 1.69837C35.5016 1.24898 35.5016 0.949387 35.5016 0.5C35.3518 0.5 35.202 0.5 35.0522 0.5C34.9024 0.5 34.7526 0.5 34.6028 0.5C34.453 0.5 34.3032 0.5 34.1534 0.5H30.2588H6.44122C5.99183 0.5 5.54244 0.5 5.09306 0.649796C4.94326 0.649796 4.94326 0.649796 4.79347 0.799592C4.79347 0.799592 4.79347 0.799592 4.64367 0.799592H4.49387C4.49387 0.799592 4.49387 0.799592 4.34408 0.799592C4.34408 0.799592 4.34408 0.799592 4.19428 0.799592C4.19428 0.799592 4.19428 0.799592 4.04449 0.799592C3.89469 0.799592 3.89469 0.799592 3.74489 0.949387C3.74489 0.949387 3.74489 0.949387 3.5951 0.949387C3.4453 0.949387 3.4453 1.09918 3.29551 1.09918C2.99592 1.54857 2.69632 1.84816 2.24694 1.99796C2.09714 2.14775 2.09714 2.29755 1.94735 2.29755L1.79755 2.44735C1.79755 2.44735 1.79755 2.44735 1.79755 2.59714L1.64775 2.74694C1.64775 2.74694 1.64775 2.74694 1.64775 2.89673C1.64775 2.89673 1.49796 3.04653 1.49796 3.19632C1.49796 3.19632 1.49796 3.19632 1.49796 3.34612C1.04857 3.49592 0.898775 3.64571 0.898775 3.79551C0.299592 4.69428 0.149796 5.59306 0 6.64163C0 6.79142 0 6.94122 0 7.09102C0 7.24081 0 7.39061 0 7.5404C0 7.6902 0 7.83999 0 7.83999C0 7.98979 0 7.98979 0 8.13959C0 8.13959 0 8.13959 0 8.28938C0 8.43918 0 8.43918 0 8.58897V8.73877C0 8.88857 0 8.88857 0 9.03836V9.18816V9.33795C0 9.33795 0 9.48775 0.149796 9.48775V9.63754C0.149796 9.78734 0.299592 9.93714 0.299592 10.0869L9.73673 26.4147L14.2306 34.0543C15.8784 36.3012 17.9755 37.4996 20.3722 37.4996C20.522 37.4996 20.6718 37.4996 20.8216 37.4996C20.9714 37.4996 21.1212 37.4996 21.1212 37.4996C21.271 37.4996 21.271 37.4996 21.4208 37.4996C21.4208 37.4996 21.4208 37.4996 21.5706 37.4996C21.5706 37.4996 21.7204 37.4996 21.8702 37.4996H22.02C22.1698 37.4996 22.1698 37.4996 22.3196 37.3498H22.4694H22.6192C22.769 37.3498 22.769 37.2 22.9188 37.2C23.2183 37.0502 23.3681 37.0502 23.5179 36.9004L23.6677 36.7506C23.6677 36.7506 23.6677 36.7506 23.8175 36.7506L23.9673 36.6008C23.9673 36.6008 24.1171 36.6008 24.1171 36.451L24.2669 36.3012L24.4167 36.1514L24.5665 36.0016L24.7163 35.8518L24.8661 35.702L25.0159 35.5522C25.0159 35.5522 25.0159 35.4024 25.1657 35.4024L25.3155 35.2526C25.3155 35.2526 25.3155 35.1028 25.4653 35.1028C25.4653 34.953 25.6151 34.8032 25.6151 34.8032L31.4571 24.9167C29.5098 25.5159 27.5624 25.8155 25.4653 25.8155C25.3155 25.8155 25.1657 25.8155 25.0159 25.8155H24.8661C24.7163 25.8155 24.7163 25.8155 24.5665 25.8155H24.4167C24.2669 25.8155 24.2669 25.8155 24.1171 25.8155H23.9673C23.8175 25.8155 23.8175 25.8155 23.6677 25.8155H23.5179C23.3681 25.8155 23.3681 25.8155 23.2183 25.8155H23.0686C22.9188 25.8155 22.769 25.8155 22.6192 25.8155H22.4694C22.3196 25.8155 22.3196 25.8155 22.1698 25.8155H22.02C21.8702 25.8155 21.8702 25.8155 21.7204 25.8155H21.5706C21.5706 25.8155 21.4208 25.8155 21.271 25.8155C21.271 25.8155 21.1212 25.8155 20.9714 25.8155C20.8216 25.8155 20.8216 25.8155 20.6718 25.8155H20.522C20.522 25.8155 20.3722 25.8155 20.2224 25.8155H20.0726C19.9228 25.8155 19.773 25.6657 19.6232 25.6657C19.6232 25.6657 19.4735 25.6657 19.3237 25.6657H19.1739C19.1739 25.6657 19.0241 25.6657 18.8743 25.5159H18.7245C18.5747 25.5159 18.5747 25.5159 18.4249 25.3661H18.2751C18.2751 25.3661 18.1253 25.3661 17.9755 25.2163H17.8257C17.6759 25.2163 17.6759 25.2163 17.5261 25.0665C17.5261 25.0665 17.5261 25.0665 17.3763 25.0665C17.0767 23.8681 16.7771 23.7183 16.4775 23.5686C16.4775 23.5686 16.4775 23.5686 16.3277 23.5686C16.1779 23.5686 16.1779 23.4188 16.0282 23.4188C16.0282 23.4188 16.0282 23.4188 15.8784 23.4188C15.7286 23.4188 15.7286 23.269 15.5788 23.269C15.5788 23.269 15.5788 23.269 15.429 23.269C15.2792 23.269 15.2792 23.1192 15.1294 23.1192C14.8298 22.6698 14.3804 22.3702 13.931 22.0706C13.7812 22.0706 13.6314 21.9208 13.6314 21.9208C13.4816 21.9208 13.4816 21.771 13.3318 21.771C13.931 22.0706 14.5302 22.3702 15.1294 22.6698C15.7286 22.8196 16.1779 22.9694 16.7771 23.269C16.7771 23.269 16.7771 23.269 16.9269 23.269C17.0767 23.269 17.2265 23.4188 17.3763 23.4188C17.6759 23.5686 18.1253 23.5686 18.5747 23.7183C18.5747 23.7183 18.5747 23.7183 18.7245 23.7183C18.8743 23.7183 19.0241 23.7183 19.1739 23.8681H19.3237C19.4735 23.8681 19.6233 23.8681 19.773 24.0179C19.773 24.0179 19.773 24.0179 19.9228 24.0179C20.0726 24.0179 20.3722 24.0179 20.522 24.0179C20.522 24.0179 20.522 24.0179 20.6718 24.0179C20.8216 24.0179 20.9714 24.0179 21.1212 24.0179H21.271C21.4208 24.0179 21.5706 24.0179 21.7204 24.0179H21.8702C22.02 24.0179 22.3196 24.0179 22.4694 24.0179C27.2628 24.0179 31.6069 22.2204 34.9024 19.0747L39.9955 10.2367C41.1938 8.28938 41.1938 5.74285 39.9955 3.79551C39.8457 3.64571 39.6959 3.49592 39.6959 3.49592ZM20.3722 21.771C19.4735 21.771 18.7245 21.3216 18.2751 20.5726L15.1294 15.3298L14.3804 13.9816C14.3804 13.9816 14.3804 13.8318 14.2306 13.8318C13.931 13.0828 13.931 12.3339 14.3804 11.5849C14.3804 11.5849 14.3804 11.4351 14.5302 11.4351C14.5302 11.4351 14.5302 11.2853 14.68 11.2853C15.1294 10.6861 15.7286 10.3865 16.4775 10.3865H24.1171H24.2669H24.4167C24.5665 10.3865 24.7163 10.3865 24.7163 10.5363C24.8661 10.5363 25.0159 10.6861 25.0159 10.6861C25.1657 10.6861 25.3155 10.8359 25.3155 10.9857C25.3155 10.9857 25.3155 11.1355 25.4653 11.1355L25.6151 11.2853C25.6151 11.2853 25.6151 11.4351 25.7649 11.4351L25.9147 11.5849C26.3641 12.3339 26.3641 13.2326 25.9147 13.9816L25.7649 14.8804L23.9673 18.0261L22.4694 20.5726C22.02 21.3216 21.271 21.771 20.3722 21.771Z" fill="#F2CC4D"/>
<path d="M39.845 3.79523C39.2459 2.74666 38.4969 1.99768 37.5981 1.3985C36.9989 7.68992 32.3552 12.783 25.914 14.4307L22.4687 20.5724C22.0193 21.3213 21.2704 21.7707 20.3716 21.7707C19.4728 21.7707 18.7238 21.3213 18.2744 20.5724L14.3798 13.9813C14.3798 13.9813 14.3798 13.8316 14.23 13.8316C8.83731 11.4348 4.94261 6.49156 4.79282 0.799316C4.34343 0.949112 3.74425 1.09891 3.29486 1.3985C3.29486 1.99768 3.29486 2.74666 3.29486 3.49564C3.29486 14.8801 11.8332 24.0177 22.3189 24.0177C27.1124 24.0177 31.4565 22.2201 34.752 19.0744L39.845 10.2365C41.0434 8.28911 41.0434 5.74258 39.845 3.79523Z" fill="#F2CC4D"/>
<path d="M25.7649 14.8804C31.4571 12.7833 35.5016 7.6902 35.5016 1.84816C35.5016 1.39877 35.5016 1.09918 35.5016 0.649796C35.0522 0.5 34.6028 0.5 34.1534 0.5H6.44121C5.69223 0.5 4.94325 0.649796 4.19427 0.949387C4.19427 1.24898 4.19427 1.54857 4.19427 1.84816C4.19427 8.13959 8.83794 13.5322 15.1294 15.3298L14.3804 13.9816C13.931 13.2326 13.931 12.3339 14.3804 11.5849C14.8298 10.8359 15.7286 10.3865 16.4775 10.3865H24.1171C25.0159 10.3865 25.7649 10.8359 26.2143 11.5849C26.6636 12.3339 26.6636 13.2326 26.2143 13.9816L25.7649 14.8804Z" fill="#F2CC4D"/>
<path d="M39.845 3.79553C39.6952 3.64574 39.5454 3.34615 39.5454 3.19635C38.7965 13.8319 31.0071 22.0706 21.4202 22.0706C11.6834 22.0706 3.74425 13.3825 3.29486 2.59717C3.29486 2.89676 3.29486 3.19635 3.29486 3.49594C3.29486 14.8804 11.8332 24.018 22.3189 24.018C27.1124 24.018 31.4565 22.2204 34.752 19.0747L39.845 10.2368C41.0434 8.28941 41.0434 5.74288 39.845 3.79553Z" fill="#F2CC4D"/>
<path d="M12.8821 21.3213C13.1817 27.6127 16.1776 33.305 20.9711 37.4992C23.0683 37.3494 24.8658 36.1511 25.9144 34.3535L31.4568 24.9164C29.5095 25.5156 27.5621 25.8152 25.465 25.8152C20.6715 25.8152 16.3274 24.1674 12.8821 21.3213Z" fill="#F2CC4D"/>
<path d="M37.5984 1.39844C36.9993 7.68986 32.3556 12.7829 25.9144 14.4307L22.4691 20.5723C22.0197 21.3213 21.2707 21.7707 20.3719 21.7707C19.4732 21.7707 18.7242 21.3213 18.2748 20.5723L14.3801 13.9813C14.3801 13.9813 14.3801 13.8315 14.2303 13.8315C14.0805 13.6817 13.7809 13.5319 13.4813 13.3821C13.0319 15.1797 12.8821 17.127 12.8821 19.0743C12.8821 19.9731 12.8821 20.7221 13.0319 21.4711C15.7283 23.1188 19.0238 24.0176 22.3193 24.0176C27.1127 24.0176 31.4568 22.2201 34.7523 19.0743L39.8454 10.2364C41.0438 8.28904 41.0438 5.74252 39.8454 3.79517C39.2462 2.7466 38.4972 1.99762 37.5984 1.39844Z" fill="#F2CC4D"/>
<path d="M14.3803 11.5849C14.3803 11.4351 14.5301 11.4351 14.5301 11.2854C10.4856 10.3866 6.89051 7.98984 4.49377 4.69434C5.69214 9.78739 9.73663 13.8319 15.1293 15.3298L14.3803 13.9817C13.9309 13.2327 13.9309 12.3339 14.3803 11.5849Z" fill="#F2CC4D"/>
<path d="M34.6023 0.5C33.1044 4.99388 29.5093 8.73877 24.8656 10.5363C25.4648 10.6861 25.9142 11.1355 26.2138 11.5849C26.6632 12.3339 26.6632 13.2326 26.2138 13.9816L25.7644 14.8804C31.4566 12.7833 35.5011 7.6902 35.5011 1.84816C35.5011 1.39878 35.5011 1.09918 35.5011 0.649796C35.2015 0.5 34.9019 0.5 34.6023 0.5Z" fill="#F2CC4D"/>
<path d="M14.3808 13.9813C14.3808 13.9813 14.3808 13.8316 14.231 13.8316C8.83839 11.4348 4.9437 6.49156 4.7939 0.799316C4.34451 0.799316 3.89513 1.09891 3.44574 1.2487C4.49431 8.73849 9.58737 14.8801 16.3282 17.1271L14.3808 13.9813Z" fill="#F2CC4D"/>
<path d="M39.9958 3.94497C39.9958 3.94497 39.9958 3.79517 39.846 3.79517C39.2468 2.7466 38.4978 1.99762 37.5991 1.39844C36.9999 7.68986 32.3562 12.7829 25.915 14.4307L23.9677 18.0258C31.6072 17.127 37.8987 11.4348 39.9958 3.94497Z" fill="#F2CC4D"/>
<path d="M163.504 30.6586C161.651 30.6586 160.1 30.3462 158.851 29.7215C157.601 29.0753 156.664 28.0951 156.04 26.781C155.415 25.4669 155.102 23.7974 155.102 21.7724C155.102 19.7259 155.415 18.0564 156.04 16.7638C156.664 15.4498 157.601 14.4804 158.851 13.8556C160.1 13.2094 161.651 12.8862 163.504 12.8862C165.378 12.8862 166.929 13.2094 168.157 13.8556C169.406 14.4804 170.344 15.4498 170.968 16.7638C171.593 18.0564 171.905 19.7259 171.905 21.7724C171.905 23.7974 171.593 25.4669 170.968 26.781C170.344 28.0951 169.406 29.0753 168.157 29.7215C166.929 30.3462 165.378 30.6586 163.504 30.6586ZM163.504 27.4273C164.538 27.4273 165.367 27.2334 165.992 26.8456C166.638 26.4363 167.101 25.8331 167.382 25.0361C167.683 24.2175 167.834 23.205 167.834 21.9986V21.5462C167.834 20.3399 167.683 19.3381 167.382 18.5411C167.101 17.7225 166.638 17.1193 165.992 16.7315C165.367 16.3222 164.538 16.1176 163.504 16.1176C162.47 16.1176 161.63 16.3222 160.983 16.7315C160.359 17.1193 159.896 17.7225 159.594 18.5411C159.314 19.3381 159.174 20.3399 159.174 21.5462V21.9986C159.174 23.205 159.314 24.2175 159.594 25.0361C159.896 25.8331 160.359 26.4363 160.983 26.8456C161.63 27.2334 162.47 27.4273 163.504 27.4273Z" fill="#1A1A1A"/>
<path d="M142.531 30.2708V13.274H145.827L146.15 15.956H146.377C146.592 15.4174 146.85 14.922 147.152 14.4696C147.475 13.9957 147.885 13.6187 148.38 13.3386C148.875 13.037 149.479 12.8862 150.19 12.8862C150.534 12.8862 150.847 12.9185 151.127 12.9832C151.428 13.0478 151.654 13.1124 151.805 13.1771V16.8931H150.61C149.942 16.8931 149.349 16.99 148.832 17.1839C148.315 17.3563 147.874 17.6363 147.508 18.0241C147.163 18.4118 146.904 18.8965 146.732 19.4782C146.56 20.0598 146.473 20.7384 146.473 21.5139V30.2708H142.531Z" fill="#1A1A1A"/>
<path d="M134.842 30.6586C133.786 30.6586 132.957 30.454 132.354 30.0447C131.751 29.6138 131.32 29.0753 131.061 28.429C130.824 27.7612 130.706 27.0826 130.706 26.3932V16.5053H128.67V13.274H130.803L131.514 8.52393H134.648V13.274H137.588V16.5053H134.648V26.0055C134.648 26.4579 134.766 26.8133 135.003 27.0718C135.24 27.3088 135.596 27.4273 136.07 27.4273H137.588V30.1416C137.373 30.2278 137.104 30.3032 136.781 30.3678C136.479 30.454 136.156 30.5186 135.811 30.5617C135.467 30.6263 135.143 30.6586 134.842 30.6586Z" fill="#1A1A1A"/>
<path d="M109.46 30.2713V6.90869H113.403V15.2132H113.629C113.995 14.7609 114.426 14.3623 114.921 14.0176C115.417 13.673 115.977 13.4037 116.602 13.2098C117.248 12.9944 117.959 12.8867 118.734 12.8867C119.811 12.8867 120.759 13.0806 121.578 13.4683C122.418 13.8561 123.075 14.4808 123.549 15.3425C124.023 16.2042 124.26 17.3567 124.26 18.8V30.2713H120.285V19.5109C120.285 18.9077 120.21 18.4123 120.059 18.0245C119.93 17.6152 119.725 17.2921 119.445 17.0551C119.187 16.7966 118.863 16.6135 118.476 16.5058C118.088 16.3981 117.657 16.3442 117.183 16.3442C116.472 16.3442 115.826 16.5165 115.244 16.8612C114.684 17.2059 114.232 17.6798 113.887 18.283C113.564 18.8862 113.403 19.5863 113.403 20.3834V30.2713H109.46Z" fill="#1A1A1A"/>
<path d="M96.8462 30.6586C95.0798 30.6586 93.6041 30.3462 92.4193 29.7215C91.256 29.0753 90.3835 28.0951 89.8019 26.781C89.2203 25.4669 88.9294 23.7974 88.9294 21.7724C88.9294 19.7259 89.2203 18.0564 89.8019 16.7638C90.4051 15.4498 91.2883 14.4804 92.4516 13.8556C93.6364 13.2094 95.1013 12.8862 96.8462 12.8862C97.988 12.8862 99.0005 13.0263 99.8837 13.3063C100.767 13.5864 101.521 14.0172 102.146 14.5988C102.792 15.1589 103.277 15.8591 103.6 16.6992C103.923 17.5394 104.084 18.5195 104.084 19.6397H100.078C100.078 18.8427 99.9591 18.1856 99.7221 17.6686C99.4852 17.1516 99.1189 16.7638 98.6235 16.5053C98.1495 16.2253 97.5356 16.0853 96.7816 16.0853C95.8984 16.0853 95.1767 16.2899 94.6166 16.6992C94.0565 17.1085 93.6364 17.7225 93.3564 18.5411C93.0979 19.3381 92.9686 20.3506 92.9686 21.5785V21.9986C92.9686 23.205 93.0979 24.2175 93.3564 25.0361C93.6364 25.8547 94.0673 26.4686 94.6489 26.8779C95.2306 27.2657 95.9953 27.4596 96.9432 27.4596C97.6756 27.4596 98.2788 27.3303 98.7527 27.0718C99.2482 26.7918 99.6252 26.3825 99.8837 25.8439C100.142 25.3054 100.271 24.6591 100.271 23.9051H104.084C104.084 24.9607 103.923 25.9085 103.6 26.7487C103.277 27.5888 102.803 28.2997 102.178 28.8814C101.553 29.463 100.788 29.9046 99.8837 30.2062C99.0005 30.5078 97.988 30.6586 96.8462 30.6586Z" fill="#1A1A1A"/>
<path d="M76.9397 30.6586C75.1301 30.6586 73.6222 30.3462 72.4158 29.7215C71.2094 29.0753 70.3047 28.0951 69.7015 26.781C69.0983 25.4669 68.7967 23.7974 68.7967 21.7724C68.7967 19.7259 69.0983 18.0564 69.7015 16.7638C70.3047 15.4498 71.2094 14.4804 72.4158 13.8556C73.6222 13.2094 75.1301 12.8862 76.9397 12.8862C78.5769 12.8862 79.9448 13.1986 81.0435 13.8233C82.1637 14.4265 83.0038 15.3636 83.5639 16.6346C84.124 17.9056 84.4041 19.5536 84.4041 21.5785V22.7418H72.8359C72.879 23.7974 73.0405 24.6914 73.3206 25.4238C73.6006 26.1347 74.0315 26.6733 74.6131 27.0395C75.2163 27.3842 76.0026 27.5565 76.972 27.5565C77.4675 27.5565 77.9306 27.4919 78.3615 27.3626C78.7923 27.2334 79.1693 27.0395 79.4924 26.781C79.8156 26.501 80.0633 26.1563 80.2356 25.747C80.4295 25.3377 80.5265 24.8637 80.5265 24.3252H84.4041C84.4041 25.4023 84.2102 26.3394 83.8224 27.1364C83.4562 27.9335 82.9284 28.5906 82.2391 29.1076C81.5713 29.6246 80.785 30.0123 79.8802 30.2708C78.9754 30.5294 77.9952 30.6586 76.9397 30.6586ZM72.9005 19.9629H80.3003C80.3003 19.252 80.2141 18.6488 80.0418 18.1533C79.891 17.6578 79.6648 17.2485 79.3632 16.9254C79.0831 16.6023 78.7385 16.3761 78.3292 16.2468C77.9198 16.096 77.4567 16.0206 76.9397 16.0206C76.0995 16.0206 75.3886 16.1607 74.807 16.4407C74.2469 16.7208 73.816 17.1516 73.5145 17.7332C73.2129 18.3149 73.0082 19.0581 72.9005 19.9629Z" fill="#1A1A1A"/>
<path d="M55.9819 30.271V11.7231H48.9053V8.104H67.2916V11.7231H60.1827V30.271H55.9819Z" fill="#1A1A1A"/>
</svg>
