<svg width="198" height="43" viewBox="0 0 198 43" fill="none" xmlns="http://www.w3.org/2000/svg">
<path d="M45.7944 3.44903C45.7944 3.27658 45.6219 3.27658 45.6219 3.10413C44.9321 2.24187 44.2423 1.55206 43.3801 1.03471C42.8627 7.41542 38.5514 12.589 32.5156 15.1757C37.3443 12.4165 40.6208 7.58787 40.9657 2.06942C40.9657 1.89697 40.9657 1.72452 40.9657 1.37961C40.9657 0.862258 40.9657 0.517355 40.9657 0C40.7933 0 40.6208 0 40.4484 0C40.2759 0 40.1035 0 39.931 0C39.7586 0 39.5861 0 39.4137 0H34.9299H7.51014C6.99279 0 6.47543 0 5.95808 0.172452C5.78563 0.172452 5.78563 0.172452 5.61318 0.344903C5.61318 0.344903 5.61318 0.344903 5.44072 0.344903H5.26827C5.26827 0.344903 5.26827 0.344903 5.09582 0.344903C5.09582 0.344903 5.09582 0.344903 4.92337 0.344903C4.92337 0.344903 4.92337 0.344903 4.75092 0.344903C4.57847 0.344903 4.57847 0.344903 4.40601 0.517355C4.40601 0.517355 4.40601 0.517355 4.23356 0.517355C4.06111 0.517355 4.06111 0.689806 3.88866 0.689806C3.54376 1.20716 3.19885 1.55206 2.6815 1.72452C2.50905 1.89697 2.50905 2.06942 2.3366 2.06942L2.16414 2.24187C2.16414 2.24187 2.16414 2.24187 2.16414 2.41432L1.99169 2.58677C1.99169 2.58677 1.99169 2.58677 1.99169 2.75922C1.99169 2.75922 1.81924 2.93168 1.81924 3.10413C1.81924 3.10413 1.81924 3.10413 1.81924 3.27658C1.30189 3.44903 1.12944 3.62148 1.12944 3.79393C0.43963 4.82864 0.267178 5.86335 0.0947266 7.07051C0.0947266 7.24297 0.0947266 7.41542 0.0947266 7.58787C0.0947266 7.76032 0.0947266 7.93277 0.0947266 8.10522C0.0947266 8.27767 0.0947266 8.45013 0.0947266 8.45013C0.0947266 8.62258 0.0947266 8.62258 0.0947266 8.79503C0.0947266 8.79503 0.0947266 8.79503 0.0947266 8.96748C0.0947266 9.13993 0.0947266 9.13993 0.0947266 9.31238V9.48484C0.0947266 9.65729 0.0947266 9.65729 0.0947266 9.82974V10.0022V10.1746C0.0947266 10.1746 0.0947266 10.3471 0.267178 10.3471V10.5195C0.267178 10.692 0.43963 10.8644 0.43963 11.0369L11.3041 29.8341L16.4776 38.6291C18.3746 41.2159 20.7889 42.5955 23.5481 42.5955C23.7206 42.5955 23.893 42.5955 24.0655 42.5955C24.2379 42.5955 24.4104 42.5955 24.4104 42.5955C24.5828 42.5955 24.5828 42.5955 24.7553 42.5955C24.7553 42.5955 24.7553 42.5955 24.9277 42.5955C24.9277 42.5955 25.1002 42.5955 25.2727 42.5955H25.4451C25.6176 42.5955 25.6176 42.5955 25.79 42.4231H25.9625H26.1349C26.3074 42.4231 26.3074 42.2506 26.4798 42.2506C26.8247 42.0782 26.9972 42.0782 27.1696 41.9057L27.3421 41.7333C27.3421 41.7333 27.3421 41.7333 27.5145 41.7333L27.687 41.5608C27.687 41.5608 27.8594 41.5608 27.8594 41.3884L28.0319 41.2159L28.2043 41.0435L28.3768 40.871L28.5492 40.6986L28.7217 40.5261L28.8941 40.3537C28.8941 40.3537 28.8941 40.1812 29.0666 40.1812L29.239 40.0088C29.239 40.0088 29.239 39.8363 29.4115 39.8363C29.4115 39.6639 29.5839 39.4914 29.5839 39.4914L36.3095 28.1096C34.0677 28.7994 31.8258 29.1443 29.4115 29.1443C29.239 29.1443 29.0666 29.1443 28.8941 29.1443H28.7217C28.5492 29.1443 28.5492 29.1443 28.3768 29.1443H28.2043C28.0319 29.1443 28.0319 29.1443 27.8594 29.1443H27.687C27.5145 29.1443 27.5145 29.1443 27.3421 29.1443H27.1696C26.9972 29.1443 26.9972 29.1443 26.8247 29.1443H26.6523C26.4798 29.1443 26.3074 29.1443 26.1349 29.1443H25.9625C25.79 29.1443 25.79 29.1443 25.6176 29.1443H25.4451C25.2727 29.1443 25.2727 29.1443 25.1002 29.1443H24.9277C24.9277 29.1443 24.7553 29.1443 24.5828 29.1443C24.5828 29.1443 24.4104 29.1443 24.2379 29.1443C24.0655 29.1443 24.0655 29.1443 23.893 29.1443H23.7206C23.7206 29.1443 23.5481 29.1443 23.3757 29.1443H23.2032C23.0308 29.1443 22.8583 28.9719 22.6859 28.9719C22.6859 28.9719 22.5134 28.9719 22.341 28.9719H22.1685C22.1685 28.9719 21.9961 28.9719 21.8236 28.7994H21.6512C21.4787 28.7994 21.4787 28.7994 21.3063 28.627H21.1338C21.1338 28.627 20.9614 28.627 20.7889 28.4545H20.6165C20.444 28.4545 20.444 28.4545 20.2716 28.2821C20.2716 28.2821 20.2716 28.2821 20.0991 28.2821C19.7542 26.9024 19.4093 26.73 19.0644 26.5575C19.0644 26.5575 19.0644 26.5575 18.8919 26.5575C18.7195 26.5575 18.7195 26.3851 18.547 26.3851C18.547 26.3851 18.547 26.3851 18.3746 26.3851C18.2021 26.3851 18.2021 26.2126 18.0297 26.2126C18.0297 26.2126 18.0297 26.2126 17.8572 26.2126C17.6848 26.2126 17.6848 26.0402 17.5123 26.0402C17.1674 25.5228 16.6501 25.1779 16.1327 24.833C15.9603 24.833 15.7878 24.6606 15.7878 24.6606C15.6154 24.6606 15.6154 24.4881 15.4429 24.4881C16.1327 24.833 16.8225 25.1779 17.5123 25.5228C18.2021 25.6953 18.7195 25.8677 19.4093 26.2126C19.4093 26.2126 19.4093 26.2126 19.5817 26.2126C19.7542 26.2126 19.9267 26.3851 20.0991 26.3851C20.444 26.5575 20.9614 26.5575 21.4787 26.73C21.4787 26.73 21.4787 26.73 21.6512 26.73C21.8236 26.73 21.9961 26.73 22.1685 26.9024H22.341C22.5134 26.9024 22.6859 26.9024 22.8583 27.0749C22.8583 27.0749 22.8583 27.0749 23.0308 27.0749C23.2032 27.0749 23.5481 27.0749 23.7206 27.0749C23.7206 27.0749 23.7206 27.0749 23.893 27.0749C24.0655 27.0749 24.2379 27.0749 24.4104 27.0749H24.5828C24.7553 27.0749 24.9277 27.0749 25.1002 27.0749H25.2727C25.4451 27.0749 25.79 27.0749 25.9625 27.0749C31.4809 27.0749 36.482 25.0055 40.2759 21.384L46.1393 11.2094C47.5189 8.96748 47.5189 6.0358 46.1393 3.79393C45.9668 3.62148 45.7944 3.44903 45.7944 3.44903ZM23.5481 24.4881C22.5134 24.4881 21.6512 23.9708 21.1338 23.1085L17.5123 17.0727L16.6501 15.5206C16.6501 15.5206 16.6501 15.3482 16.4776 15.3482C16.1327 14.4859 16.1327 13.6237 16.6501 12.7614C16.6501 12.7614 16.6501 12.589 16.8225 12.589C16.8225 12.589 16.8225 12.4165 16.995 12.4165C17.5123 11.7267 18.2021 11.3818 19.0644 11.3818H27.8594H28.0319H28.2043C28.3768 11.3818 28.5492 11.3818 28.5492 11.5543C28.7217 11.5543 28.8941 11.7267 28.8941 11.7267C29.0666 11.7267 29.239 11.8992 29.239 12.0716C29.239 12.0716 29.239 12.2441 29.4115 12.2441L29.5839 12.4165C29.5839 12.4165 29.5839 12.589 29.7564 12.589L29.9288 12.7614C30.4462 13.6237 30.4462 14.6584 29.9288 15.5206L29.7564 16.5553L27.687 20.1768L25.9625 23.1085C25.4451 23.9708 24.5828 24.4881 23.5481 24.4881Z" fill="#FF7322"/>
<path d="M45.9664 3.79425C45.2766 2.58708 44.4143 1.72483 43.3796 1.03502C42.6898 8.27799 37.3438 14.1413 29.9284 16.0383L25.962 23.1088C25.4446 23.9711 24.5824 24.4884 23.5477 24.4884C22.513 24.4884 21.6507 23.9711 21.1333 23.1088L16.6496 15.5209C16.6496 15.5209 16.6496 15.3485 16.4771 15.3485C10.2689 12.5893 5.78515 6.89837 5.6127 0.345215C5.09534 0.517666 4.40554 0.690118 3.88818 1.03502C3.88818 1.72483 3.88818 2.58709 3.88818 3.44934C3.88818 16.5557 13.7179 27.0752 25.7895 27.0752C31.308 27.0752 36.3091 25.0058 40.103 21.3843L45.9664 11.2097C47.346 8.96779 47.346 6.03612 45.9664 3.79425Z" fill="#FF7322"/>
<path d="M29.7564 16.5553C36.3095 14.141 40.9657 8.27767 40.9657 1.55206C40.9657 1.03471 40.9657 0.689806 40.9657 0.172452C40.4484 0 39.931 0 39.4137 0H7.51011C6.64786 0 5.7856 0.172452 4.92334 0.517355C4.92334 0.862258 4.92334 1.20716 4.92334 1.55206C4.92334 8.79503 10.2693 15.0033 17.5123 17.0727L16.65 15.5206C16.1327 14.6584 16.1327 13.6237 16.65 12.7614C17.1674 11.8992 18.2021 11.3818 19.0644 11.3818H27.8594C28.8941 11.3818 29.7564 11.8992 30.2737 12.7614C30.7911 13.6237 30.7911 14.6584 30.2737 15.5206L29.7564 16.5553Z" fill="#FF7322"/>
<path d="M45.9664 3.79416C45.7939 3.62171 45.6215 3.27681 45.6215 3.10436C44.7592 15.3484 35.7917 24.8333 24.7548 24.8333C13.5455 24.8333 4.40554 14.8311 3.88818 2.41455C3.88818 2.75945 3.88818 3.10436 3.88818 3.44926C3.88818 16.5556 13.7179 27.0751 25.7895 27.0751C31.308 27.0751 36.3091 25.0057 40.103 21.3842L45.9664 11.2096C47.346 8.96771 47.346 6.03603 45.9664 3.79416Z" fill="#FF7322"/>
<path d="M14.9255 23.9707C15.2704 31.2137 18.7195 37.7668 24.2379 42.5955C26.6522 42.423 28.7217 41.0434 29.9288 38.974L36.3095 28.1095C34.0677 28.7993 31.8258 29.1443 29.4115 29.1443C23.893 29.1443 18.8919 27.2473 14.9255 23.9707Z" fill="#FF7322"/>
<path d="M43.38 1.03467C42.6902 8.27763 37.3442 14.141 29.9288 16.038L25.9624 23.1085C25.4451 23.9707 24.5828 24.4881 23.5481 24.4881C22.5134 24.4881 21.6511 23.9707 21.1338 23.1085L16.6501 15.5206C16.6501 15.5206 16.6501 15.3481 16.4776 15.3481C16.3051 15.1757 15.9602 15.0032 15.6153 14.8308C15.098 16.9002 14.9255 19.1421 14.9255 21.384C14.9255 22.4187 14.9255 23.2809 15.098 24.1432C18.2021 26.0401 21.9961 27.0749 25.79 27.0749C31.3084 27.0749 36.3095 25.0054 40.1035 21.384L45.9668 11.2093C47.3464 8.96744 47.3464 6.03576 45.9668 3.79389C45.277 2.58673 44.4148 1.72447 43.38 1.03467Z" fill="#FF7322"/>
<path d="M16.6501 12.7619C16.6501 12.5894 16.8226 12.5894 16.8226 12.417C12.1664 11.3823 8.02754 8.62304 5.26831 4.8291C6.64792 10.6925 11.3041 15.3486 17.5124 17.0732L16.6501 15.5211C16.1328 14.6588 16.1328 13.6241 16.6501 12.7619Z" fill="#FF7322"/>
<path d="M39.9305 0.000488281C38.206 5.17404 34.0672 9.48532 28.7212 11.5547C29.411 11.7272 29.9284 12.2445 30.2733 12.7619C30.7906 13.6242 30.7906 14.6589 30.2733 15.5211L29.7559 16.5558C36.3091 14.1415 40.9653 8.27816 40.9653 1.55255C40.9653 1.0352 40.9653 0.690295 40.9653 0.17294C40.6203 0.000488281 40.2754 0.000488281 39.9305 0.000488281Z" fill="#FF7322"/>
<path d="M16.6507 15.521C16.6507 15.521 16.6507 15.3485 16.4783 15.3485C10.27 12.5893 5.78628 6.89837 5.61383 0.345215C5.09648 0.345215 4.57912 0.690118 4.06177 0.86257C5.26893 9.48515 11.1323 16.5557 18.8926 19.1424L16.6507 15.521Z" fill="#DC611A"/>
<path d="M46.1398 3.96634C46.1398 3.96634 46.1398 3.79389 45.9674 3.79389C45.2776 2.58673 44.4153 1.72447 43.3806 1.03467C42.6908 8.27763 37.3448 14.141 29.9294 16.038L27.6875 20.1768C36.4825 19.1421 43.7255 12.5889 46.1398 3.96634Z" fill="#FF7322"/>
<path d="M188.328 33.7986C186.195 33.7986 184.409 33.4434 182.971 32.7332C181.532 31.9985 180.454 30.8842 179.734 29.3903C179.015 27.8964 178.656 25.9985 178.656 23.6964C178.656 21.3698 179.015 19.4719 179.734 18.0025C180.454 16.5086 181.532 15.4065 182.971 14.6963C184.409 13.9616 186.195 13.5942 188.328 13.5942C190.485 13.5942 192.271 13.9616 193.685 14.6963C195.123 15.4065 196.202 16.5086 196.921 18.0025C197.64 19.4719 198 21.3698 198 23.6964C198 25.9985 197.64 27.8964 196.921 29.3903C196.202 30.8842 195.123 31.9985 193.685 32.7332C192.271 33.4434 190.485 33.7986 188.328 33.7986ZM188.328 30.125C189.518 30.125 190.473 29.9046 191.192 29.4638C191.936 28.9985 192.469 28.3128 192.792 27.4066C193.139 26.476 193.313 25.325 193.313 23.9535V23.4393C193.313 22.0678 193.139 20.929 192.792 20.0229C192.469 19.0923 191.936 18.4065 191.192 17.9657C190.473 17.5004 189.518 17.2678 188.328 17.2678C187.137 17.2678 186.17 17.5004 185.426 17.9657C184.707 18.4065 184.174 19.0923 183.827 20.0229C183.504 20.929 183.343 22.0678 183.343 23.4393V23.9535C183.343 25.325 183.504 26.476 183.827 27.4066C184.174 28.3128 184.707 28.9985 185.426 29.4638C186.17 29.9046 187.137 30.125 188.328 30.125Z" fill="#161616"/>
<path d="M164.183 33.3577V14.0351H167.977L168.349 17.0841H168.61C168.858 16.4718 169.155 15.9086 169.503 15.3943C169.875 14.8555 170.346 14.4269 170.916 14.1085C171.487 13.7657 172.181 13.5942 172.999 13.5942C173.396 13.5942 173.756 13.631 174.078 13.7044C174.425 13.7779 174.686 13.8514 174.859 13.9249V18.1494H173.483C172.714 18.1494 172.032 18.2596 171.437 18.48C170.842 18.6759 170.333 18.9943 169.912 19.4351C169.515 19.8759 169.217 20.427 169.019 21.0882C168.821 21.7494 168.721 22.5209 168.721 23.4025V33.3577H164.183Z" fill="#161616"/>
<path d="M155.33 33.7978C154.115 33.7978 153.16 33.5652 152.466 33.0999C151.772 32.6101 151.276 31.9978 150.978 31.2631C150.705 30.5039 150.569 29.7325 150.569 28.9488V17.7079H148.225V14.0343H150.68L151.499 8.63428H155.107V14.0343H158.492V17.7079H155.107V28.508C155.107 29.0223 155.244 29.4264 155.516 29.7202C155.789 29.9896 156.198 30.1243 156.744 30.1243H158.492V33.2101C158.244 33.308 157.934 33.3937 157.562 33.4672C157.215 33.5652 156.843 33.6386 156.446 33.6876C156.05 33.7611 155.678 33.7978 155.33 33.7978Z" fill="#161616"/>
<path d="M126.11 33.3578V6.79834H130.649V16.2393H130.909C131.331 15.725 131.827 15.2719 132.397 14.8801C132.968 14.4882 133.612 14.1821 134.332 13.9617C135.076 13.7168 135.894 13.5943 136.787 13.5943C138.027 13.5943 139.118 13.8147 140.061 14.2556C141.028 14.6964 141.784 15.4066 142.33 16.3862C142.875 17.3658 143.148 18.676 143.148 20.3169V33.3578H138.573V21.125C138.573 20.4393 138.486 19.876 138.312 19.4352C138.163 18.9699 137.928 18.6026 137.605 18.3332C137.308 18.0393 136.936 17.8311 136.489 17.7087C136.043 17.5862 135.547 17.525 135.001 17.525C134.183 17.525 133.439 17.7209 132.769 18.1128C132.124 18.5046 131.604 19.0434 131.207 19.7291C130.835 20.4148 130.649 21.2108 130.649 22.1169V33.3578H126.11Z" fill="#161616"/>
<path d="M111.588 33.7986C109.555 33.7986 107.856 33.4434 106.492 32.7332C105.153 31.9985 104.148 30.8842 103.479 29.3903C102.809 27.8964 102.474 25.9985 102.474 23.6964C102.474 21.3698 102.809 19.4719 103.479 18.0025C104.173 16.5086 105.19 15.4065 106.529 14.6963C107.893 13.9616 109.579 13.5942 111.588 13.5942C112.903 13.5942 114.068 13.7534 115.085 14.0718C116.102 14.3902 116.97 14.88 117.689 15.5412C118.433 16.1779 118.991 16.9739 119.363 17.929C119.735 18.8841 119.921 19.9984 119.921 21.2719H115.308C115.308 20.3657 115.172 19.6188 114.899 19.031C114.626 18.4433 114.205 18.0025 113.634 17.7086C113.089 17.3902 112.382 17.231 111.514 17.231C110.497 17.231 109.666 17.4637 109.021 17.929C108.377 18.3943 107.893 19.0923 107.571 20.0229C107.273 20.929 107.124 22.0801 107.124 23.476V23.9535C107.124 25.325 107.273 26.476 107.571 27.4066C107.893 28.3373 108.389 29.0352 109.059 29.5005C109.728 29.9414 110.609 30.1618 111.7 30.1618C112.543 30.1618 113.238 30.0148 113.783 29.721C114.354 29.4026 114.788 28.9373 115.085 28.325C115.383 27.7128 115.532 26.9781 115.532 26.1209H119.921C119.921 27.3209 119.735 28.3985 119.363 29.3536C118.991 30.3087 118.446 31.1169 117.726 31.7781C117.007 32.4394 116.127 32.9414 115.085 33.2843C114.068 33.6271 112.903 33.7986 111.588 33.7986Z" fill="#161616"/>
<path d="M88.6712 33.7986C86.588 33.7986 84.8519 33.4434 83.4631 32.7332C82.0743 31.9985 81.0327 30.8842 80.3383 29.3903C79.6438 27.8964 79.2966 25.9985 79.2966 23.6964C79.2966 21.3698 79.6438 19.4719 80.3383 18.0025C81.0327 16.5086 82.0743 15.4065 83.4631 14.6963C84.8519 13.9616 86.588 13.5942 88.6712 13.5942C90.556 13.5942 92.1308 13.9493 93.3957 14.6596C94.6853 15.3453 95.6525 16.4106 96.2973 17.8555C96.9421 19.3004 97.2645 21.1739 97.2645 23.476V24.7984H83.9467C83.9963 25.9985 84.1823 27.0148 84.5047 27.8475C84.8271 28.6556 85.3231 29.2679 85.9927 29.6842C86.6872 30.0761 87.5924 30.272 88.7084 30.272C89.2788 30.272 89.812 30.1985 90.308 30.0516C90.804 29.9046 91.238 29.6842 91.61 29.3903C91.982 29.072 92.2673 28.6801 92.4657 28.2148C92.6889 27.7495 92.8005 27.2107 92.8005 26.5985H97.2645C97.2645 27.823 97.0413 28.8883 96.5949 29.7944C96.1733 30.7006 95.5657 31.4475 94.7721 32.0353C94.0033 32.623 93.0981 33.0639 92.0564 33.3577C91.0148 33.6516 89.8864 33.7986 88.6712 33.7986ZM84.0211 21.6392H92.5401C92.5401 20.8311 92.4409 20.1453 92.2425 19.5821C92.0689 19.0188 91.8084 18.5535 91.4612 18.1861C91.1388 17.8188 90.742 17.5616 90.2708 17.4147C89.7996 17.2433 89.2664 17.1575 88.6712 17.1575C87.704 17.1575 86.8856 17.3167 86.216 17.6351C85.5711 17.9535 85.0751 18.4433 84.7279 19.1045C84.3807 19.7657 84.1451 20.6106 84.0211 21.6392Z" fill="#161616"/>
<path d="M64.5434 33.3575V12.2716H56.3965V8.15723H77.5636V12.2716H69.3795V33.3575H64.5434Z" fill="#161616"/>
</svg>
