<svg width="172" height="37" viewBox="0 0 172 37" fill="none" xmlns="http://www.w3.org/2000/svg">
<path d="M39.7177 2.99592C39.7177 2.84612 39.5679 2.84612 39.5679 2.69632C38.9683 1.94735 38.3688 1.34816 37.6194 0.898775C37.1698 6.44122 33.4228 10.9351 28.1771 13.182C32.3737 10.7853 35.2214 6.59102 35.5211 1.79755C35.5211 1.64775 35.5211 1.49796 35.5211 1.19837C35.5211 0.748979 35.5211 0.449387 35.5211 0C35.3713 0 35.2214 0 35.0715 0C34.9216 0 34.7718 0 34.6219 0C34.472 0 34.3221 0 34.1722 0H30.2754H6.44476C5.99513 0 5.54549 0 5.09586 0.149796C4.94598 0.149796 4.94598 0.149796 4.7961 0.299592C4.7961 0.299592 4.7961 0.299592 4.64623 0.299592H4.49635C4.49635 0.299592 4.49635 0.299592 4.34647 0.299592C4.34647 0.299592 4.34647 0.299592 4.19659 0.299592C4.19659 0.299592 4.19659 0.299592 4.04671 0.299592C3.89683 0.299592 3.89683 0.299592 3.74696 0.449387C3.74696 0.449387 3.74696 0.449387 3.59708 0.449387C3.4472 0.449387 3.4472 0.599183 3.29732 0.599183C2.99756 1.04857 2.69781 1.34816 2.24817 1.49796C2.0983 1.64775 2.0983 1.79755 1.94842 1.79755L1.79854 1.94735C1.79854 1.94735 1.79854 1.94735 1.79854 2.09714L1.64866 2.24694C1.64866 2.24694 1.64866 2.24694 1.64866 2.39673C1.64866 2.39673 1.49878 2.54653 1.49878 2.69632C1.49878 2.69632 1.49878 2.69632 1.49878 2.84612C1.04915 2.99592 0.899269 3.14571 0.899269 3.29551C0.299756 4.19428 0.149878 5.09306 0 6.14163C0 6.29142 0 6.44122 0 6.59102C0 6.74081 0 6.89061 0 7.0404C0 7.1902 0 7.33999 0 7.33999C0 7.48979 0 7.48979 0 7.63959C0 7.63959 0 7.63959 0 7.78938C0 7.93918 0 7.93918 0 8.08897V8.23877C0 8.38857 0 8.38857 0 8.53836V8.68816V8.83795C0 8.83795 0 8.98775 0.149878 8.98775V9.13754C0.149878 9.28734 0.299756 9.43714 0.299756 9.58693L9.74208 25.9147L14.2384 33.5543C15.8871 35.8012 17.9854 36.9996 20.3834 36.9996C20.5333 36.9996 20.6832 36.9996 20.8331 36.9996C20.983 36.9996 21.1328 36.9996 21.1328 36.9996C21.2827 36.9996 21.2827 36.9996 21.4326 36.9996C21.4326 36.9996 21.4326 36.9996 21.5825 36.9996C21.5825 36.9996 21.7323 36.9996 21.8822 36.9996H22.0321C22.182 36.9996 22.182 36.9996 22.3319 36.8498H22.4817H22.6316C22.7815 36.8498 22.7815 36.7 22.9314 36.7C23.2311 36.5502 23.381 36.5502 23.5309 36.4004L23.6808 36.2506C23.6808 36.2506 23.6808 36.2506 23.8306 36.2506L23.9805 36.1008C23.9805 36.1008 24.1304 36.1008 24.1304 35.951L24.2803 35.8012L24.4302 35.6514L24.58 35.5016L24.7299 35.3518L24.8798 35.202L25.0297 35.0522C25.0297 35.0522 25.0297 34.9024 25.1795 34.9024L25.3294 34.7526C25.3294 34.7526 25.3294 34.6028 25.4793 34.6028C25.4793 34.453 25.6292 34.3032 25.6292 34.3032L31.4744 24.4167C29.526 25.0159 27.5776 25.3155 25.4793 25.3155C25.3294 25.3155 25.1795 25.3155 25.0297 25.3155H24.8798C24.7299 25.3155 24.7299 25.3155 24.58 25.3155H24.4302C24.2803 25.3155 24.2803 25.3155 24.1304 25.3155H23.9805C23.8306 25.3155 23.8306 25.3155 23.6808 25.3155H23.5309C23.381 25.3155 23.381 25.3155 23.2311 25.3155H23.0812C22.9314 25.3155 22.7815 25.3155 22.6316 25.3155H22.4817C22.3319 25.3155 22.3319 25.3155 22.182 25.3155H22.0321C21.8822 25.3155 21.8822 25.3155 21.7323 25.3155H21.5825C21.5825 25.3155 21.4326 25.3155 21.2827 25.3155C21.2827 25.3155 21.1328 25.3155 20.983 25.3155C20.8331 25.3155 20.8331 25.3155 20.6832 25.3155H20.5333C20.5333 25.3155 20.3834 25.3155 20.2336 25.3155H20.0837C19.9338 25.3155 19.7839 25.1657 19.634 25.1657C19.634 25.1657 19.4842 25.1657 19.3343 25.1657H19.1844C19.1844 25.1657 19.0345 25.1657 18.8847 25.0159H18.7348C18.5849 25.0159 18.5849 25.0159 18.435 24.8661H18.2851C18.2851 24.8661 18.1353 24.8661 17.9854 24.7163H17.8355C17.6856 24.7163 17.6856 24.7163 17.5358 24.5665C17.5358 24.5665 17.5358 24.5665 17.3859 24.5665C17.0861 23.3681 16.7864 23.2183 16.4866 23.0686C16.4866 23.0686 16.4866 23.0686 16.3367 23.0686C16.1868 23.0686 16.1868 22.9188 16.037 22.9188C16.037 22.9188 16.037 22.9188 15.8871 22.9188C15.7372 22.9188 15.7372 22.769 15.5873 22.769C15.5873 22.769 15.5873 22.769 15.4375 22.769C15.2876 22.769 15.2876 22.6192 15.1377 22.6192C14.8379 22.1698 14.3883 21.8702 13.9387 21.5706C13.7888 21.5706 13.6389 21.4208 13.6389 21.4208C13.489 21.4208 13.489 21.271 13.3392 21.271C13.9387 21.5706 14.5382 21.8702 15.1377 22.1698C15.7372 22.3196 16.1868 22.4694 16.7864 22.769C16.7864 22.769 16.7864 22.769 16.9362 22.769C17.0861 22.769 17.236 22.9188 17.3859 22.9188C17.6856 23.0686 18.1353 23.0686 18.5849 23.2183C18.5849 23.2183 18.5849 23.2183 18.7348 23.2183C18.8847 23.2183 19.0345 23.2183 19.1844 23.3681H19.3343C19.4842 23.3681 19.6341 23.3681 19.7839 23.5179C19.7839 23.5179 19.7839 23.5179 19.9338 23.5179C20.0837 23.5179 20.3834 23.5179 20.5333 23.5179C20.5333 23.5179 20.5333 23.5179 20.6832 23.5179C20.8331 23.5179 20.983 23.5179 21.1328 23.5179H21.2827C21.4326 23.5179 21.5825 23.5179 21.7323 23.5179H21.8822C22.0321 23.5179 22.3319 23.5179 22.4817 23.5179C27.2778 23.5179 31.6243 21.7204 34.9216 18.5747L40.0175 9.73673C41.2165 7.78938 41.2165 5.24285 40.0175 3.29551C39.8676 3.14571 39.7177 2.99592 39.7177 2.99592ZM20.3834 21.271C19.4842 21.271 18.7348 20.8216 18.2851 20.0726L15.1377 14.8298L14.3883 13.4816C14.3883 13.4816 14.3883 13.3318 14.2384 13.3318C13.9387 12.5828 13.9387 11.8339 14.3883 11.0849C14.3883 11.0849 14.3883 10.9351 14.5382 10.9351C14.5382 10.9351 14.5382 10.7853 14.6881 10.7853C15.1377 10.1861 15.7372 9.88652 16.4866 9.88652H24.1304H24.2803H24.4302C24.58 9.88652 24.7299 9.88652 24.7299 10.0363C24.8798 10.0363 25.0297 10.1861 25.0297 10.1861C25.1795 10.1861 25.3294 10.3359 25.3294 10.4857C25.3294 10.4857 25.3294 10.6355 25.4793 10.6355L25.6292 10.7853C25.6292 10.7853 25.6292 10.9351 25.7791 10.9351L25.9289 11.0849C26.3786 11.8339 26.3786 12.7326 25.9289 13.4816L25.7791 14.3804L23.9805 17.5261L22.4817 20.0726C22.0321 20.8216 21.2827 21.271 20.3834 21.271Z" fill="#3147FF"/>
<path d="M39.8672 3.29523C39.2677 2.24666 38.5183 1.49768 37.619 0.8985C37.0195 7.18992 32.3733 12.283 25.9285 13.9307L22.4813 20.0724C22.0317 20.8213 21.2823 21.2707 20.383 21.2707C19.4837 21.2707 18.7343 20.8213 18.2847 20.0724L14.3879 13.4813C14.3879 13.4813 14.3879 13.3316 14.238 13.3316C8.84237 10.9348 4.94554 5.99156 4.79566 0.299316C4.34602 0.449112 3.74651 0.598908 3.29688 0.8985C3.29688 1.49768 3.29688 2.24666 3.29688 2.99564C3.29688 14.3801 11.8399 23.5177 22.3314 23.5177C27.1275 23.5177 31.474 21.7201 34.7713 18.5744L39.8672 9.73645C41.0662 7.78911 41.0662 5.24258 39.8672 3.29523Z" fill="#3147FF"/>
<path d="M25.7792 14.3804C31.4746 12.2833 35.5213 7.1902 35.5213 1.34816C35.5213 0.898775 35.5213 0.599183 35.5213 0.149796C35.0717 0 34.6221 0 34.1724 0H6.44495C5.69556 0 4.94617 0.149796 4.19678 0.449387C4.19678 0.748979 4.19678 1.04857 4.19678 1.34816C4.19678 7.63959 8.843 13.0322 15.1379 14.8298L14.3885 13.4816C13.9389 12.7326 13.9389 11.8339 14.3885 11.0849C14.8381 10.3359 15.7374 9.88652 16.4868 9.88652H24.1306C25.0299 9.88652 25.7792 10.3359 26.2289 11.0849C26.6785 11.8339 26.6785 12.7326 26.2289 13.4816L25.7792 14.3804Z" fill="#3147FF"/>
<path d="M39.8672 3.29553C39.7173 3.14574 39.5674 2.84615 39.5674 2.69635C38.818 13.3319 31.0244 21.5706 21.4321 21.5706C11.6901 21.5706 3.74651 12.8825 3.29688 2.09717C3.29688 2.39676 3.29688 2.69635 3.29688 2.99594C3.29688 14.3804 11.8399 23.518 22.3314 23.518C27.1275 23.518 31.474 21.7204 34.7713 18.5747L39.8672 9.73675C41.0662 7.78941 41.0662 5.24288 39.8672 3.29553Z" fill="#3147FF"/>
<path d="M12.8896 20.8213C13.1894 27.1127 16.187 32.805 20.9831 36.9992C23.0814 36.8494 24.8799 35.6511 25.9291 33.8535L31.4745 24.4164C29.5261 25.0156 27.5777 25.3152 25.4794 25.3152C20.6833 25.3152 16.3368 23.6674 12.8896 20.8213Z" fill="#3147FF"/>
<path d="M37.6196 0.898438C37.02 7.18986 32.3738 12.2829 25.9291 13.9307L22.4819 20.0723C22.0322 20.8213 21.2828 21.2707 20.3836 21.2707C19.4843 21.2707 18.7349 20.8213 18.2853 20.0723L14.3884 13.4813C14.3884 13.4813 14.3884 13.3315 14.2386 13.3315C14.0887 13.1817 13.7889 13.0319 13.4892 12.8821C13.0395 14.6797 12.8896 16.627 12.8896 18.5743C12.8896 19.4731 12.8896 20.2221 13.0395 20.9711C15.7373 22.6188 19.0347 23.5176 22.332 23.5176C27.1281 23.5176 31.4746 21.7201 34.7719 18.5743L39.8677 9.73639C41.0668 7.78904 41.0668 5.24252 39.8677 3.29517C39.2682 2.2466 38.5188 1.49762 37.6196 0.898438Z" fill="#3147FF"/>
<path d="M14.3881 11.0849C14.3881 10.9351 14.5379 10.9351 14.5379 10.7854C10.4912 9.88658 6.89415 7.48984 4.49609 4.19434C5.69512 9.28739 9.74183 13.3319 15.1374 14.8298L14.3881 13.4817C13.9384 12.7327 13.9384 11.8339 14.3881 11.0849Z" fill="#3147FF"/>
<path d="M34.6215 0C33.1227 4.49388 29.5256 8.23877 24.8794 10.0363C25.4789 10.1861 25.9285 10.6355 26.2283 11.0849C26.6779 11.8339 26.6779 12.7326 26.2283 13.4816L25.7787 14.3804C31.474 12.2833 35.5207 7.1902 35.5207 1.34816C35.5207 0.898775 35.5207 0.599183 35.5207 0.149796C35.221 0 34.9212 0 34.6215 0Z" fill="#3147FF"/>
<path d="M14.3889 13.4813C14.3889 13.4813 14.3889 13.3316 14.239 13.3316C8.84337 10.9348 4.94654 5.99156 4.79666 0.299316C4.34702 0.299316 3.89739 0.598908 3.44775 0.748704C4.4969 8.23849 9.59276 14.3801 16.3373 16.6271L14.3889 13.4813Z" fill="#1F33DC"/>
<path d="M40.0179 3.44497C40.0179 3.44497 40.0179 3.29517 39.8681 3.29517C39.2685 2.2466 38.5191 1.49762 37.6199 0.898438C37.0204 7.18986 32.3741 12.2829 25.9294 13.9307L23.981 17.5258C31.6247 16.627 37.9196 10.9348 40.0179 3.44497Z" fill="#3147FF"/>
<path d="M163.594 30.1586C161.74 30.1586 160.189 29.8462 158.938 29.2215C157.688 28.5753 156.751 27.5951 156.126 26.281C155.501 24.9669 155.188 23.2974 155.188 21.2724C155.188 19.2259 155.501 17.5564 156.126 16.2638C156.751 14.9498 157.688 13.9804 158.938 13.3556C160.189 12.7094 161.74 12.3862 163.594 12.3862C165.469 12.3862 167.021 12.7094 168.25 13.3556C169.5 13.9804 170.438 14.9498 171.063 16.2638C171.688 17.5564 172 19.2259 172 21.2724C172 23.2974 171.688 24.9669 171.063 26.281C170.438 27.5951 169.5 28.5753 168.25 29.2215C167.021 29.8462 165.469 30.1586 163.594 30.1586ZM163.594 26.9273C164.629 26.9273 165.459 26.7334 166.084 26.3456C166.73 25.9363 167.194 25.3331 167.474 24.5361C167.776 23.7175 167.926 22.705 167.926 21.4986V21.0462C167.926 19.8399 167.776 18.8381 167.474 18.0411C167.194 17.2225 166.73 16.6193 166.084 16.2315C165.459 15.8222 164.629 15.6176 163.594 15.6176C162.56 15.6176 161.719 15.8222 161.072 16.2315C160.447 16.6193 159.984 17.2225 159.682 18.0411C159.402 18.8381 159.262 19.8399 159.262 21.0462V21.4986C159.262 22.705 159.402 23.7175 159.682 24.5361C159.984 25.3331 160.447 25.9363 161.072 26.3456C161.719 26.7334 162.56 26.9273 163.594 26.9273Z" fill="#161616"/>
<path d="M142.61 29.7708V12.774H145.908L146.231 15.456H146.457C146.673 14.9174 146.931 14.422 147.233 13.9696C147.557 13.4957 147.966 13.1187 148.462 12.8386C148.958 12.537 149.561 12.3862 150.272 12.3862C150.617 12.3862 150.93 12.4185 151.21 12.4832C151.512 12.5478 151.738 12.6124 151.889 12.6771V16.3931H150.693C150.024 16.3931 149.432 16.49 148.914 16.6839C148.397 16.8563 147.955 17.1363 147.589 17.5241C147.244 17.9118 146.985 18.3965 146.813 18.9782C146.64 19.5598 146.554 20.2384 146.554 21.0139V29.7708H142.61Z" fill="#161616"/>
<path d="M134.916 30.1586C133.86 30.1586 133.03 29.954 132.426 29.5447C131.823 29.1138 131.392 28.5753 131.133 27.929C130.896 27.2612 130.778 26.5826 130.778 25.8932V16.0053H128.741V12.774H130.875L131.586 8.02393H134.722V12.774H137.664V16.0053H134.722V25.5055C134.722 25.9579 134.841 26.3133 135.078 26.5718C135.315 26.8088 135.67 26.9273 136.145 26.9273H137.664V29.6416C137.449 29.7278 137.179 29.8032 136.856 29.8678C136.554 29.954 136.231 30.0186 135.886 30.0617C135.541 30.1263 135.218 30.1586 134.916 30.1586Z" fill="#161616"/>
<path d="M109.521 29.7713V6.40869H113.465V14.7132H113.691C114.058 14.2609 114.489 13.8623 114.984 13.5176C115.48 13.173 116.041 12.9037 116.666 12.7098C117.312 12.4944 118.024 12.3867 118.8 12.3867C119.877 12.3867 120.826 12.5806 121.645 12.9683C122.485 13.3561 123.143 13.9808 123.617 14.8425C124.091 15.7042 124.328 16.8567 124.328 18.3V29.7713H120.351V19.0109C120.351 18.4077 120.276 17.9123 120.125 17.5245C119.996 17.1152 119.791 16.7921 119.511 16.5551C119.252 16.2966 118.929 16.1135 118.541 16.0058C118.153 15.8981 117.722 15.8442 117.248 15.8442C116.536 15.8442 115.89 16.0165 115.308 16.3612C114.747 16.7059 114.295 17.1798 113.95 17.783C113.627 18.3862 113.465 19.0863 113.465 19.8834V29.7713H109.521Z" fill="#161616"/>
<path d="M96.8992 30.1586C95.1317 30.1586 93.6553 29.8462 92.4698 29.2215C91.3059 28.5753 90.4329 27.5951 89.851 26.281C89.269 24.9669 88.978 23.2974 88.978 21.2724C88.978 19.2259 89.269 17.5564 89.851 16.2638C90.4545 14.9498 91.3382 13.9804 92.5021 13.3556C93.6876 12.7094 95.1533 12.3862 96.8992 12.3862C98.0415 12.3862 99.0546 12.5263 99.9383 12.8063C100.822 13.0864 101.576 13.5172 102.201 14.0988C102.848 14.6589 103.333 15.3591 103.656 16.1992C103.98 17.0394 104.141 18.0195 104.141 19.1397H100.132C100.132 18.3427 100.014 17.6856 99.7766 17.1686C99.5396 16.6516 99.1731 16.2638 98.6774 16.0053C98.2032 15.7253 97.5889 15.5853 96.8345 15.5853C95.9508 15.5853 95.2287 15.7899 94.6683 16.1992C94.1079 16.6085 93.6876 17.2225 93.4074 18.0411C93.1488 18.8381 93.0194 19.8506 93.0194 21.0785V21.4986C93.0194 22.705 93.1488 23.7175 93.4074 24.5361C93.6876 25.3547 94.1187 25.9686 94.7006 26.3779C95.2826 26.7657 96.0478 26.9596 96.9962 26.9596C97.729 26.9596 98.3325 26.8303 98.8067 26.5718C99.3025 26.2918 99.6797 25.8825 99.9383 25.3439C100.197 24.8054 100.326 24.1591 100.326 23.4051H104.141C104.141 24.4607 103.98 25.4085 103.656 26.2487C103.333 27.0888 102.859 27.7997 102.234 28.3814C101.609 28.963 100.844 29.4046 99.9383 29.7062C99.0546 30.0078 98.0415 30.1586 96.8992 30.1586Z" fill="#161616"/>
<path d="M76.9824 30.1586C75.1719 30.1586 73.6631 29.8462 72.4561 29.2215C71.249 28.5753 70.3438 27.5951 69.7402 26.281C69.1367 24.9669 68.835 23.2974 68.835 21.2724C68.835 19.2259 69.1367 17.5564 69.7402 16.2638C70.3438 14.9498 71.249 13.9804 72.4561 13.3556C73.6631 12.7094 75.1719 12.3862 76.9824 12.3862C78.6205 12.3862 79.9892 12.6986 81.0885 13.3233C82.2093 13.9265 83.0499 14.8636 83.6103 16.1346C84.1707 17.4056 84.4509 19.0536 84.4509 21.0785V22.2418H72.8764C72.9195 23.2974 73.0811 24.1914 73.3613 24.9238C73.6415 25.6347 74.0726 26.1733 74.6546 26.5395C75.2581 26.8842 76.0448 27.0565 77.0148 27.0565C77.5105 27.0565 77.9739 26.9919 78.405 26.8626C78.8361 26.7334 79.2133 26.5395 79.5366 26.281C79.8599 26.001 80.1078 25.6563 80.2802 25.247C80.4742 24.8377 80.5712 24.3637 80.5712 23.8252H84.4509C84.4509 24.9023 84.2569 25.8394 83.869 26.6364C83.5025 27.4335 82.9745 28.0906 82.2847 28.6076C81.6166 29.1246 80.8298 29.5123 79.9246 29.7708C79.0193 30.0294 78.0386 30.1586 76.9824 30.1586ZM72.941 19.4629H80.3449C80.3449 18.752 80.2587 18.1488 80.0862 17.6533C79.9353 17.1578 79.709 16.7485 79.4073 16.4254C79.1271 16.1023 78.7822 15.8761 78.3727 15.7468C77.9631 15.596 77.4997 15.5206 76.9824 15.5206C76.1418 15.5206 75.4305 15.6607 74.8486 15.9407C74.2882 16.2208 73.8571 16.6516 73.5553 17.2332C73.2536 17.8149 73.0488 18.5581 72.941 19.4629Z" fill="#161616"/>
<path d="M56.0127 29.771V11.2231H48.9321V7.604H67.3286V11.2231H60.2157V29.771H56.0127Z" fill="#161616"/>
</svg>
