<svg width="173" height="38" viewBox="0 0 173 38" fill="none" xmlns="http://www.w3.org/2000/svg">
<path d="M40.2633 3.49592C40.2633 3.34612 40.1135 3.34612 40.1135 3.19632C39.5143 2.44735 38.9151 1.84816 38.1661 1.39877C37.7167 6.94122 33.9718 11.4351 28.729 13.682C32.9233 11.2853 35.7694 7.09102 36.069 2.29755C36.069 2.14775 36.069 1.99796 36.069 1.69837C36.069 1.24898 36.069 0.949387 36.069 0.5C35.9192 0.5 35.7694 0.5 35.6196 0.5C35.4698 0.5 35.32 0.5 35.1702 0.5C35.0204 0.5 34.8706 0.5 34.7208 0.5H30.8261H7.0086C6.55922 0.5 6.10983 0.5 5.66044 0.649796C5.51064 0.649796 5.51064 0.649796 5.36085 0.799592C5.36085 0.799592 5.36085 0.799592 5.21105 0.799592H5.06126C5.06126 0.799592 5.06126 0.799592 4.91146 0.799592C4.91146 0.799592 4.91146 0.799592 4.76167 0.799592C4.76167 0.799592 4.76167 0.799592 4.61187 0.799592C4.46207 0.799592 4.46207 0.799592 4.31228 0.949387C4.31228 0.949387 4.31228 0.949387 4.16248 0.949387C4.01269 0.949387 4.01269 1.09918 3.86289 1.09918C3.5633 1.54857 3.26371 1.84816 2.81432 1.99796C2.66452 2.14775 2.66452 2.29755 2.51473 2.29755L2.36493 2.44735C2.36493 2.44735 2.36493 2.44735 2.36493 2.59714L2.21514 2.74694C2.21514 2.74694 2.21514 2.74694 2.21514 2.89673C2.21514 2.89673 2.06534 3.04653 2.06534 3.19632C2.06534 3.19632 2.06534 3.19632 2.06534 3.34612C1.61595 3.49592 1.46616 3.64571 1.46616 3.79551C0.866974 4.69428 0.717179 5.59306 0.567383 6.64163C0.567383 6.79142 0.567383 6.94122 0.567383 7.09102C0.567383 7.24081 0.567383 7.39061 0.567383 7.5404C0.567383 7.6902 0.567383 7.83999 0.567383 7.83999C0.567383 7.98979 0.567383 7.98979 0.567383 8.13959C0.567383 8.13959 0.567383 8.13959 0.567383 8.28938C0.567383 8.43918 0.567383 8.43918 0.567383 8.58897V8.73877C0.567383 8.88857 0.567383 8.88857 0.567383 9.03836V9.18816V9.33795C0.567383 9.33795 0.567383 9.48775 0.717179 9.48775V9.63754C0.717179 9.78734 0.866974 9.93714 0.866974 10.0869L10.3041 26.4147L14.798 34.0543C16.4457 36.3012 18.5429 37.4996 20.9396 37.4996C21.0894 37.4996 21.2392 37.4996 21.389 37.4996C21.5388 37.4996 21.6886 37.4996 21.6886 37.4996C21.8384 37.4996 21.8384 37.4996 21.9882 37.4996C21.9882 37.4996 21.9882 37.4996 22.138 37.4996C22.138 37.4996 22.2878 37.4996 22.4376 37.4996H22.5874C22.7372 37.4996 22.7372 37.4996 22.887 37.3498H23.0368H23.1865C23.3363 37.3498 23.3363 37.2 23.4861 37.2C23.7857 37.0502 23.9355 37.0502 24.0853 36.9004L24.2351 36.7506C24.2351 36.7506 24.2351 36.7506 24.3849 36.7506L24.5347 36.6008C24.5347 36.6008 24.6845 36.6008 24.6845 36.451L24.8343 36.3012L24.9841 36.1514L25.1339 36.0016L25.2837 35.8518L25.4335 35.702L25.5833 35.5522C25.5833 35.5522 25.5833 35.4024 25.7331 35.4024L25.8829 35.2526C25.8829 35.2526 25.8829 35.1028 26.0327 35.1028C26.0327 34.953 26.1825 34.8032 26.1825 34.8032L32.0245 24.9167C30.0772 25.5159 28.1298 25.8155 26.0327 25.8155C25.8829 25.8155 25.7331 25.8155 25.5833 25.8155H25.4335C25.2837 25.8155 25.2837 25.8155 25.1339 25.8155H24.9841C24.8343 25.8155 24.8343 25.8155 24.6845 25.8155H24.5347C24.3849 25.8155 24.3849 25.8155 24.2351 25.8155H24.0853C23.9355 25.8155 23.9355 25.8155 23.7857 25.8155H23.6359C23.4861 25.8155 23.3363 25.8155 23.1865 25.8155H23.0368C22.887 25.8155 22.887 25.8155 22.7372 25.8155H22.5874C22.4376 25.8155 22.4376 25.8155 22.2878 25.8155H22.138C22.138 25.8155 21.9882 25.8155 21.8384 25.8155C21.8384 25.8155 21.6886 25.8155 21.5388 25.8155C21.389 25.8155 21.389 25.8155 21.2392 25.8155H21.0894C21.0894 25.8155 20.9396 25.8155 20.7898 25.8155H20.64C20.4902 25.8155 20.3404 25.6657 20.1906 25.6657C20.1906 25.6657 20.0408 25.6657 19.891 25.6657H19.7412C19.7412 25.6657 19.5914 25.6657 19.4417 25.5159H19.2919C19.1421 25.5159 19.1421 25.5159 18.9923 25.3661H18.8425C18.8425 25.3661 18.6927 25.3661 18.5429 25.2163H18.3931C18.2433 25.2163 18.2433 25.2163 18.0935 25.0665C18.0935 25.0665 18.0935 25.0665 17.9437 25.0665C17.6441 23.8681 17.3445 23.7183 17.0449 23.5686C17.0449 23.5686 17.0449 23.5686 16.8951 23.5686C16.7453 23.5686 16.7453 23.4188 16.5955 23.4188C16.5955 23.4188 16.5955 23.4188 16.4457 23.4188C16.2959 23.4188 16.2959 23.269 16.1461 23.269C16.1461 23.269 16.1461 23.269 15.9963 23.269C15.8466 23.269 15.8466 23.1192 15.6968 23.1192C15.3972 22.6698 14.9478 22.3702 14.4984 22.0706C14.3486 22.0706 14.1988 21.9208 14.1988 21.9208C14.049 21.9208 14.049 21.771 13.8992 21.771C14.4984 22.0706 15.0976 22.3702 15.6968 22.6698C16.2959 22.8196 16.7453 22.9694 17.3445 23.269C17.3445 23.269 17.3445 23.269 17.4943 23.269C17.6441 23.269 17.7939 23.4188 17.9437 23.4188C18.2433 23.5686 18.6927 23.5686 19.1421 23.7183C19.1421 23.7183 19.1421 23.7183 19.2919 23.7183C19.4417 23.7183 19.5914 23.7183 19.7412 23.8681H19.891C20.0408 23.8681 20.1906 23.8681 20.3404 24.0179C20.3404 24.0179 20.3404 24.0179 20.4902 24.0179C20.64 24.0179 20.9396 24.0179 21.0894 24.0179C21.0894 24.0179 21.0894 24.0179 21.2392 24.0179C21.389 24.0179 21.5388 24.0179 21.6886 24.0179H21.8384C21.9882 24.0179 22.138 24.0179 22.2878 24.0179H22.4376C22.5874 24.0179 22.887 24.0179 23.0368 24.0179C27.8302 24.0179 32.1743 22.2204 35.4698 19.0747L40.5629 10.2367C41.7612 8.28938 41.7612 5.74285 40.5629 3.79551C40.4131 3.64571 40.2633 3.49592 40.2633 3.49592ZM20.9396 21.771C20.0408 21.771 19.2919 21.3216 18.8425 20.5726L15.6968 15.3298L14.9478 13.9816C14.9478 13.9816 14.9478 13.8318 14.798 13.8318C14.4984 13.0828 14.4984 12.3339 14.9478 11.5849C14.9478 11.5849 14.9478 11.4351 15.0976 11.4351C15.0976 11.4351 15.0976 11.2853 15.2474 11.2853C15.6968 10.6861 16.2959 10.3865 17.0449 10.3865H24.6845H24.8343H24.9841C25.1339 10.3865 25.2837 10.3865 25.2837 10.5363C25.4335 10.5363 25.5833 10.6861 25.5833 10.6861C25.7331 10.6861 25.8829 10.8359 25.8829 10.9857C25.8829 10.9857 25.8829 11.1355 26.0327 11.1355L26.1825 11.2853C26.1825 11.2853 26.1825 11.4351 26.3323 11.4351L26.4821 11.5849C26.9314 12.3339 26.9314 13.2326 26.4821 13.9816L26.3323 14.8804L24.5347 18.0261L23.0368 20.5726C22.5874 21.3216 21.8384 21.771 20.9396 21.771Z" fill="#F2CC4D"/>
<path d="M40.4124 3.79523C39.8132 2.74666 39.0643 1.99768 38.1655 1.3985C37.5663 7.68992 32.9226 12.783 26.4814 14.4307L23.0361 20.5724C22.5867 21.3213 21.8377 21.7707 20.939 21.7707C20.0402 21.7707 19.2912 21.3213 18.8418 20.5724L14.9471 13.9813C14.9471 13.9813 14.9471 13.8316 14.7973 13.8316C9.40469 11.4348 5.51 6.49156 5.3602 0.799316C4.91081 0.949112 4.31163 1.09891 3.86224 1.3985C3.86224 1.99768 3.86224 2.74666 3.86224 3.49564C3.86224 14.8801 12.4006 24.0177 22.8863 24.0177C27.6798 24.0177 32.0239 22.2201 35.3194 19.0744L40.4124 10.2365C41.6108 8.28911 41.6108 5.74258 40.4124 3.79523Z" fill="#F2CC4D"/>
<path d="M26.3323 14.8804C32.0245 12.7833 36.069 7.6902 36.069 1.84816C36.069 1.39877 36.069 1.09918 36.069 0.649796C35.6196 0.5 35.1702 0.5 34.7208 0.5H7.00859C6.25962 0.5 5.51064 0.649796 4.76166 0.949387C4.76166 1.24898 4.76166 1.54857 4.76166 1.84816C4.76166 8.13959 9.40533 13.5322 15.6968 15.3298L14.9478 13.9816C14.4984 13.2326 14.4984 12.3339 14.9478 11.5849C15.3972 10.8359 16.2959 10.3865 17.0449 10.3865H24.6845C25.5833 10.3865 26.3323 10.8359 26.7816 11.5849C27.231 12.3339 27.231 13.2326 26.7816 13.9816L26.3323 14.8804Z" fill="#F2CC4D"/>
<path d="M40.4124 3.79553C40.2626 3.64574 40.1128 3.34615 40.1128 3.19635C39.3638 13.8319 31.5745 22.0706 21.9875 22.0706C12.2508 22.0706 4.31163 13.3825 3.86224 2.59717C3.86224 2.89676 3.86224 3.19635 3.86224 3.49594C3.86224 14.8804 12.4006 24.018 22.8863 24.018C27.6798 24.018 32.0239 22.2204 35.3194 19.0747L40.4124 10.2368C41.6108 8.28941 41.6108 5.74288 40.4124 3.79553Z" fill="#F2CC4D"/>
<path d="M13.4495 21.3213C13.7491 27.6127 16.745 33.305 21.5385 37.4992C23.6356 37.3494 25.4332 36.1511 26.4818 34.3535L32.0242 24.9164C30.0769 25.5156 28.1295 25.8152 26.0324 25.8152C21.2389 25.8152 16.8948 24.1674 13.4495 21.3213Z" fill="#F2CC4D"/>
<path d="M38.1658 1.39844C37.5666 7.68986 32.923 12.7829 26.4818 14.4307L23.0365 20.5723C22.5871 21.3213 21.8381 21.7707 20.9393 21.7707C20.0405 21.7707 19.2916 21.3213 18.8422 20.5723L14.9475 13.9813C14.9475 13.9813 14.9475 13.8315 14.7977 13.8315C14.6479 13.6817 14.3483 13.5319 14.0487 13.3821C13.5993 15.1797 13.4495 17.127 13.4495 19.0743C13.4495 19.9731 13.4495 20.7221 13.5993 21.4711C16.2956 23.1188 19.5912 24.0176 22.8867 24.0176C27.6801 24.0176 32.0242 22.2201 35.3197 19.0743L40.4128 10.2364C41.6111 8.28904 41.6111 5.74252 40.4128 3.79517C39.8136 2.7466 39.0646 1.99762 38.1658 1.39844Z" fill="#F2CC4D"/>
<path d="M14.9477 11.5849C14.9477 11.4351 15.0975 11.4351 15.0975 11.2854C11.053 10.3866 7.45789 7.98984 5.06116 4.69434C6.25952 9.78739 10.304 13.8319 15.6967 15.3298L14.9477 13.9817C14.4983 13.2327 14.4983 12.3339 14.9477 11.5849Z" fill="#F2CC4D"/>
<path d="M35.1697 0.5C33.6718 4.99388 30.0767 8.73877 25.433 10.5363C26.0322 10.6861 26.4816 11.1355 26.7811 11.5849C27.2305 12.3339 27.2305 13.2326 26.7811 13.9816L26.3318 14.8804C32.024 12.7833 36.0685 7.6902 36.0685 1.84816C36.0685 1.39878 36.0685 1.09918 36.0685 0.649796C35.7689 0.5 35.4693 0.5 35.1697 0.5Z" fill="#F2CC4D"/>
<path d="M14.9482 13.9813C14.9482 13.9813 14.9482 13.8316 14.7984 13.8316C9.40577 11.4348 5.51108 6.49156 5.36128 0.799316C4.9119 0.799316 4.46251 1.09891 4.01312 1.2487C5.06169 8.73849 10.1548 14.8801 16.8956 17.1271L14.9482 13.9813Z" fill="#F2CC4D"/>
<path d="M40.5632 3.94497C40.5632 3.94497 40.5632 3.79517 40.4134 3.79517C39.8142 2.7466 39.0652 1.99762 38.1665 1.39844C37.5673 7.68986 32.9236 12.7829 26.4824 14.4307L24.535 18.0258C32.1746 17.127 38.466 11.4348 40.5632 3.94497Z" fill="#F2CC4D"/>
<path d="M164.071 30.6586C162.219 30.6586 160.668 30.3462 159.418 29.7215C158.169 29.0753 157.232 28.0951 156.607 26.781C155.982 25.4669 155.67 23.7974 155.67 21.7724C155.67 19.7259 155.982 18.0564 156.607 16.7638C157.232 15.4498 158.169 14.4804 159.418 13.8556C160.668 13.2094 162.219 12.8862 164.071 12.8862C165.945 12.8862 167.497 13.2094 168.724 13.8556C169.974 14.4804 170.911 15.4498 171.536 16.7638C172.16 18.0564 172.473 19.7259 172.473 21.7724C172.473 23.7974 172.16 25.4669 171.536 26.781C170.911 28.0951 169.974 29.0753 168.724 29.7215C167.497 30.3462 165.945 30.6586 164.071 30.6586ZM164.071 27.4273C165.105 27.4273 165.935 27.2334 166.559 26.8456C167.206 26.4363 167.669 25.8331 167.949 25.0361C168.25 24.2175 168.401 23.205 168.401 21.9986V21.5462C168.401 20.3399 168.25 19.3381 167.949 18.5411C167.669 17.7225 167.206 17.1193 166.559 16.7315C165.935 16.3222 165.105 16.1176 164.071 16.1176C163.037 16.1176 162.197 16.3222 161.551 16.7315C160.926 17.1193 160.463 17.7225 160.161 18.5411C159.881 19.3381 159.741 20.3399 159.741 21.5462V21.9986C159.741 23.205 159.881 24.2175 160.161 25.0361C160.463 25.8331 160.926 26.4363 161.551 26.8456C162.197 27.2334 163.037 27.4273 164.071 27.4273Z" fill="white"/>
<path d="M143.099 30.2708V13.274H146.395L146.718 15.956H146.944C147.159 15.4174 147.418 14.922 147.719 14.4696C148.043 13.9957 148.452 13.6187 148.947 13.3386C149.443 13.037 150.046 12.8862 150.757 12.8862C151.102 12.8862 151.414 12.9185 151.694 12.9832C151.996 13.0478 152.222 13.1124 152.373 13.1771V16.8931H151.177C150.509 16.8931 149.917 16.99 149.4 17.1839C148.883 17.3563 148.441 17.6363 148.075 18.0241C147.73 18.4118 147.472 18.8965 147.299 19.4782C147.127 20.0598 147.041 20.7384 147.041 21.5139V30.2708H143.099Z" fill="white"/>
<path d="M135.409 30.6586C134.354 30.6586 133.524 30.454 132.921 30.0447C132.318 29.6138 131.887 29.0753 131.629 28.429C131.392 27.7612 131.273 27.0826 131.273 26.3932V16.5053H129.237V13.274H131.37L132.081 8.52393H135.215V13.274H138.156V16.5053H135.215V26.0055C135.215 26.4579 135.334 26.8133 135.571 27.0718C135.808 27.3088 136.163 27.4273 136.637 27.4273H138.156V30.1416C137.94 30.2278 137.671 30.3032 137.348 30.3678C137.046 30.454 136.723 30.5186 136.379 30.5617C136.034 30.6263 135.711 30.6586 135.409 30.6586Z" fill="white"/>
<path d="M110.028 30.2713V6.90869H113.97V15.2132H114.196C114.562 14.7609 114.993 14.3623 115.489 14.0176C115.984 13.673 116.544 13.4037 117.169 13.2098C117.815 12.9944 118.526 12.8867 119.302 12.8867C120.379 12.8867 121.327 13.0806 122.145 13.4683C122.985 13.8561 123.642 14.4808 124.116 15.3425C124.59 16.2042 124.827 17.3567 124.827 18.8V30.2713H120.853V19.5109C120.853 18.9077 120.777 18.4123 120.626 18.0245C120.497 17.6152 120.293 17.2921 120.012 17.0551C119.754 16.7966 119.431 16.6135 119.043 16.5058C118.655 16.3981 118.224 16.3442 117.751 16.3442C117.04 16.3442 116.393 16.5165 115.812 16.8612C115.252 17.2059 114.799 17.6798 114.455 18.283C114.131 18.8862 113.97 19.5863 113.97 20.3834V30.2713H110.028Z" fill="white"/>
<path d="M97.4136 30.6586C95.6471 30.6586 94.1715 30.3462 92.9867 29.7215C91.8234 29.0753 90.9509 28.0951 90.3693 26.781C89.7876 25.4669 89.4968 23.7974 89.4968 21.7724C89.4968 19.7259 89.7876 18.0564 90.3693 16.7638C90.9725 15.4498 91.8557 14.4804 93.019 13.8556C94.2038 13.2094 95.6687 12.8862 97.4136 12.8862C98.5554 12.8862 99.5678 13.0263 100.451 13.3063C101.334 13.5864 102.088 14.0172 102.713 14.5988C103.359 15.1589 103.844 15.8591 104.167 16.6992C104.49 17.5394 104.652 18.5195 104.652 19.6397H100.645C100.645 18.8427 100.526 18.1856 100.29 17.6686C100.053 17.1516 99.6863 16.7638 99.1908 16.5053C98.7169 16.2253 98.103 16.0853 97.349 16.0853C96.4658 16.0853 95.7441 16.2899 95.184 16.6992C94.6239 17.1085 94.2038 17.7225 93.9238 18.5411C93.6653 19.3381 93.536 20.3506 93.536 21.5785V21.9986C93.536 23.205 93.6653 24.2175 93.9238 25.0361C94.2038 25.8547 94.6347 26.4686 95.2163 26.8779C95.7979 27.2657 96.5627 27.4596 97.5106 27.4596C98.243 27.4596 98.8462 27.3303 99.3201 27.0718C99.8156 26.7918 100.193 26.3825 100.451 25.8439C100.71 25.3054 100.839 24.6591 100.839 23.9051H104.652C104.652 24.9607 104.49 25.9085 104.167 26.7487C103.844 27.5888 103.37 28.2997 102.745 28.8814C102.121 29.463 101.356 29.9046 100.451 30.2062C99.5678 30.5078 98.5554 30.6586 97.4136 30.6586Z" fill="white"/>
<path d="M77.5071 30.6586C75.6975 30.6586 74.1895 30.3462 72.9832 29.7215C71.7768 29.0753 70.872 28.0951 70.2689 26.781C69.6657 25.4669 69.3641 23.7974 69.3641 21.7724C69.3641 19.7259 69.6657 18.0564 70.2689 16.7638C70.872 15.4498 71.7768 14.4804 72.9832 13.8556C74.1895 13.2094 75.6975 12.8862 77.5071 12.8862C79.1443 12.8862 80.5122 13.1986 81.6109 13.8233C82.7311 14.4265 83.5712 15.3636 84.1313 16.6346C84.6914 17.9056 84.9715 19.5536 84.9715 21.5785V22.7418H73.4033C73.4463 23.7974 73.6079 24.6914 73.888 25.4238C74.168 26.1347 74.5988 26.6733 75.1805 27.0395C75.7837 27.3842 76.57 27.5565 77.5394 27.5565C78.0348 27.5565 78.498 27.4919 78.9288 27.3626C79.3597 27.2334 79.7367 27.0395 80.0598 26.781C80.383 26.501 80.6307 26.1563 80.803 25.747C80.9969 25.3377 81.0938 24.8637 81.0938 24.3252H84.9715C84.9715 25.4023 84.7776 26.3394 84.3898 27.1364C84.0236 27.9335 83.4958 28.5906 82.8065 29.1076C82.1386 29.6246 81.3524 30.0123 80.4476 30.2708C79.5428 30.5294 78.5626 30.6586 77.5071 30.6586ZM73.4679 19.9629H80.8677C80.8677 19.252 80.7815 18.6488 80.6091 18.1533C80.4583 17.6578 80.2322 17.2485 79.9306 16.9254C79.6505 16.6023 79.3058 16.3761 78.8965 16.2468C78.4872 16.096 78.0241 16.0206 77.5071 16.0206C76.6669 16.0206 75.956 16.1607 75.3744 16.4407C74.8143 16.7208 74.3834 17.1516 74.0818 17.7332C73.7802 18.3149 73.5756 19.0581 73.4679 19.9629Z" fill="white"/>
<path d="M56.5493 30.271V11.7231H49.4727V8.104H67.859V11.7231H60.75V30.271H56.5493Z" fill="white"/>
</svg>
