<svg width="198" height="43" viewBox="0 0 198 43" fill="none" xmlns="http://www.w3.org/2000/svg">
<path d="M45.6997 3.44903C45.6997 3.27658 45.5272 3.27658 45.5272 3.10413C44.8374 2.24187 44.1476 1.55206 43.2853 1.03471C42.768 7.41542 38.4567 12.589 32.4209 15.1757C37.2495 12.4165 40.5261 7.58787 40.871 2.06942C40.871 1.89697 40.871 1.72452 40.871 1.37961C40.871 0.862258 40.871 0.517355 40.871 0C40.6986 0 40.5261 0 40.3537 0C40.1812 0 40.0088 0 39.8363 0C39.6639 0 39.4914 0 39.319 0H34.8352H7.41542C6.89806 0 6.38071 0 5.86335 0.172452C5.6909 0.172452 5.6909 0.172452 5.51845 0.344903C5.51845 0.344903 5.51845 0.344903 5.346 0.344903H5.17355C5.17355 0.344903 5.17355 0.344903 5.00109 0.344903C5.00109 0.344903 5.00109 0.344903 4.82864 0.344903C4.82864 0.344903 4.82864 0.344903 4.65619 0.344903C4.48374 0.344903 4.48374 0.344903 4.31129 0.517355C4.31129 0.517355 4.31129 0.517355 4.13884 0.517355C3.96639 0.517355 3.96639 0.689806 3.79393 0.689806C3.44903 1.20716 3.10413 1.55206 2.58677 1.72452C2.41432 1.89697 2.41432 2.06942 2.24187 2.06942L2.06942 2.24187C2.06942 2.24187 2.06942 2.24187 2.06942 2.41432L1.89697 2.58677C1.89697 2.58677 1.89697 2.58677 1.89697 2.75922C1.89697 2.75922 1.72452 2.93168 1.72452 3.10413C1.72452 3.10413 1.72452 3.10413 1.72452 3.27658C1.20716 3.44903 1.03471 3.62148 1.03471 3.79393C0.344903 4.82864 0.172452 5.86335 0 7.07051C0 7.24297 0 7.41542 0 7.58787C0 7.76032 0 7.93277 0 8.10522C0 8.27767 0 8.45013 0 8.45013C0 8.62258 0 8.62258 0 8.79503C0 8.79503 0 8.79503 0 8.96748C0 9.13993 0 9.13993 0 9.31238V9.48484C0 9.65729 0 9.65729 0 9.82974V10.0022V10.1746C0 10.1746 0 10.3471 0.172452 10.3471V10.5195C0.172452 10.692 0.344903 10.8644 0.344903 11.0369L11.2093 29.8341L16.3829 38.6291C18.2799 41.2159 20.6942 42.5955 23.4534 42.5955C23.6259 42.5955 23.7983 42.5955 23.9708 42.5955C24.1432 42.5955 24.3157 42.5955 24.3157 42.5955C24.4881 42.5955 24.4881 42.5955 24.6606 42.5955C24.6606 42.5955 24.6606 42.5955 24.833 42.5955C24.833 42.5955 25.0055 42.5955 25.1779 42.5955H25.3504C25.5228 42.5955 25.5228 42.5955 25.6953 42.4231H25.8677H26.0402C26.2126 42.4231 26.2126 42.2506 26.3851 42.2506C26.73 42.0782 26.9024 42.0782 27.0749 41.9057L27.2473 41.7333C27.2473 41.7333 27.2473 41.7333 27.4198 41.7333L27.5922 41.5608C27.5922 41.5608 27.7647 41.5608 27.7647 41.3884L27.9371 41.2159L28.1096 41.0435L28.2821 40.871L28.4545 40.6986L28.627 40.5261L28.7994 40.3537C28.7994 40.3537 28.7994 40.1812 28.9719 40.1812L29.1443 40.0088C29.1443 40.0088 29.1443 39.8363 29.3168 39.8363C29.3168 39.6639 29.4892 39.4914 29.4892 39.4914L36.2148 28.1096C33.9729 28.7994 31.7311 29.1443 29.3168 29.1443C29.1443 29.1443 28.9719 29.1443 28.7994 29.1443H28.627C28.4545 29.1443 28.4545 29.1443 28.2821 29.1443H28.1096C27.9371 29.1443 27.9371 29.1443 27.7647 29.1443H27.5922C27.4198 29.1443 27.4198 29.1443 27.2473 29.1443H27.0749C26.9024 29.1443 26.9024 29.1443 26.73 29.1443H26.5575C26.3851 29.1443 26.2126 29.1443 26.0402 29.1443H25.8677C25.6953 29.1443 25.6953 29.1443 25.5228 29.1443H25.3504C25.1779 29.1443 25.1779 29.1443 25.0055 29.1443H24.833C24.833 29.1443 24.6606 29.1443 24.4881 29.1443C24.4881 29.1443 24.3157 29.1443 24.1432 29.1443C23.9708 29.1443 23.9708 29.1443 23.7983 29.1443H23.6259C23.6259 29.1443 23.4534 29.1443 23.281 29.1443H23.1085C22.9361 29.1443 22.7636 28.9719 22.5912 28.9719C22.5912 28.9719 22.4187 28.9719 22.2462 28.9719H22.0738C22.0738 28.9719 21.9013 28.9719 21.7289 28.7994H21.5564C21.384 28.7994 21.384 28.7994 21.2115 28.627H21.0391C21.0391 28.627 20.8666 28.627 20.6942 28.4545H20.5217C20.3493 28.4545 20.3493 28.4545 20.1768 28.2821C20.1768 28.2821 20.1768 28.2821 20.0044 28.2821C19.6595 26.9024 19.3146 26.73 18.9697 26.5575C18.9697 26.5575 18.9697 26.5575 18.7972 26.5575C18.6248 26.5575 18.6248 26.3851 18.4523 26.3851C18.4523 26.3851 18.4523 26.3851 18.2799 26.3851C18.1074 26.3851 18.1074 26.2126 17.935 26.2126C17.935 26.2126 17.935 26.2126 17.7625 26.2126C17.5901 26.2126 17.5901 26.0402 17.4176 26.0402C17.0727 25.5228 16.5553 25.1779 16.038 24.833C15.8655 24.833 15.6931 24.6606 15.6931 24.6606C15.5206 24.6606 15.5206 24.4881 15.3482 24.4881C16.038 24.833 16.7278 25.1779 17.4176 25.5228C18.1074 25.6953 18.6248 25.8677 19.3146 26.2126C19.3146 26.2126 19.3146 26.2126 19.487 26.2126C19.6595 26.2126 19.8319 26.3851 20.0044 26.3851C20.3493 26.5575 20.8666 26.5575 21.384 26.73C21.384 26.73 21.384 26.73 21.5564 26.73C21.7289 26.73 21.9013 26.73 22.0738 26.9024H22.2462C22.4187 26.9024 22.5912 26.9024 22.7636 27.0749C22.7636 27.0749 22.7636 27.0749 22.9361 27.0749C23.1085 27.0749 23.4534 27.0749 23.6259 27.0749C23.6259 27.0749 23.6259 27.0749 23.7983 27.0749C23.9708 27.0749 24.1432 27.0749 24.3157 27.0749H24.4881C24.6606 27.0749 24.833 27.0749 25.0055 27.0749H25.1779C25.3504 27.0749 25.6953 27.0749 25.8677 27.0749C31.3862 27.0749 36.3873 25.0055 40.1812 21.384L46.0446 11.2094C47.4242 8.96748 47.4242 6.0358 46.0446 3.79393C45.8721 3.62148 45.6997 3.44903 45.6997 3.44903ZM23.4534 24.4881C22.4187 24.4881 21.5564 23.9708 21.0391 23.1085L17.4176 17.0727L16.5553 15.5206C16.5553 15.5206 16.5553 15.3482 16.3829 15.3482C16.038 14.4859 16.038 13.6237 16.5553 12.7614C16.5553 12.7614 16.5553 12.589 16.7278 12.589C16.7278 12.589 16.7278 12.4165 16.9003 12.4165C17.4176 11.7267 18.1074 11.3818 18.9697 11.3818H27.7647H27.9371H28.1096C28.2821 11.3818 28.4545 11.3818 28.4545 11.5543C28.627 11.5543 28.7994 11.7267 28.7994 11.7267C28.9719 11.7267 29.1443 11.8992 29.1443 12.0716C29.1443 12.0716 29.1443 12.2441 29.3168 12.2441L29.4892 12.4165C29.4892 12.4165 29.4892 12.589 29.6617 12.589L29.8341 12.7614C30.3515 13.6237 30.3515 14.6584 29.8341 15.5206L29.6617 16.5553L27.5922 20.1768L25.8677 23.1085C25.3504 23.9708 24.4881 24.4881 23.4534 24.4881Z" fill="#FF7322"/>
<path d="M45.8716 3.79425C45.1818 2.58708 44.3196 1.72483 43.2849 1.03502C42.5951 8.27799 37.2491 14.1413 29.8336 16.0383L25.8673 23.1088C25.3499 23.9711 24.4876 24.4884 23.4529 24.4884C22.4182 24.4884 21.556 23.9711 21.0386 23.1088L16.5549 15.5209C16.5549 15.5209 16.5549 15.3485 16.3824 15.3485C10.1742 12.5893 5.69042 6.89837 5.51797 0.345215C5.00062 0.517666 4.31081 0.690118 3.79346 1.03502C3.79346 1.72483 3.79346 2.58709 3.79346 3.44934C3.79346 16.5557 13.6232 27.0752 25.6948 27.0752C31.2133 27.0752 36.2144 25.0058 40.0083 21.3843L45.8716 11.2097C47.2513 8.96779 47.2513 6.03612 45.8716 3.79425Z" fill="#FF7322"/>
<path d="M29.6616 16.5553C36.2148 14.141 40.871 8.27767 40.871 1.55206C40.871 1.03471 40.871 0.689806 40.871 0.172452C40.3536 0 39.8363 0 39.3189 0H7.41539C6.55313 0 5.69087 0.172452 4.82861 0.517355C4.82861 0.862258 4.82861 1.20716 4.82861 1.55206C4.82861 8.79503 10.1746 15.0033 17.4176 17.0727L16.5553 15.5206C16.038 14.6584 16.038 13.6237 16.5553 12.7614C17.0727 11.8992 18.1074 11.3818 18.9696 11.3818H27.7647C28.7994 11.3818 29.6616 11.8992 30.179 12.7614C30.6963 13.6237 30.6963 14.6584 30.179 15.5206L29.6616 16.5553Z" fill="#FF7322"/>
<path d="M45.8716 3.79416C45.6992 3.62171 45.5267 3.27681 45.5267 3.10436C44.6645 15.3484 35.697 24.8333 24.6601 24.8333C13.4507 24.8333 4.31081 14.8311 3.79346 2.41455C3.79346 2.75945 3.79346 3.10436 3.79346 3.44926C3.79346 16.5556 13.6232 27.0751 25.6948 27.0751C31.2133 27.0751 36.2144 25.0057 40.0083 21.3842L45.8716 11.2096C47.2513 8.96771 47.2513 6.03603 45.8716 3.79416Z" fill="#FF7322"/>
<path d="M14.8308 23.9707C15.1757 31.2137 18.6247 37.7668 24.1432 42.5955C26.5575 42.423 28.6269 41.0434 29.8341 38.974L36.2148 28.1095C33.9729 28.7993 31.7311 29.1443 29.3167 29.1443C23.7983 29.1443 18.7972 27.2473 14.8308 23.9707Z" fill="#FF7322"/>
<path d="M43.2853 1.03467C42.5955 8.27763 37.2495 14.141 29.8341 16.038L25.8677 23.1085C25.3504 23.9707 24.4881 24.4881 23.4534 24.4881C22.4187 24.4881 21.5564 23.9707 21.0391 23.1085L16.5553 15.5206C16.5553 15.5206 16.5553 15.3481 16.3829 15.3481C16.2104 15.1757 15.8655 15.0032 15.5206 14.8308C15.0033 16.9002 14.8308 19.1421 14.8308 21.384C14.8308 22.4187 14.8308 23.2809 15.0033 24.1432C18.1074 26.0401 21.9013 27.0749 25.6953 27.0749C31.2137 27.0749 36.2148 25.0054 40.0087 21.384L45.8721 11.2093C47.2517 8.96744 47.2517 6.03576 45.8721 3.79389C45.1823 2.58673 44.32 1.72447 43.2853 1.03467Z" fill="#FF7322"/>
<path d="M16.5554 12.7619C16.5554 12.5894 16.7278 12.5894 16.7278 12.417C12.0716 11.3823 7.93281 8.62304 5.17358 4.8291C6.5532 10.6925 11.2094 15.3486 17.4176 17.0732L16.5554 15.5211C16.038 14.6588 16.038 13.6241 16.5554 12.7619Z" fill="#FF7322"/>
<path d="M39.8358 0.000488281C38.1113 5.17404 33.9725 9.48532 28.6265 11.5547C29.3163 11.7272 29.8336 12.2445 30.1785 12.7619C30.6959 13.6242 30.6959 14.6589 30.1785 15.5211L29.6612 16.5558C36.2143 14.1415 40.8705 8.27816 40.8705 1.55255C40.8705 1.0352 40.8705 0.690295 40.8705 0.17294C40.5256 0.000488281 40.1807 0.000488281 39.8358 0.000488281Z" fill="#FF7322"/>
<path d="M16.556 15.521C16.556 15.521 16.556 15.3485 16.3836 15.3485C10.1753 12.5893 5.69156 6.89837 5.5191 0.345215C5.00175 0.345215 4.4844 0.690118 3.96704 0.86257C5.1742 9.48515 11.0376 16.5557 18.7979 19.1424L16.556 15.521Z" fill="#DC611A"/>
<path d="M46.0451 3.96634C46.0451 3.96634 46.0451 3.79389 45.8726 3.79389C45.1828 2.58673 44.3206 1.72447 43.2859 1.03467C42.5961 8.27763 37.2501 14.141 29.8346 16.038L27.5928 20.1768C36.3878 19.1421 43.6308 12.5889 46.0451 3.96634Z" fill="#FF7322"/>
<path d="M188.233 33.7983C186.1 33.7983 184.315 33.4432 182.876 32.733C181.438 31.9983 180.359 30.884 179.64 29.3901C178.921 27.8962 178.561 25.9982 178.561 23.6962C178.561 21.3696 178.921 19.4716 179.64 18.0022C180.359 16.5083 181.438 15.4063 182.876 14.696C184.315 13.9613 186.1 13.594 188.233 13.594C190.391 13.594 192.176 13.9613 193.59 14.696C195.029 15.4063 196.107 16.5083 196.827 18.0022C197.546 19.4716 197.905 21.3696 197.905 23.6962C197.905 25.9982 197.546 27.8962 196.827 29.3901C196.107 30.884 195.029 31.9983 193.59 32.733C192.176 33.4432 190.391 33.7983 188.233 33.7983ZM188.233 30.1248C189.424 30.1248 190.378 29.9044 191.098 29.4636C191.842 28.9983 192.375 28.3125 192.697 27.4064C193.044 26.4758 193.218 25.3247 193.218 23.9533V23.439C193.218 22.0676 193.044 20.9288 192.697 20.0226C192.375 19.092 191.842 18.4063 191.098 17.9655C190.378 17.5002 189.424 17.2675 188.233 17.2675C187.043 17.2675 186.076 17.5002 185.332 17.9655C184.612 18.4063 184.079 19.092 183.732 20.0226C183.41 20.9288 183.248 22.0676 183.248 23.439V23.9533C183.248 25.3247 183.41 26.4758 183.732 27.4064C184.079 28.3125 184.612 28.9983 185.332 29.4636C186.076 29.9044 187.043 30.1248 188.233 30.1248Z" fill="white"/>
<path d="M164.088 33.3575V14.0348H167.883L168.255 17.0838H168.515C168.763 16.4716 169.061 15.9083 169.408 15.394C169.78 14.8552 170.251 14.4267 170.821 14.1083C171.392 13.7654 172.086 13.594 172.905 13.594C173.301 13.594 173.661 13.6307 173.984 13.7042C174.331 13.7777 174.591 13.8511 174.765 13.9246V18.1491H173.388C172.619 18.1491 171.937 18.2594 171.342 18.4798C170.747 18.6757 170.239 18.9941 169.817 19.4349C169.42 19.8757 169.123 20.4267 168.924 21.088C168.726 21.7492 168.627 22.5206 168.627 23.4023V33.3575H164.088Z" fill="white"/>
<path d="M155.236 33.7981C154.02 33.7981 153.066 33.5654 152.371 33.1001C151.677 32.6103 151.181 31.9981 150.883 31.2634C150.61 30.5042 150.474 29.7327 150.474 28.949V17.7081H148.13V14.0346H150.586L151.404 8.63452H155.012V14.0346H158.398V17.7081H155.012V28.5082C155.012 29.0225 155.149 29.4266 155.422 29.7205C155.695 29.9899 156.104 30.1246 156.649 30.1246H158.398V33.2103C158.15 33.3083 157.84 33.394 157.468 33.4675C157.121 33.5654 156.749 33.6389 156.352 33.6879C155.955 33.7613 155.583 33.7981 155.236 33.7981Z" fill="white"/>
<path d="M126.016 33.3578V6.79834H130.554V16.2393H130.815C131.236 15.725 131.732 15.2719 132.303 14.8801C132.873 14.4882 133.518 14.1821 134.237 13.9617C134.981 13.7168 135.799 13.5943 136.692 13.5943C137.932 13.5943 139.023 13.8147 139.966 14.2556C140.933 14.6964 141.689 15.4066 142.235 16.3862C142.781 17.3658 143.054 18.676 143.054 20.3169V33.3578H138.478V21.125C138.478 20.4393 138.391 19.876 138.217 19.4352C138.069 18.9699 137.833 18.6026 137.511 18.3332C137.213 18.0393 136.841 17.8311 136.395 17.7087C135.948 17.5862 135.452 17.525 134.907 17.525C134.088 17.525 133.344 17.7209 132.675 18.1128C132.03 18.5046 131.509 19.0434 131.112 19.7291C130.74 20.4148 130.554 21.2108 130.554 22.1169V33.3578H126.016Z" fill="white"/>
<path d="M111.494 33.7983C109.46 33.7983 107.761 33.4432 106.397 32.733C105.058 31.9983 104.053 30.884 103.384 29.3901C102.714 27.8962 102.379 25.9982 102.379 23.6962C102.379 21.3696 102.714 19.4716 103.384 18.0022C104.078 16.5083 105.095 15.4063 106.434 14.696C107.798 13.9613 109.485 13.594 111.494 13.594C112.808 13.594 113.974 13.7532 114.99 14.0716C116.007 14.3899 116.875 14.8797 117.594 15.541C118.338 16.1777 118.896 16.9736 119.268 17.9287C119.64 18.8839 119.826 19.9982 119.826 21.2716H115.214C115.214 20.3655 115.077 19.6186 114.804 19.0308C114.532 18.443 114.11 18.0022 113.54 17.7083C112.994 17.39 112.287 17.2308 111.419 17.2308C110.402 17.2308 109.572 17.4634 108.927 17.9287C108.282 18.3941 107.798 19.092 107.476 20.0226C107.178 20.9288 107.029 22.0798 107.029 23.4757V23.9533C107.029 25.3247 107.178 26.4758 107.476 27.4064C107.798 28.337 108.294 29.035 108.964 29.5003C109.634 29.9411 110.514 30.1615 111.605 30.1615C112.448 30.1615 113.143 30.0146 113.688 29.7207C114.259 29.4023 114.693 28.937 114.99 28.3248C115.288 27.7125 115.437 26.9778 115.437 26.1207H119.826C119.826 27.3207 119.64 28.3982 119.268 29.3534C118.896 30.3085 118.351 31.1166 117.632 31.7779C116.912 32.4391 116.032 32.9412 114.99 33.284C113.974 33.6269 112.808 33.7983 111.494 33.7983Z" fill="white"/>
<path d="M88.5765 33.7983C86.4932 33.7983 84.7572 33.4432 83.3684 32.733C81.9796 31.9983 80.9379 30.884 80.2435 29.3901C79.5491 27.8962 79.2019 25.9982 79.2019 23.6962C79.2019 21.3696 79.5491 19.4716 80.2435 18.0022C80.9379 16.5083 81.9796 15.4063 83.3684 14.696C84.7572 13.9613 86.4932 13.594 88.5765 13.594C90.4613 13.594 92.0361 13.9491 93.3009 14.6593C94.5906 15.345 95.5578 16.4104 96.2026 17.8553C96.8474 19.3002 97.1698 21.1737 97.1698 23.4757V24.7982H83.852C83.9016 25.9982 84.0876 27.0146 84.41 27.8472C84.7324 28.6554 85.2284 29.2676 85.898 29.684C86.5924 30.0758 87.4976 30.2717 88.6137 30.2717C89.1841 30.2717 89.7173 30.1983 90.2133 30.0513C90.7093 29.9044 91.1433 29.684 91.5153 29.3901C91.8873 29.0717 92.1725 28.6799 92.3709 28.2146C92.5941 27.7493 92.7057 27.2105 92.7057 26.5982H97.1698C97.1698 27.8227 96.9466 28.888 96.5002 29.7942C96.0786 30.7003 95.471 31.4473 94.6774 32.035C93.9086 32.6228 93.0033 33.0636 91.9617 33.3575C90.9201 33.6514 89.7917 33.7983 88.5765 33.7983ZM83.9264 21.639H92.4453C92.4453 20.8308 92.3461 20.1451 92.1477 19.5818C91.9741 19.0185 91.7137 18.5532 91.3665 18.1859C91.0441 17.8185 90.6473 17.5614 90.1761 17.4144C89.7049 17.243 89.1717 17.1573 88.5765 17.1573C87.6092 17.1573 86.7908 17.3165 86.1212 17.6349C85.4764 17.9532 84.9804 18.443 84.6332 19.1043C84.286 19.7655 84.0504 20.6104 83.9264 21.639Z" fill="white"/>
<path d="M64.4487 33.3573V12.2713H56.3018V8.15698H77.4689V12.2713H69.2848V33.3573H64.4487Z" fill="white"/>
</svg>
