<svg width="196" height="43" viewBox="0 0 196 43" fill="none" xmlns="http://www.w3.org/2000/svg">
<path d="M45.2597 3.8324C45.2597 3.66171 45.0889 3.66171 45.0889 3.49101C44.4057 2.63752 43.7226 1.95473 42.8686 1.44264C42.3562 7.75844 38.0864 12.8794 32.1088 15.4398C36.8909 12.7087 40.1359 7.92914 40.4775 2.46682C40.4775 2.29613 40.4775 2.12543 40.4775 1.78404C40.4775 1.27194 40.4775 0.930549 40.4775 0.418457C40.3067 0.418457 40.1359 0.418457 39.9651 0.418457C39.7944 0.418457 39.6236 0.418457 39.4528 0.418457C39.282 0.418457 39.1112 0.418457 38.9404 0.418457H34.4998H7.34402C6.83165 0.418457 6.31928 0.418457 5.8069 0.589154C5.63611 0.589154 5.63611 0.589154 5.46532 0.759852C5.46532 0.759852 5.46532 0.759852 5.29453 0.759852H5.12374C5.12374 0.759852 5.12374 0.759852 4.95295 0.759852C4.95295 0.759852 4.95295 0.759852 4.78216 0.759852C4.78216 0.759852 4.78216 0.759852 4.61136 0.759852C4.44057 0.759852 4.44057 0.759852 4.26978 0.930549C4.26978 0.930549 4.26978 0.930549 4.09899 0.930549C3.9282 0.930549 3.9282 1.10125 3.75741 1.10125C3.41582 1.61334 3.07424 1.95473 2.56187 2.12543C2.39108 2.29613 2.39108 2.46682 2.22029 2.46682L2.04949 2.63752C2.04949 2.63752 2.04949 2.63752 2.04949 2.80822L1.8787 2.97892C1.8787 2.97892 1.8787 2.97892 1.8787 3.14961C1.8787 3.14961 1.70791 3.32031 1.70791 3.49101C1.70791 3.49101 1.70791 3.49101 1.70791 3.66171C1.19554 3.8324 1.02475 4.0031 1.02475 4.1738C0.341582 5.19798 0.170791 6.22217 0 7.41705C0 7.58774 0 7.75844 0 7.92914C0 8.09984 0 8.27053 0 8.44123C0 8.61193 0 8.78263 0 8.78263C0 8.95332 0 8.95332 0 9.12402C0 9.12402 0 9.12402 0 9.29472C0 9.46541 0 9.46542 0 9.63611V9.80681C0 9.97751 0 9.97751 0 10.1482V10.3189V10.4896C0 10.4896 0 10.6603 0.170791 10.6603V10.831C0.170791 11.0017 0.341582 11.1724 0.341582 11.3431L11.1014 29.9491L16.2252 38.6547C18.1039 41.2151 20.4949 42.5807 23.2276 42.5807C23.3984 42.5807 23.5692 42.5807 23.74 42.5807C23.9108 42.5807 24.0816 42.5807 24.0816 42.5807C24.2524 42.5807 24.2524 42.5807 24.4231 42.5807C24.4231 42.5807 24.4231 42.5807 24.5939 42.5807C24.5939 42.5807 24.7647 42.5807 24.9355 42.5807H25.1063C25.2771 42.5807 25.2771 42.5807 25.4479 42.41H25.6187H25.7895C25.9603 42.41 25.9603 42.2393 26.1311 42.2393C26.4726 42.0686 26.6434 42.0686 26.8142 41.8979L26.985 41.7272C26.985 41.7272 26.985 41.7272 27.1558 41.7272L27.3266 41.5565C27.3266 41.5565 27.4974 41.5565 27.4974 41.3858L27.6682 41.2151L27.839 41.0444L28.0098 40.8737L28.1806 40.703L28.3513 40.5323L28.5221 40.3616C28.5221 40.3616 28.5221 40.1909 28.6929 40.1909L28.8637 40.0202C28.8637 40.0202 28.8637 39.8495 29.0345 39.8495C29.0345 39.6788 29.2053 39.5081 29.2053 39.5081L35.8662 28.2421C33.6459 28.9249 31.4256 29.2663 29.0345 29.2663C28.8637 29.2663 28.6929 29.2663 28.5221 29.2663H28.3513C28.1806 29.2663 28.1806 29.2663 28.0098 29.2663H27.839C27.6682 29.2663 27.6682 29.2663 27.4974 29.2663H27.3266C27.1558 29.2663 27.1558 29.2663 26.985 29.2663H26.8142C26.6434 29.2663 26.6434 29.2663 26.4726 29.2663H26.3019C26.1311 29.2663 25.9603 29.2663 25.7895 29.2663H25.6187C25.4479 29.2663 25.4479 29.2663 25.2771 29.2663H25.1063C24.9355 29.2663 24.9355 29.2663 24.7647 29.2663H24.5939C24.5939 29.2663 24.4231 29.2663 24.2524 29.2663C24.2524 29.2663 24.0816 29.2663 23.9108 29.2663C23.74 29.2663 23.74 29.2663 23.5692 29.2663H23.3984C23.3984 29.2663 23.2276 29.2663 23.0568 29.2663H22.886C22.7152 29.2663 22.5444 29.0956 22.3737 29.0956C22.3737 29.0956 22.2029 29.0956 22.0321 29.0956H21.8613C21.8613 29.0956 21.6905 29.0956 21.5197 28.9249H21.3489C21.1781 28.9249 21.1781 28.9249 21.0073 28.7542H20.8365C20.8365 28.7542 20.6657 28.7542 20.4949 28.5835H20.3242C20.1534 28.5835 20.1534 28.5835 19.9826 28.4128C19.9826 28.4128 19.9826 28.4128 19.8118 28.4128C19.4702 27.0472 19.1286 26.8765 18.787 26.7058C18.787 26.7058 18.787 26.7058 18.6162 26.7058C18.4455 26.7058 18.4455 26.5351 18.2747 26.5351C18.2747 26.5351 18.2747 26.5351 18.1039 26.5351C17.9331 26.5351 17.9331 26.3644 17.7623 26.3644C17.7623 26.3644 17.7623 26.3644 17.5915 26.3644C17.4207 26.3644 17.4207 26.1938 17.2499 26.1938C16.9083 25.6817 16.396 25.3403 15.8836 24.9989C15.7128 24.9989 15.542 24.8282 15.542 24.8282C15.3712 24.8282 15.3712 24.6575 15.2004 24.6575C15.8836 24.9989 16.5668 25.3403 17.2499 25.6817C17.9331 25.8524 18.4455 26.0231 19.1286 26.3644C19.1286 26.3644 19.1286 26.3644 19.2994 26.3644C19.4702 26.3644 19.641 26.5351 19.8118 26.5351C20.1534 26.7058 20.6657 26.7058 21.1781 26.8765C21.1781 26.8765 21.1781 26.8765 21.3489 26.8765C21.5197 26.8765 21.6905 26.8765 21.8613 27.0472H22.0321C22.2029 27.0472 22.3737 27.0472 22.5444 27.2179C22.5444 27.2179 22.5444 27.2179 22.7152 27.2179C22.886 27.2179 23.2276 27.2179 23.3984 27.2179C23.3984 27.2179 23.3984 27.2179 23.5692 27.2179C23.74 27.2179 23.9108 27.2179 24.0816 27.2179H24.2524C24.4231 27.2179 24.5939 27.2179 24.7647 27.2179H24.9355C25.1063 27.2179 25.4479 27.2179 25.6187 27.2179C31.084 27.2179 36.037 25.1696 39.7944 21.5849L45.6013 11.5138C46.9676 9.29472 46.9676 6.39286 45.6013 4.1738C45.4305 4.0031 45.2597 3.8324 45.2597 3.8324ZM23.2276 24.6575C22.2029 24.6575 21.3489 24.1454 20.8365 23.2919L17.2499 17.3175L16.396 15.7812C16.396 15.7812 16.396 15.6105 16.2252 15.6105C15.8836 14.757 15.8836 13.9035 16.396 13.0501C16.396 13.0501 16.396 12.8794 16.5668 12.8794C16.5668 12.8794 16.5668 12.7087 16.7375 12.7087C17.2499 12.0259 17.9331 11.6845 18.787 11.6845H27.4974H27.6682H27.839C28.0098 11.6845 28.1806 11.6845 28.1806 11.8552C28.3513 11.8552 28.5221 12.0259 28.5221 12.0259C28.6929 12.0259 28.8637 12.1966 28.8637 12.3673C28.8637 12.3673 28.8637 12.538 29.0345 12.538L29.2053 12.7087C29.2053 12.7087 29.2053 12.8794 29.3761 12.8794L29.5469 13.0501C30.0593 13.9035 30.0593 14.9277 29.5469 15.7812L29.3761 16.8054L27.3266 20.39L25.6187 23.2919C25.1063 24.1454 24.2524 24.6575 23.2276 24.6575Z" fill="#3147FF"/>
<path d="M45.4299 4.17371C44.7467 2.97883 43.8928 2.12534 42.868 1.44255C42.1849 8.61184 36.8903 14.4155 29.5463 16.2932L25.6181 23.2918C25.1057 24.1453 24.2518 24.6574 23.227 24.6574C22.2023 24.6574 21.3483 24.1453 20.836 23.2918L16.3954 15.7811C16.3954 15.7811 16.3954 15.6104 16.2246 15.6104C10.0761 12.8793 5.63554 7.24626 5.46475 0.759766C4.95237 0.930463 4.26921 1.10116 3.75684 1.44255C3.75684 2.12534 3.75684 2.97883 3.75684 3.83232C3.75684 16.8053 13.4919 27.2178 25.4473 27.2178C30.9126 27.2178 35.8656 25.1695 39.623 21.5848L45.4299 11.5137C46.7962 9.29463 46.7962 6.39278 45.4299 4.17371Z" fill="#3147FF"/>
<path d="M29.3767 16.8054C35.8667 14.4156 40.4781 8.61193 40.4781 1.95473C40.4781 1.44264 40.4781 1.10125 40.4781 0.589154C39.9657 0.418457 39.4533 0.418457 38.941 0.418457H7.34458C6.49063 0.418457 5.63667 0.589154 4.78271 0.930549C4.78271 1.27194 4.78271 1.61334 4.78271 1.95473C4.78271 9.12402 10.0772 15.2691 17.2505 17.3175L16.3965 15.7812C15.8841 14.9277 15.8841 13.9035 16.3965 13.0501C16.9089 12.1966 17.9336 11.6845 18.7876 11.6845H27.498C28.5227 11.6845 29.3767 12.1966 29.889 13.0501C30.4014 13.9035 30.4014 14.9277 29.889 15.7812L29.3767 16.8054Z" fill="#3147FF"/>
<path d="M45.4299 4.17417C45.2591 4.00347 45.0883 3.66208 45.0883 3.49138C44.2344 15.6109 35.3532 24.9992 24.4226 24.9992C13.3211 24.9992 4.26921 15.0988 3.75684 2.80859C3.75684 3.14999 3.75684 3.49138 3.75684 3.83278C3.75684 16.8058 13.4919 27.2183 25.4473 27.2183C30.9126 27.2183 35.8656 25.1699 39.623 21.5853L45.4299 11.5142C46.7962 9.29509 46.7962 6.39324 45.4299 4.17417Z" fill="#3147FF"/>
<path d="M14.688 24.1455C15.0296 31.3148 18.4454 37.8013 23.9107 42.5808C26.3018 42.4101 28.3513 41.0445 29.5468 38.9962L35.8661 28.2422C33.6458 28.925 31.4255 29.2664 29.0345 29.2664C23.5691 29.2664 18.6162 27.3888 14.688 24.1455Z" fill="#3147FF"/>
<path d="M42.8685 1.44238C42.1854 8.61167 36.8909 14.4154 29.5468 16.2931L25.6186 23.2916C25.1063 24.1451 24.2523 24.6572 23.2276 24.6572C22.2028 24.6572 21.3488 24.1451 20.8365 23.2916L16.3959 15.781C16.3959 15.781 16.3959 15.6103 16.2251 15.6103C16.0543 15.4396 15.7127 15.2689 15.3712 15.0982C14.8588 17.1465 14.688 19.3656 14.688 21.5847C14.688 22.6089 14.688 23.4623 14.8588 24.3158C17.933 26.1935 21.6904 27.2177 25.4478 27.2177C30.9132 27.2177 35.8661 25.1693 39.6235 21.5847L45.4304 11.5135C46.7967 9.29446 46.7967 6.39261 45.4304 4.17354C44.7473 2.97866 43.8933 2.12517 42.8685 1.44238Z" fill="#3147FF"/>
<path d="M16.3958 13.0503C16.3958 12.8796 16.5665 12.8796 16.5665 12.7089C11.9552 11.6847 7.85619 8.95358 5.12354 5.19824C6.48987 11.002 11.1012 15.6108 17.2497 17.3178L16.3958 15.7815C15.8834 14.928 15.8834 13.9038 16.3958 13.0503Z" fill="#3147FF"/>
<path d="M39.4525 0.418457C37.7446 5.53938 33.6456 9.80681 28.3511 11.8552C29.0342 12.0259 29.5466 12.538 29.8882 13.0501C30.4006 13.9035 30.4006 14.9277 29.8882 15.7812L29.3758 16.8054C35.8659 14.4156 40.4773 8.61193 40.4773 1.95473C40.4773 1.44264 40.4773 1.10125 40.4773 0.589154C40.1357 0.418457 39.7941 0.418457 39.4525 0.418457Z" fill="#3147FF"/>
<path d="M16.3965 15.7811C16.3965 15.7811 16.3965 15.6104 16.2257 15.6104C10.0772 12.8793 5.63662 7.24626 5.46583 0.759766C4.95346 0.759766 4.44108 1.10116 3.92871 1.27186C5.12425 9.80672 10.9312 16.8053 18.6168 19.3658L16.3965 15.7811Z" fill="#1F33DC"/>
<path d="M45.6018 4.34424C45.6018 4.34424 45.6018 4.17354 45.431 4.17354C44.7479 2.97866 43.8939 2.12517 42.8691 1.44238C42.186 8.61167 36.8915 14.4154 29.5474 16.2931L27.3271 20.3898C36.0375 19.3656 43.2107 12.8791 45.6018 4.34424Z" fill="#3147FF"/>
<path d="M186.421 34.7849C184.309 34.7849 182.54 34.429 181.116 33.7171C179.691 32.9806 178.623 31.8637 177.91 30.3663C177.198 28.8688 176.842 26.9663 176.842 24.6588C176.842 22.3268 177.198 20.4243 177.91 18.9514C178.623 17.4539 179.691 16.3493 181.116 15.6374C182.54 14.9009 184.309 14.5327 186.421 14.5327C188.558 14.5327 190.326 14.9009 191.726 15.6374C193.151 16.3493 194.219 17.4539 194.931 18.9514C195.644 20.4243 196 22.3268 196 24.6588C196 26.9663 195.644 28.8688 194.931 30.3663C194.219 31.8637 193.151 32.9806 191.726 33.7171C190.326 34.429 188.558 34.7849 186.421 34.7849ZM186.421 31.1027C187.6 31.1027 188.545 30.8818 189.258 30.4399C189.995 29.9735 190.523 29.2861 190.842 28.3779C191.186 27.445 191.358 26.2913 191.358 24.9166V24.4011C191.358 23.0264 191.186 21.8849 190.842 20.9766C190.523 20.0438 189.995 19.3564 189.258 18.9146C188.545 18.4481 187.6 18.2149 186.421 18.2149C185.242 18.2149 184.284 18.4481 183.547 18.9146C182.835 19.3564 182.307 20.0438 181.963 20.9766C181.644 21.8849 181.484 23.0264 181.484 24.4011V24.9166C181.484 26.2913 181.644 27.445 181.963 28.3779C182.307 29.2861 182.835 29.9735 183.547 30.4399C184.284 30.8818 185.242 31.1027 186.421 31.1027Z" fill="#161616"/>
<path d="M162.509 34.3431V14.9746H166.267L166.635 18.0308H166.893C167.139 17.4171 167.433 16.8525 167.777 16.337C168.146 15.7969 168.612 15.3674 169.177 15.0482C169.742 14.7046 170.43 14.5327 171.24 14.5327C171.633 14.5327 171.99 14.5695 172.309 14.6432C172.653 14.7168 172.911 14.7905 173.083 14.8641V19.0987H171.719C170.958 19.0987 170.283 19.2091 169.693 19.4301C169.104 19.6265 168.6 19.9456 168.183 20.3874C167.79 20.8293 167.495 21.3816 167.298 22.0444C167.102 22.7072 167.004 23.4805 167.004 24.3642V34.3431H162.509Z" fill="#161616"/>
<path d="M153.742 34.7847C152.538 34.7847 151.592 34.5515 150.905 34.0851C150.217 33.5942 149.726 32.9805 149.431 32.244C149.161 31.483 149.026 30.7098 149.026 29.9242V18.6566H146.705V14.9744H149.136L149.947 9.56152H153.52V14.9744H156.873V18.6566H153.52V29.4823C153.52 29.9979 153.656 30.4029 153.926 30.6975C154.196 30.9675 154.601 31.1025 155.142 31.1025H156.873V34.1956C156.627 34.2938 156.32 34.3797 155.952 34.4533C155.608 34.5515 155.24 34.6252 154.847 34.6743C154.454 34.7479 154.085 34.7847 153.742 34.7847Z" fill="#161616"/>
<path d="M124.802 34.3437V7.72119H129.297V17.1845H129.555C129.972 16.669 130.464 16.2149 131.029 15.8221C131.594 15.4293 132.232 15.1225 132.944 14.9015C133.681 14.656 134.492 14.5333 135.376 14.5333C136.604 14.5333 137.685 14.7542 138.618 15.1961C139.576 15.638 140.325 16.3499 140.866 17.3318C141.406 18.3137 141.676 19.627 141.676 21.2718V34.3437H137.144V22.0819C137.144 21.3945 137.059 20.8299 136.887 20.388C136.739 19.9216 136.506 19.5534 136.187 19.2834C135.892 18.9888 135.523 18.7801 135.081 18.6574C134.639 18.5346 134.148 18.4733 133.608 18.4733C132.797 18.4733 132.06 18.6697 131.397 19.0624C130.758 19.4552 130.243 19.9953 129.85 20.6826C129.481 21.37 129.297 22.1678 129.297 23.0761V34.3437H124.802Z" fill="#161616"/>
<path d="M110.42 34.7849C108.406 34.7849 106.723 34.429 105.373 33.7171C104.046 32.9806 103.051 31.8637 102.388 30.3663C101.725 28.8688 101.394 26.9663 101.394 24.6588C101.394 22.3268 101.725 20.4243 102.388 18.9514C103.076 17.4539 104.083 16.3493 105.409 15.6374C106.76 14.9009 108.43 14.5327 110.42 14.5327C111.722 14.5327 112.876 14.6923 113.883 15.0114C114.89 15.3305 115.75 15.8215 116.462 16.4843C117.199 17.1225 117.752 17.9204 118.12 18.8777C118.488 19.8351 118.673 20.9521 118.673 22.2286H114.104C114.104 21.3203 113.969 20.5716 113.699 19.9824C113.429 19.3932 113.011 18.9514 112.446 18.6568C111.906 18.3377 111.206 18.1781 110.346 18.1781C109.339 18.1781 108.516 18.4113 107.878 18.8777C107.239 19.3442 106.76 20.0438 106.441 20.9766C106.146 21.8849 105.999 23.0386 105.999 24.4379V24.9166C105.999 26.2913 106.146 27.445 106.441 28.3779C106.76 29.3107 107.252 30.0103 107.915 30.4767C108.578 30.9186 109.45 31.1395 110.53 31.1395C111.366 31.1395 112.053 30.9922 112.594 30.6977C113.159 30.3785 113.588 29.9121 113.883 29.2984C114.178 28.6847 114.325 27.9483 114.325 27.0891H118.673C118.673 28.2919 118.488 29.3721 118.12 30.3294C117.752 31.2868 117.211 32.0969 116.499 32.7597C115.787 33.4225 114.915 33.9257 113.883 34.2694C112.876 34.6131 111.722 34.7849 110.42 34.7849Z" fill="#161616"/>
<path d="M87.7238 34.7849C85.6606 34.7849 83.9413 34.429 82.5658 33.7171C81.1904 32.9806 80.1588 31.8637 79.471 30.3663C78.7833 28.8688 78.4395 26.9663 78.4395 24.6588C78.4395 22.3268 78.7833 20.4243 79.471 18.9514C80.1588 17.4539 81.1904 16.3493 82.5658 15.6374C83.9413 14.9009 85.6606 14.5327 87.7238 14.5327C89.5904 14.5327 91.1501 14.8887 92.4028 15.6006C93.68 16.2879 94.6379 17.3558 95.2765 18.8041C95.9151 20.2524 96.2344 22.1304 96.2344 24.4379V25.7635H83.0448C83.0939 26.9663 83.2781 27.9851 83.5974 28.8197C83.9167 29.6298 84.4079 30.2435 85.0711 30.6608C85.7588 31.0536 86.6553 31.25 87.7606 31.25C88.3255 31.25 88.8536 31.1764 89.3448 31.0291C89.8361 30.8818 90.2659 30.6608 90.6343 30.3663C91.0027 30.0471 91.2852 29.6544 91.4817 29.188C91.7027 28.7215 91.8133 28.1815 91.8133 27.5678H96.2344C96.2344 28.7952 96.0133 29.863 95.5712 30.7713C95.1537 31.6796 94.5519 32.4283 93.7659 33.0175C93.0045 33.6066 92.108 34.0485 91.0764 34.3431C90.0448 34.6376 88.9273 34.7849 87.7238 34.7849ZM83.1184 22.5968H91.5554C91.5554 21.7867 91.4571 21.0993 91.2606 20.5347C91.0887 19.9701 90.8308 19.5037 90.4869 19.1355C90.1676 18.7673 89.7747 18.5095 89.308 18.3622C88.8413 18.1904 88.3132 18.1045 87.7238 18.1045C86.7659 18.1045 85.9553 18.264 85.2922 18.5832C84.6536 18.9023 84.1623 19.3932 83.8185 20.056C83.4746 20.7188 83.2413 21.5658 83.1184 22.5968Z" fill="#161616"/>
<path d="M63.8283 34.3431V13.2071H55.7598V9.08301H76.7231V13.2071H68.6178V34.3431H63.8283Z" fill="#161616"/>
</svg>
