<svg width="177" height="39" viewBox="0 0 177 39" fill="none" xmlns="http://www.w3.org/2000/svg">
<path d="M40.8723 3.0847C40.8723 2.93047 40.7181 2.93047 40.7181 2.77623C40.1011 2.00506 39.4842 1.38812 38.713 0.925411C38.2503 6.63211 34.3944 11.2592 28.9962 13.5727C33.3148 11.1049 36.2453 6.78635 36.5537 1.85082C36.5537 1.69659 36.5537 1.54235 36.5537 1.23388C36.5537 0.771176 36.5537 0.462705 36.5537 0C36.3995 0 36.2453 0 36.091 0C35.9368 0 35.7826 0 35.6283 0C35.4741 0 35.3199 0 35.1656 0H31.1555H6.63211C6.16941 0 5.7067 0 5.244 0.154235C5.08976 0.154235 5.08976 0.154235 4.93552 0.30847C4.93552 0.30847 4.93552 0.30847 4.78129 0.30847H4.62705C4.62705 0.30847 4.62705 0.30847 4.47282 0.30847C4.47282 0.30847 4.47282 0.30847 4.31858 0.30847C4.31858 0.30847 4.31858 0.30847 4.16435 0.30847C4.01011 0.30847 4.01011 0.30847 3.85588 0.462705C3.85588 0.462705 3.85588 0.462705 3.70164 0.462705C3.54741 0.462705 3.54741 0.616941 3.39317 0.616941C3.0847 1.07965 2.77623 1.38812 2.31353 1.54235C2.15929 1.69659 2.15929 1.85082 2.00506 1.85082L1.85082 2.00506C1.85082 2.00506 1.85082 2.00506 1.85082 2.15929L1.69659 2.31353C1.69659 2.31353 1.69659 2.31353 1.69659 2.46776C1.69659 2.46776 1.54235 2.622 1.54235 2.77623C1.54235 2.77623 1.54235 2.77623 1.54235 2.93047C1.07965 3.0847 0.925411 3.23894 0.925411 3.39317C0.30847 4.31858 0.154235 5.244 0 6.32364C0 6.47788 0 6.63211 0 6.78635C0 6.94058 0 7.09482 0 7.24905C0 7.40329 0 7.55752 0 7.55752C0 7.71176 0 7.71176 0 7.86599C0 7.86599 0 7.86599 0 8.02023C0 8.17446 0 8.17446 0 8.3287V8.48293C0 8.63717 0 8.63717 0 8.7914V8.94564V9.09987C0 9.09987 0 9.25411 0.154235 9.25411V9.40835C0.154235 9.56258 0.30847 9.71682 0.30847 9.87105L10.0253 26.6827L14.6523 34.5487C16.3489 36.8622 18.5082 38.0961 20.976 38.0961C21.1302 38.0961 21.2845 38.0961 21.4387 38.0961C21.5929 38.0961 21.7472 38.0961 21.7472 38.0961C21.9014 38.0961 21.9014 38.0961 22.0556 38.0961C22.0556 38.0961 22.0556 38.0961 22.2099 38.0961C22.2099 38.0961 22.3641 38.0961 22.5183 38.0961H22.6726C22.8268 38.0961 22.8268 38.0961 22.981 37.9419H23.1353H23.2895C23.4437 37.9419 23.4437 37.7876 23.598 37.7876C23.9064 37.6334 24.0607 37.6334 24.2149 37.4791L24.3692 37.3249C24.3692 37.3249 24.3692 37.3249 24.5234 37.3249L24.6776 37.1707C24.6776 37.1707 24.8319 37.1707 24.8319 37.0164L24.9861 36.8622L25.1403 36.708L25.2946 36.5537L25.4488 36.3995L25.603 36.2453L25.7573 36.091C25.7573 36.091 25.7573 35.9368 25.9115 35.9368L26.0657 35.7826C26.0657 35.7826 26.0657 35.6283 26.22 35.6283C26.22 35.4741 26.3742 35.3199 26.3742 35.3199L32.3894 25.1403C30.3843 25.7573 28.3793 26.0657 26.22 26.0657C26.0657 26.0657 25.9115 26.0657 25.7573 26.0657H25.603C25.4488 26.0657 25.4488 26.0657 25.2946 26.0657H25.1403C24.9861 26.0657 24.9861 26.0657 24.8319 26.0657H24.6776C24.5234 26.0657 24.5234 26.0657 24.3692 26.0657H24.2149C24.0607 26.0657 24.0607 26.0657 23.9064 26.0657H23.7522C23.598 26.0657 23.4437 26.0657 23.2895 26.0657H23.1353C22.981 26.0657 22.981 26.0657 22.8268 26.0657H22.6726C22.5183 26.0657 22.5183 26.0657 22.3641 26.0657H22.2099C22.2099 26.0657 22.0556 26.0657 21.9014 26.0657C21.9014 26.0657 21.7472 26.0657 21.5929 26.0657C21.4387 26.0657 21.4387 26.0657 21.2845 26.0657H21.1302C21.1302 26.0657 20.976 26.0657 20.8217 26.0657H20.6675C20.5133 26.0657 20.359 25.9115 20.2048 25.9115C20.2048 25.9115 20.0506 25.9115 19.8963 25.9115H19.7421C19.7421 25.9115 19.5879 25.9115 19.4336 25.7573H19.2794C19.1252 25.7573 19.1252 25.7573 18.9709 25.603H18.8167C18.8167 25.603 18.6625 25.603 18.5082 25.4488H18.354C18.1997 25.4488 18.1997 25.4488 18.0455 25.2946C18.0455 25.2946 18.0455 25.2946 17.8913 25.2946C17.5828 24.0607 17.2743 23.9065 16.9659 23.7522C16.9659 23.7522 16.9659 23.7522 16.8116 23.7522C16.6574 23.7522 16.6574 23.598 16.5032 23.598C16.5032 23.598 16.5032 23.598 16.3489 23.598C16.1947 23.598 16.1947 23.4437 16.0405 23.4437C16.0405 23.4437 16.0405 23.4437 15.8862 23.4437C15.732 23.4437 15.732 23.2895 15.5778 23.2895C15.2693 22.8268 14.8066 22.5183 14.3439 22.2099C14.1896 22.2099 14.0354 22.0556 14.0354 22.0556C13.8812 22.0556 13.8812 21.9014 13.7269 21.9014C14.3439 22.2099 14.9608 22.5183 15.5778 22.8268C16.1947 22.981 16.6574 23.1353 17.2743 23.4437C17.2743 23.4437 17.2743 23.4437 17.4286 23.4437C17.5828 23.4437 17.737 23.598 17.8913 23.598C18.1997 23.7522 18.6625 23.7522 19.1252 23.9065C19.1252 23.9065 19.1252 23.9065 19.2794 23.9065C19.4336 23.9065 19.5879 23.9065 19.7421 24.0607H19.8963C20.0506 24.0607 20.2048 24.0607 20.359 24.2149C20.359 24.2149 20.359 24.2149 20.5133 24.2149C20.6675 24.2149 20.976 24.2149 21.1302 24.2149C21.1302 24.2149 21.1302 24.2149 21.2845 24.2149C21.4387 24.2149 21.5929 24.2149 21.7472 24.2149H21.9014C22.0556 24.2149 22.2099 24.2149 22.3641 24.2149H22.5183C22.6726 24.2149 22.981 24.2149 23.1353 24.2149C28.0708 24.2149 32.5436 22.3641 35.9368 19.1252L41.1808 10.0253C42.4147 8.02023 42.4147 5.39823 41.1808 3.39317C41.0266 3.23894 40.8723 3.0847 40.8723 3.0847ZM20.976 21.9014C20.0506 21.9014 19.2794 21.4387 18.8167 20.6675L15.5778 15.2693L14.8066 13.8812C14.8066 13.8812 14.8066 13.7269 14.6523 13.7269C14.3439 12.9558 14.3439 12.1846 14.8066 11.4134C14.8066 11.4134 14.8066 11.2592 14.9608 11.2592C14.9608 11.2592 14.9608 11.1049 15.115 11.1049C15.5778 10.488 16.1947 10.1795 16.9659 10.1795H24.8319H24.9861H25.1403C25.2946 10.1795 25.4488 10.1795 25.4488 10.3338C25.603 10.3338 25.7573 10.488 25.7573 10.488C25.9115 10.488 26.0657 10.6422 26.0657 10.7965C26.0657 10.7965 26.0657 10.9507 26.22 10.9507L26.3742 11.1049C26.3742 11.1049 26.3742 11.2592 26.5284 11.2592L26.6827 11.4134C27.1454 12.1846 27.1454 13.11 26.6827 13.8812L26.5284 14.8066L24.6776 18.0455L23.1353 20.6675C22.6726 21.4387 21.9014 21.9014 20.976 21.9014Z" fill="#615CF6"/>
<path d="M41.026 3.39281C40.409 2.31316 39.6378 1.54199 38.7124 0.925046C38.0955 7.40292 33.3142 12.6469 26.6821 14.3435L23.1347 20.6671C22.672 21.4383 21.9008 21.901 20.9754 21.901C20.05 21.901 19.2788 21.4383 18.8161 20.6671L14.806 13.8808C14.806 13.8808 14.806 13.7266 14.6517 13.7266C9.09928 11.2588 5.08916 6.16904 4.93493 0.308105C4.47222 0.462341 3.85528 0.616576 3.39258 0.925046C3.39258 1.54199 3.39258 2.31316 3.39258 3.08434C3.39258 14.8062 12.184 24.2146 22.9804 24.2146C27.916 24.2146 32.3888 22.3637 35.782 19.1248L41.026 10.0249C42.2598 8.01986 42.2598 5.39787 41.026 3.39281Z" fill="#615CF6"/>
<path d="M26.5285 14.8066C32.3894 12.6473 36.5538 7.40329 36.5538 1.38812C36.5538 0.925411 36.5538 0.616941 36.5538 0.154235C36.091 0 35.6283 0 35.1656 0H6.63213C5.86096 0 5.08978 0.154235 4.3186 0.462705C4.3186 0.771176 4.3186 1.07965 4.3186 1.38812C4.3186 7.86599 9.09989 13.4185 15.5778 15.2693L14.8066 13.8812C14.3439 13.11 14.3439 12.1846 14.8066 11.4134C15.2693 10.6422 16.1947 10.1795 16.9659 10.1795H24.8319C25.7573 10.1795 26.5285 10.6422 26.9912 11.4134C27.4539 12.1846 27.4539 13.11 26.9912 13.8812L26.5285 14.8066Z" fill="#615CF6"/>
<path d="M41.026 3.39355C40.8717 3.23931 40.7175 2.93084 40.7175 2.77661C39.9463 13.7273 31.9261 22.2102 22.055 22.2102C12.0297 22.2102 3.85528 13.2646 3.39258 2.15967C3.39258 2.46814 3.39258 2.77661 3.39258 3.08508C3.39258 14.807 12.184 24.2153 22.9804 24.2153C27.916 24.2153 32.3888 22.3645 35.782 19.1255L41.026 10.0257C42.2598 8.0206 42.2598 5.39861 41.026 3.39355Z" fill="#615CF6"/>
<path d="M13.2642 21.4385C13.5726 27.9164 16.6573 33.7773 21.5929 38.0959C23.7522 37.9416 25.603 36.7078 26.6826 34.8569L32.3893 25.1401C30.3843 25.7571 28.3792 26.0655 26.2199 26.0655C21.2844 26.0655 16.8116 24.3689 13.2642 21.4385Z" fill="#615CF6"/>
<path d="M38.713 0.925293C38.096 7.40317 33.3147 12.6472 26.6826 14.3438L23.1352 20.6674C22.6725 21.4386 21.9013 21.9013 20.9759 21.9013C20.0505 21.9013 19.2793 21.4386 18.8166 20.6674L14.8065 13.881C14.8065 13.881 14.8065 13.7268 14.6523 13.7268C14.498 13.5726 14.1896 13.4183 13.8811 13.2641C13.4184 15.1149 13.2642 17.12 13.2642 19.125C13.2642 20.0505 13.2642 20.8216 13.4184 21.5928C16.1946 23.2894 19.5878 24.2148 22.981 24.2148C27.9165 24.2148 32.3893 22.364 35.7825 19.125L41.0265 10.0252C42.2604 8.02011 42.2604 5.39811 41.0265 3.39306C40.4096 2.31341 39.6384 1.54223 38.713 0.925293Z" fill="#615CF6"/>
<path d="M14.8067 11.4142C14.8067 11.2599 14.961 11.2599 14.961 11.1057C10.7966 10.1803 7.09496 7.71251 4.6272 4.31934C5.86108 9.56333 10.0254 13.7277 15.5779 15.27L14.8067 13.8819C14.344 13.1107 14.344 12.1853 14.8067 11.4142Z" fill="#615CF6"/>
<path d="M35.6281 0.000488281C34.0857 4.62754 30.3841 8.48342 25.6028 10.3342C26.2197 10.4885 26.6824 10.9512 26.9909 11.4139C27.4536 12.1851 27.4536 13.1105 26.9909 13.8817L26.5282 14.8071C32.3891 12.6478 36.5535 7.40378 36.5535 1.38861C36.5535 0.9259 36.5535 0.617429 36.5535 0.154723C36.245 0.000488281 35.9365 0.000488281 35.6281 0.000488281Z" fill="#615CF6"/>
<path d="M14.807 13.8808C14.807 13.8808 14.807 13.7266 14.6528 13.7266C9.10032 11.2588 5.0902 6.16904 4.93597 0.308105C4.47326 0.308105 4.01056 0.616576 3.54785 0.770811C4.6275 8.48257 9.87149 14.8062 16.8121 17.1197L14.807 13.8808Z" fill="#615CF6"/>
<path d="M41.1811 3.54729C41.1811 3.54729 41.1811 3.39306 41.0269 3.39306C40.41 2.31341 39.6388 1.54223 38.7134 0.925293C38.0964 7.40317 33.3151 12.6472 26.683 14.3438L24.678 18.0454C32.544 17.12 39.0218 11.259 41.1811 3.54729Z" fill="#615CF6"/>
<path d="M168.35 31.0525C166.442 31.0525 164.845 30.7309 163.559 30.0876C162.272 29.4222 161.307 28.413 160.664 27.06C160.021 25.707 159.699 23.9879 159.699 21.903C159.699 19.7958 160.021 18.0768 160.664 16.7459C161.307 15.3929 162.272 14.3948 163.559 13.7516C164.845 13.0861 166.442 12.7534 168.35 12.7534C170.279 12.7534 171.876 13.0861 173.141 13.7516C174.427 14.3948 175.392 15.3929 176.035 16.7459C176.679 18.0768 177 19.7958 177 21.903C177 23.9879 176.679 25.707 176.035 27.06C175.392 28.413 174.427 29.4222 173.141 30.0876C171.876 30.7309 170.279 31.0525 168.35 31.0525ZM168.35 27.7254C169.414 27.7254 170.268 27.5258 170.912 27.1265C171.577 26.7051 172.054 26.084 172.342 25.2633C172.653 24.4205 172.808 23.378 172.808 22.1359V21.6701C172.808 20.4279 172.653 19.3965 172.342 18.5759C172.054 17.733 171.577 17.1119 170.912 16.7127C170.268 16.2912 169.414 16.0805 168.35 16.0805C167.285 16.0805 166.42 16.2912 165.755 16.7127C165.111 17.1119 164.634 17.733 164.324 18.5759C164.036 19.3965 163.891 20.4279 163.891 21.6701V22.1359C163.891 23.378 164.036 24.4205 164.324 25.2633C164.634 26.084 165.111 26.7051 165.755 27.1265C166.42 27.5258 167.285 27.7254 168.35 27.7254Z" fill="white"/>
<path d="M146.755 30.6532V13.1527H150.149L150.482 15.9142H150.715C150.936 15.3597 151.203 14.8495 151.513 14.3837C151.846 13.8957 152.267 13.5076 152.777 13.2192C153.288 12.9087 153.909 12.7534 154.641 12.7534C154.996 12.7534 155.317 12.7867 155.605 12.8532C155.916 12.9198 156.149 12.9863 156.304 13.0529V16.879H155.073C154.386 16.879 153.776 16.9788 153.243 17.1785C152.711 17.3559 152.256 17.6443 151.879 18.0435C151.524 18.4428 151.258 18.9418 151.081 19.5407C150.903 20.1396 150.814 20.8383 150.814 21.6368V30.6532H146.755Z" fill="white"/>
<path d="M138.838 31.0524C137.751 31.0524 136.897 30.8417 136.276 30.4202C135.655 29.9766 135.211 29.4221 134.945 28.7567C134.701 28.0691 134.579 27.3704 134.579 26.6606V16.4797H132.483V13.1526H134.679L135.411 8.26172H138.638V13.1526H141.666V16.4797H138.638V26.2614C138.638 26.7272 138.76 27.0931 139.004 27.3593C139.248 27.6033 139.614 27.7253 140.102 27.7253H141.666V30.5201C141.444 30.6088 141.167 30.6864 140.834 30.753C140.524 30.8417 140.191 30.9082 139.836 30.9526C139.481 31.0191 139.148 31.0524 138.838 31.0524Z" fill="white"/>
<path d="M112.704 30.6536V6.59863H116.763V15.1493H116.996C117.373 14.6835 117.817 14.2732 118.327 13.9183C118.837 13.5634 119.414 13.2861 120.057 13.0865C120.722 12.8647 121.454 12.7538 122.253 12.7538C123.362 12.7538 124.338 12.9534 125.181 13.3527C126.046 13.7519 126.722 14.3952 127.21 15.2824C127.698 16.1696 127.942 17.3563 127.942 18.8424V30.6536H123.85V19.5743C123.85 18.9533 123.772 18.4431 123.617 18.0439C123.484 17.6224 123.273 17.2897 122.985 17.0457C122.719 16.7796 122.386 16.591 121.987 16.4801C121.587 16.3692 121.144 16.3138 120.656 16.3138C119.924 16.3138 119.258 16.4912 118.66 16.8461C118.083 17.201 117.617 17.689 117.262 18.31C116.93 18.9311 116.763 19.652 116.763 20.4727V30.6536H112.704Z" fill="white"/>
<path d="M99.7164 31.0525C97.8975 31.0525 96.3782 30.7309 95.1582 30.0876C93.9605 29.4222 93.0621 28.413 92.4633 27.06C91.8644 25.707 91.5649 23.9879 91.5649 21.903C91.5649 19.7958 91.8644 18.0768 92.4633 16.7459C93.0843 15.3929 93.9937 14.3948 95.1915 13.7516C96.4114 13.0861 97.9197 12.7534 99.7164 12.7534C100.892 12.7534 101.934 12.8976 102.844 13.1859C103.753 13.4743 104.53 13.9179 105.173 14.5168C105.838 15.0935 106.337 15.8144 106.67 16.6794C107.003 17.5445 107.169 18.5537 107.169 19.7071H103.043C103.043 18.8864 102.921 18.2099 102.677 17.6775C102.433 17.1452 102.056 16.7459 101.546 16.4798C101.058 16.1914 100.426 16.0473 99.6498 16.0473C98.7404 16.0473 97.9973 16.258 97.4206 16.6794C96.8439 17.1008 96.4114 17.733 96.1231 18.5759C95.8569 19.3965 95.7238 20.439 95.7238 21.7033V22.1359C95.7238 23.378 95.8569 24.4205 96.1231 25.2633C96.4114 26.1062 96.855 26.7384 97.4539 27.1598C98.0528 27.559 98.8402 27.7587 99.8162 27.7587C100.57 27.7587 101.191 27.6256 101.679 27.3594C102.19 27.0711 102.578 26.6496 102.844 26.0951C103.11 25.5406 103.243 24.8752 103.243 24.0989H107.169C107.169 25.1857 107.003 26.1617 106.67 27.0267C106.337 27.8918 105.849 28.6237 105.206 29.2226C104.563 29.8215 103.775 30.2762 102.844 30.5867C101.934 30.8972 100.892 31.0525 99.7164 31.0525Z" fill="white"/>
<path d="M79.2198 31.0525C77.3566 31.0525 75.8039 30.7309 74.5618 30.0876C73.3197 29.4222 72.3881 28.413 71.767 27.06C71.146 25.707 70.8354 23.9879 70.8354 21.903C70.8354 19.7958 71.146 18.0768 71.767 16.7459C72.3881 15.3929 73.3197 14.3948 74.5618 13.7516C75.8039 13.0861 77.3566 12.7534 79.2198 12.7534C80.9055 12.7534 82.314 13.075 83.4452 13.7183C84.5986 14.3393 85.4636 15.3042 86.0403 16.6129C86.617 17.9215 86.9054 19.6183 86.9054 21.7033V22.9011H74.9943C75.0387 23.9879 75.205 24.9084 75.4934 25.6626C75.7817 26.3946 76.2254 26.9491 76.8242 27.3261C77.4453 27.681 78.2549 27.8585 79.253 27.8585C79.7632 27.8585 80.2401 27.7919 80.6837 27.6589C81.1273 27.5258 81.5155 27.3261 81.8482 27.06C82.1809 26.7716 82.436 26.4167 82.6134 25.9953C82.813 25.5739 82.9128 25.0859 82.9128 24.5314H86.9054C86.9054 25.6404 86.7057 26.6053 86.3065 27.426C85.9294 28.2466 85.386 28.9232 84.6762 29.4555C83.9886 29.9878 83.179 30.3871 82.2474 30.6532C81.3158 30.9194 80.3066 31.0525 79.2198 31.0525ZM75.0609 20.0398H82.6799C82.6799 19.3078 82.5912 18.6868 82.4138 18.1766C82.2585 17.6664 82.0256 17.245 81.7151 16.9123C81.4267 16.5796 81.0718 16.3467 80.6504 16.2136C80.229 16.0583 79.7521 15.9807 79.2198 15.9807C78.3547 15.9807 77.6227 16.1249 77.0239 16.4132C76.4472 16.7016 76.0036 17.1452 75.693 17.7441C75.3825 18.343 75.1718 19.1082 75.0609 20.0398Z" fill="white"/>
<path d="M57.6411 30.6535V11.556H50.3547V7.82959H69.286V11.556H61.9663V30.6535H57.6411Z" fill="white"/>
</svg>
